<?xml version="1.0" encoding="utf-8"?>
<!-- Generator: Adobe Illustrator 25.0.1, SVG Export Plug-In . SVG Version: 6.00 Build 0)  -->
<svg version="1.1" id="Capa_1" xmlns="http://www.w3.org/2000/svg" xmlns:xlink="http://www.w3.org/1999/xlink" x="0px" y="0px"
	 viewBox="0 0 1021 189" style="enable-background:new 0 0 1021 189;" xml:space="preserve">
<style type="text/css">
	.st0{fill:#EB1584;}
	.st1{fill:#FFFFFF;}
</style>
<g>
	<path class="st0" d="M80.9,131.5c-0.5,0.3-1,0.3-1.7-0.1L7.4,96.2C6.5,95.7,6,94.9,6,93.8v-9.6c0-1.1,0.5-1.9,1.4-2.4l71.8-35.2
		l1-0.4c0.4,0,0.7,0.2,1,0.5c0.3,0.3,0.4,0.8,0.4,1.3v9.8c0,1.1-0.5,1.9-1.4,2.4L20.6,88.4c-0.5,0.4-0.5,0.8,0,1.2l59.6,28.2
		c0.9,0.5,1.4,1.3,1.4,2.4v9.8C81.6,130.7,81.4,131.2,80.9,131.5z"/>
	<path class="st1" d="M163.4,16.6h-46c-0.5,0-0.8,0.3-0.8,0.8V67c0,0.5,0.3,0.8,0.8,0.8h29c1.3,0,2,0.7,2,2v8.6c0,1.3-0.7,2-2,2h-29
		c-0.5,0-0.8,0.3-0.8,0.8v61c0,1.3-0.7,2-2,2h-10.2c-1.3,0-2-0.7-2-2V6.2c0-1.3,0.7-2,2-2h59c1.3,0,2,0.7,2,2v8.4
		C165.4,15.9,164.7,16.6,163.4,16.6z"/>
	<path class="st1" d="M218.6,44.2c0.9,0.5,1.3,1.4,1,2.6l-2.4,10.4c-0.1,1.2-0.9,1.6-2.4,1.2c-1.6-0.8-3.6-1.2-6-1.2
		c-1.1,0-1.9,0.1-2.4,0.2c-4.8,0.3-8.7,2.8-11.8,7.5c-3.1,4.7-4.6,10.5-4.6,17.3v60c0,1.3-0.7,2-2,2h-10.2c-1.3,0-2-0.7-2-2V45
		c0-1.3,0.7-2,2-2H188c1.3,0,2,0.7,2,2v12c0,0.4,0.1,0.6,0.3,0.6c0.2,0,0.4-0.1,0.7-0.4c3.9-10.1,10.2-15.2,19-15.2
		C213.3,42,216.2,42.7,218.6,44.2z"/>
	<path class="st1" d="M239.7,137.4c-5.7-5.6-8.5-13-8.5-22.2v-43c0-9.1,2.9-16.5,8.6-22.2c5.7-5.7,13.3-8.6,22.8-8.6
		c9.6,0,17.3,2.9,23,8.6c5.7,5.7,8.6,13.1,8.6,22.2v43c0,9.2-2.9,16.6-8.6,22.2c-5.7,5.6-13.4,8.4-23,8.4S245.4,143,239.7,137.4z
		 M275.1,128c3.3-3.5,4.9-8.1,4.9-13.8V73c0-5.7-1.6-10.4-4.9-13.9c-3.3-3.5-7.4-5.3-12.5-5.3c-5.1,0-9.2,1.8-12.4,5.3
		c-3.2,3.5-4.8,8.2-4.8,13.9v41.2c0,5.7,1.6,10.3,4.8,13.8c3.2,3.5,7.3,5.2,12.4,5.2C267.7,133.2,271.8,131.5,275.1,128z"/>
	<path class="st1" d="M371.3,50c4.5,5.6,6.7,13.4,6.7,23.4v68.8c0,1.3-0.7,2-2,2h-10.2c-1.3,0-2-0.7-2-2V74.6
		c0-6.5-1.4-11.6-4.3-15.2c-2.9-3.6-6.8-5.4-11.9-5.4c-5.3,0-9.5,1.9-12.5,5.8c-3,3.9-4.5,9.1-4.5,15.8v66.6c0,1.3-0.7,2-2,2h-10.2
		c-1.3,0-2-0.7-2-2V45c0-1.3,0.7-2,2-2h10.2c1.3,0,2,0.7,2,2v6.4c0,0.3,0.1,0.5,0.4,0.6c0.3,0.1,0.5,0,0.6-0.4
		c2.4-3.3,5.4-5.8,9.1-7.5c3.7-1.7,7.6-2.5,11.7-2.5C360.5,41.6,366.8,44.4,371.3,50z"/>
	<path class="st1" d="M434.8,53.6h-15.2c-0.5,0-0.8,0.3-0.8,0.8v61.2c0,6.1,1.1,10.4,3.2,12.7c2.1,2.3,5.4,3.4,9.8,3.3h2
		c1.3,0,2,0.7,2,2v8.6c0,1.3-0.7,2-2,2h-5c-7.9,0-13.8-1.7-17.9-5.1c-4.1-3.4-6.1-9.8-6.1-19.3V54.4c0-0.5-0.3-0.8-0.8-0.8h-7.8
		c-1.3,0-2-0.7-2-2V45c0-1.3,0.7-2,2-2h7.8c0.5,0,0.8-0.3,0.8-0.8V19.8c0-1.3,0.7-2,2-2h10c1.3,0,2,0.7,2,2v22.4
		c0,0.5,0.3,0.8,0.8,0.8h15.2c1.3,0,2,0.7,2,2v6.6C436.8,52.9,436.1,53.6,434.8,53.6z"/>
	<path class="st1" d="M458.9,138.1c-5.5-4.7-8.3-11-8.3-18.9v-1.4c0-1.3,0.7-2,2-2h9.6c1.3,0,2,0.7,2,2v1.2c0,4.3,1.6,7.9,4.7,10.8
		c3.1,2.9,7.2,4.4,12.3,4.4c4.8,0,8.7-1.5,11.6-4.4c2.9-2.9,4.4-6.7,4.4-11.2c0-3.5-0.9-6.4-2.8-8.7c-1.9-2.3-4-4.2-6.5-5.5
		c-2.5-1.3-6.2-3.1-11.1-5.2c-5.2-2.1-9.5-4.2-12.9-6.3c-3.4-2.1-6.3-5-8.8-8.8c-2.5-3.8-3.7-8.6-3.7-14.5c0-8.5,2.6-15.3,7.9-20.2
		c5.3-4.9,12.4-7.4,21.3-7.4c9.1,0,16.3,2.5,21.6,7.6c5.3,5.1,8,11.8,8,20.2v0.6c0,1.3-0.7,2-2,2H499c-1.3,0-2-0.7-2-2v-1.2
		c0-4.5-1.5-8.3-4.5-11.2c-3-2.9-6.9-4.4-11.7-4.4c-4.8,0-8.6,1.5-11.5,4.5c-2.9,3-4.3,6.7-4.3,11.1c0,3.2,0.9,5.9,2.6,8.1
		c1.7,2.2,3.9,4,6.4,5.4c2.5,1.4,6.1,3.1,10.6,5.1c5.5,2.4,10,4.7,13.5,6.8c3.5,2.1,6.6,5.1,9.3,9c2.7,3.9,4,8.7,4,14.4
		c0,8.3-2.7,14.9-8.2,19.8c-5.5,4.9-12.9,7.4-22.2,7.4C471.8,145.2,464.4,142.8,458.9,138.1z"/>
	<path class="st1" d="M529.9,21.4c-2.1-2.1-3.1-4.8-3.1-8c0-3.3,1-6,3.1-8.1c2.1-2.1,4.8-3.1,8.1-3.1c3.2,0,5.8,1,7.9,3.1
		c2.1,2.1,3.1,4.8,3.1,8.1c0,3.2-1,5.9-3.1,8c-2.1,2.1-4.7,3.2-7.9,3.2C534.7,24.6,532,23.5,529.9,21.4z M531,142.2V45
		c0-1.3,0.7-2,2-2h10.2c1.3,0,2,0.7,2,2v97.2c0,1.3-0.7,2-2,2H533C531.7,144.2,531,143.5,531,142.2z"/>
	<path class="st1" d="M619,43h10.2c1.3,0,2,0.7,2,2v97.2c0,14.3-3.3,25.1-9.9,32.5c-6.6,7.4-17.6,10.8-33.1,10.1
		c-1.3-0.1-2-0.9-2-2.2V174c0-1.3,0.7-2,2-2c10.7,0.3,18.1-2.2,22.4-7.3c4.3-5.1,6.4-13,6.4-23.7v-6c0-0.3-0.1-0.5-0.3-0.6
		c-0.2-0.1-0.4-0.1-0.7,0.2c-2.3,3.3-5.2,5.9-8.7,7.6c-3.5,1.7-7.3,2.6-11.3,2.6c-8.4,0-15-2.8-19.9-8.4c-4.9-5.6-7.3-13-7.3-22.2
		V72c0-9.3,2.4-16.8,7.3-22.3c4.9-5.5,11.5-8.3,19.9-8.3c4,0,7.8,0.8,11.3,2.5c3.5,1.7,6.4,4.2,8.7,7.5c0.3,0.4,0.5,0.6,0.7,0.5
		c0.2-0.1,0.3-0.3,0.3-0.7V45C617,43.7,617.7,43,619,43z M612.3,127.1c3.1-3.5,4.7-8.1,4.7-13.7V73c0-5.7-1.6-10.4-4.7-13.9
		c-3.1-3.5-7.2-5.3-12.1-5.3c-5.1,0-9.2,1.8-12.4,5.3c-3.2,3.5-4.8,8.2-4.8,13.9v40.4c0,5.6,1.6,10.2,4.8,13.7
		c3.2,3.5,7.3,5.3,12.4,5.3C605.1,132.4,609.2,130.6,612.3,127.1z"/>
	<path class="st1" d="M708.5,50c4.5,5.6,6.7,13.4,6.7,23.4v68.8c0,1.3-0.7,2-2,2H703c-1.3,0-2-0.7-2-2V74.6c0-6.5-1.4-11.6-4.3-15.2
		c-2.9-3.6-6.8-5.4-11.9-5.4c-5.3,0-9.5,1.9-12.5,5.8c-3,3.9-4.5,9.1-4.5,15.8v66.6c0,1.3-0.7,2-2,2h-10.2c-1.3,0-2-0.7-2-2V45
		c0-1.3,0.7-2,2-2h10.2c1.3,0,2,0.7,2,2v6.4c0,0.3,0.1,0.5,0.4,0.6c0.3,0.1,0.5,0,0.6-0.4c2.4-3.3,5.4-5.8,9.1-7.5
		c3.7-1.7,7.6-2.5,11.7-2.5C697.7,41.6,704,44.4,708.5,50z"/>
	<path class="st1" d="M796.8,99h-45.6c-0.5,0-0.8,0.3-0.8,0.8v14.6c0,5.6,1.6,10.2,4.7,13.7c3.1,3.5,7.2,5.3,12.3,5.3
		c4.3,0,7.9-1.3,10.9-3.9s5-6,5.9-10.1c0.4-1.2,1.1-1.8,2.2-1.8l10,0.4c0.5,0,1,0.2,1.4,0.6c0.4,0.4,0.5,0.9,0.4,1.6
		c-1.1,7.9-4.3,14.1-9.7,18.7c-5.4,4.6-12.4,6.9-21.1,6.9c-9.5,0-17-2.8-22.7-8.4c-5.7-5.6-8.5-13-8.5-22.2V72
		c0-9.1,2.8-16.4,8.5-22.1c5.7-5.7,13.2-8.5,22.7-8.5c9.6,0,17.2,2.8,22.9,8.5c5.7,5.7,8.5,13,8.5,22.1v25
		C798.8,98.3,798.1,99,796.8,99z M755.1,59.1c-3.1,3.5-4.7,8.2-4.7,13.9v13.4c0,0.5,0.3,0.8,0.8,0.8H784c0.5,0,0.8-0.3,0.8-0.8V73
		c0-5.7-1.6-10.4-4.8-13.9c-3.2-3.5-7.4-5.3-12.6-5.3C762.3,53.8,758.2,55.6,755.1,59.1z"/>
	<path class="st1" d="M862.6,44.2c0.9,0.5,1.3,1.4,1,2.6l-2.4,10.4c-0.1,1.2-0.9,1.6-2.4,1.2c-1.6-0.8-3.6-1.2-6-1.2
		c-1.1,0-1.9,0.1-2.4,0.2c-4.8,0.3-8.7,2.8-11.8,7.5c-3.1,4.7-4.6,10.5-4.6,17.3v60c0,1.3-0.7,2-2,2h-10.2c-1.3,0-2-0.7-2-2V45
		c0-1.3,0.7-2,2-2H832c1.3,0,2,0.7,2,2v12c0,0.4,0.1,0.6,0.3,0.6s0.4-0.1,0.7-0.4c3.9-10.1,10.2-15.2,19-15.2
		C857.3,42,860.2,42.7,862.6,44.2z"/>
	<path class="st0" d="M871.3,143.6c-0.3-0.4-0.4-0.9-0.3-1.6L907.2,6c0.3-1.2,1-1.8,2.2-1.8h10c0.7,0,1.2,0.2,1.5,0.6
		c0.3,0.4,0.4,0.9,0.3,1.6l-36.2,136c-0.3,1.2-1,1.8-2.2,1.8h-10C872.1,144.2,871.6,144,871.3,143.6z"/>
	<path class="st0" d="M940.6,131.8c-0.4,0-0.7-0.2-1-0.5c-0.3-0.3-0.4-0.8-0.4-1.3v-9.8c0-1.1,0.5-1.9,1.4-2.4l59.6-28.2
		c0.5-0.4,0.5-0.8,0-1.2l-59.6-28.2c-0.9-0.5-1.4-1.3-1.4-2.4V48c0-0.7,0.2-1.2,0.7-1.5c0.5-0.3,1-0.3,1.7,0.1l71.8,35.2
		c0.9,0.5,1.4,1.3,1.4,2.4v9.6c0,1.1-0.5,1.9-1.4,2.4l-71.8,35.2L940.6,131.8z"/>
</g>
<g>
</g>
<g>
</g>
<g>
</g>
<g>
</g>
<g>
</g>
<g>
</g>
<g>
</g>
<g>
</g>
<g>
</g>
<g>
</g>
<g>
</g>
<g>
</g>
<g>
</g>
<g>
</g>
<g>
</g>
</svg>
