<?xml version="1.0" encoding="utf-8"?>
<!-- Generator: Adobe Illustrator 25.0.1, SVG Export Plug-In . SVG Version: 6.00 Build 0)  -->
<svg version="1.1" id="Capa_1" xmlns="http://www.w3.org/2000/svg" xmlns:xlink="http://www.w3.org/1999/xlink" x="0px" y="0px"
	 viewBox="0 0 206 206" style="enable-background:new 0 0 206 206;" xml:space="preserve">
<style type="text/css">
	.st0{fill:#1B1B1B;stroke:#1B1B1B;stroke-miterlimit:10;}
	.st1{fill:#4EC600;}
</style>
<circle class="st0" cx="103.2" cy="102.9" r="99.9"/>
<g>
	<path class="st1" d="M63.8,122.1c-0.2,0.1-0.4,0.1-0.6,0l-26.9-13.2c-0.4-0.2-0.5-0.5-0.5-0.9v-3.6c0-0.4,0.2-0.7,0.5-0.9
		l26.9-13.2l0.4-0.1c0.1,0,0.3,0.1,0.4,0.2c0.1,0.1,0.1,0.3,0.1,0.5v3.7c0,0.4-0.2,0.7-0.5,0.9L41.2,106c-0.2,0.2-0.2,0.3,0,0.4
		L63.5,117c0.3,0.2,0.5,0.5,0.5,0.9v3.7C64,121.8,63.9,122,63.8,122.1z"/>
	<path class="st1" d="M79,80.4c-0.8,1.3-1.2,3.3-1.2,6v2.3c0,0.2,0.1,0.3,0.3,0.3h5.8c0.5,0,0.7,0.3,0.7,0.7v2.5
		c0,0.5-0.3,0.7-0.7,0.7h-5.8c-0.2,0-0.3,0.1-0.3,0.3v32.9c0,0.5-0.3,0.7-0.7,0.7h-3.7c-0.5,0-0.7-0.2-0.7-0.7V93.2
		c0-0.2-0.1-0.3-0.3-0.3h-3c-0.5,0-0.7-0.2-0.7-0.7v-2.5c0-0.5,0.2-0.7,0.7-0.7h3c0.2,0,0.3-0.1,0.3-0.3v-2.4c0-4.3,0.8-7.5,2.4-9.4
		c1.6-1.9,4.3-2.9,8-2.9h1c0.5,0,0.7,0.3,0.7,0.7l-0.1,3.1c0,0.5-0.3,0.7-0.7,0.7h-0.9C81.2,78.5,79.8,79.1,79,80.4z"/>
	<path class="st1" d="M93.4,124.6c-2.1-1.8-3.1-4.1-3.1-7.1V117c0-0.5,0.2-0.7,0.7-0.7h3.6c0.5,0,0.7,0.2,0.7,0.7v0.4
		c0,1.6,0.6,2.9,1.8,4c1.2,1.1,2.7,1.6,4.6,1.6c1.8,0,3.2-0.5,4.3-1.6c1.1-1.1,1.6-2.5,1.6-4.2c0-1.3-0.3-2.4-1-3.3
		c-0.7-0.9-1.5-1.6-2.4-2.1c-0.9-0.5-2.3-1.1-4.2-1.9c-1.9-0.8-3.6-1.6-4.8-2.4c-1.3-0.8-2.4-1.9-3.3-3.3c-0.9-1.4-1.4-3.2-1.4-5.4
		c0-3.2,1-5.7,3-7.6c2-1.8,4.6-2.8,8-2.8c3.4,0,6.1,0.9,8.1,2.8c2,1.9,3,4.4,3,7.6v0.2c0,0.5-0.2,0.7-0.7,0.7h-3.4
		c-0.5,0-0.7-0.2-0.7-0.7v-0.4c0-1.7-0.6-3.1-1.7-4.2c-1.1-1.1-2.6-1.6-4.4-1.6s-3.2,0.6-4.3,1.7c-1.1,1.1-1.6,2.5-1.6,4.2
		c0,1.2,0.3,2.2,1,3c0.6,0.8,1.4,1.5,2.4,2c0.9,0.5,2.3,1.2,4,1.9c2,0.9,3.7,1.7,5.1,2.5c1.3,0.8,2.5,1.9,3.5,3.4
		c1,1.4,1.5,3.2,1.5,5.4c0,3.1-1,5.6-3.1,7.4c-2,1.8-4.8,2.8-8.3,2.8C98.2,127.3,95.4,126.4,93.4,124.6z"/>
	<path class="st1" d="M117.2,126.7c-0.1-0.2-0.2-0.3-0.1-0.6l13.6-50.9c0.1-0.4,0.4-0.7,0.8-0.7h3.7c0.2,0,0.4,0.1,0.6,0.2
		c0.1,0.1,0.2,0.4,0.1,0.6l-13.6,50.9c-0.1,0.4-0.4,0.7-0.8,0.7h-3.7C117.5,126.9,117.3,126.8,117.2,126.7z"/>
	<path class="st1" d="M143.1,122.2c-0.2,0-0.3-0.1-0.4-0.2c-0.1-0.1-0.1-0.3-0.1-0.5v-3.7c0-0.4,0.2-0.7,0.5-0.9l22.3-10.6
		c0.2-0.1,0.2-0.3,0-0.4l-22.3-10.6c-0.4-0.2-0.5-0.5-0.5-0.9v-3.7c0-0.2,0.1-0.4,0.3-0.6c0.2-0.1,0.4-0.1,0.6,0l26.9,13.2
		c0.3,0.2,0.5,0.5,0.5,0.9v3.6c0,0.4-0.2,0.7-0.5,0.9l-26.9,13.2L143.1,122.2z"/>
</g>
<g>
</g>
<g>
</g>
<g>
</g>
<g>
</g>
<g>
</g>
<g>
</g>
</svg>
