<?xml version="1.0" encoding="utf-8"?>
<!-- Generator: Adobe Illustrator 25.0.1, SVG Export Plug-In . SVG Version: 6.00 Build 0)  -->
<svg version="1.1" id="Capa_1" xmlns="http://www.w3.org/2000/svg" xmlns:xlink="http://www.w3.org/1999/xlink" x="0px" y="0px"
	 viewBox="0 0 206 206" style="enable-background:new 0 0 206 206;" xml:space="preserve">
<style type="text/css">
	.st0{fill:#1B1B1B;stroke:#1B1B1B;stroke-miterlimit:10;}
	.st1{fill:#4EC600;}
	.st2{fill-rule:evenodd;clip-rule:evenodd;fill:#4EC600;}
</style>
<circle class="st0" cx="103.2" cy="102.9" r="99.9"/>
<g id="viteri_logo" transform="translate(0.01 0.011)">
	<g id="Layer_1">
		<path id="Trazado_1" class="st1" d="M145.5,174.3c-1,0.6-2,0.9-1.7,0.6c-2,1.4-2.1,1.2-2.2,1.7c-1.3,0.9-2.9,1.3-1.4,0.4l-1.9,1.1
			c-0.5,0.3-1,0.5-1.3,0.7l-0.6,0.3l1.2-0.5l0.5-0.2l0.4-0.2l0.4-0.2c-0.2,0.2-0.5,0.4-0.8,0.6c-0.4,0.2-0.9,0.4-1.4,0.6
			c-0.8,0.3-1.6,0.7-2.3,1.2l2.2-1l1.5-0.7c0.2-0.1,0.4-0.2,0.5-0.2c0.1,0,0.1-0.1,0.2-0.1l-0.2,0.2c1.1-0.7,2.3-1.3,3.6-1.8
			c-0.1,0.1,0,0.2-0.7,0.6c0.3-0.2,0.6-0.3,0.9-0.4l0.7-0.4c0.4-0.2,0.7-0.4,0.9-0.6c0.2-0.1,0.4-0.4,0.6-0.6
			c0.1-0.2,0.2-0.4,0.4-0.5c0.2-0.2,0.4-0.3,0.6-0.5c0.3-0.2,0.7-0.5,1.2-0.8C146.3,174,145.9,174.2,145.5,174.3L145.5,174.3z"/>
		<path id="Trazado_2" class="st1" d="M150.2,172.5l1.4-1.6l0.4-0.3l0.5-0.3l0.5-0.4l1.3-1c-0.1-0.2,1.8-1.8,0.4-0.9
			c-0.4,0.3-0.7,0.7-1.1,1c0-0.3,0.9-1,1.6-1.6c0.7-0.6,1.3-1.2,0.8-1l-0.7,0.6c-0.2,0.2-0.4,0.3-0.6,0.5l-0.9,0.7
			c-0.5,0.4-1,0.9-1.4,1.4c-1,0.7-1.9,1.3-2.6,1.7c-0.4,0.2-0.7,0.4-1,0.6c-0.3,0.2-0.6,0.3-0.9,0.4c-0.6,0.4-0.5,0.7-1.3,1.2
			l0.5-0.3l0.4,0.4c0.3-0.2,0.6-0.5,0.9-0.7c0.3-0.2,0.7-0.4,1-0.7l-0.1,0.1l-0.3,0.3l-1,0.9l-1.5,1.4c1.1-0.3,2.1-0.8,3-1.5
			c1.1-0.7,2.2-1.6,3-1.9C150.5,172.5,153.5,170.7,150.2,172.5z"/>
		<path id="Trazado_3" class="st1" d="M146.6,173.7L146.6,173.7L146.6,173.7z"/>
		<path id="Trazado_4" class="st1" d="M37.3,60.4c-0.3,0.3-0.4,0.7-0.4,1.1l0.8-1.2l0.8-1.2l1-1.4c0.7-0.9,1.3-1.8,1.8-2.5l0.9-1.1
			c-0.3,0.1-2.1,2.1-1,0.6c-0.5,0.4-0.9,0.9-1.2,1.5c-0.3,0.4-0.6,0.9-0.8,1.4l0.2-0.7c-0.4,0.7-0.8,1.4-1.4,1.9
			c-0.3,0.3-0.5,0.2-0.2-0.4l-0.1,0.1l0,0.1l-1.1,2.7c-0.3,0.7-0.5,1.4-0.7,1.9c-0.2,0.5-0.3,0.9-0.3,0.9c0.4-0.5,0.6-1.1,0.8-1.8
			C36.5,61.7,36.8,61,37.3,60.4z"/>
		<path id="Trazado_5" class="st1" d="M120.4,181.4c-1.2,0.3-1.3,0.4-1.1,0.4C119.6,181.7,120,181.5,120.4,181.4z"/>
		<path id="Trazado_6" class="st1" d="M35,65.4c0,0-0.2,0.4-0.3,0.9l-0.3,0.9C34.7,66.5,34.8,65.9,35,65.4z"/>
		<path id="Trazado_7" class="st1" d="M37.8,51.9L37.8,51.9l-0.5,0.8l0,0L37.8,51.9z"/>
		<path id="Trazado_8" class="st1" d="M26.4,104.7v0.6C26.4,105.1,26.4,104.9,26.4,104.7z"/>
		<path id="Trazado_9" class="st1" d="M55.6,32.6l-1.7,1.4c-0.4,0.3-0.9,0.7-1.2,1l-0.5,0.5c0.4-0.5-1.3,0.8-0.6,0.1
			c-0.2,0.2-1.4,1.2-1.1,1l0.7-0.5c-1.5,1.8-0.3,1-3,3.7c0.8-0.5,1.5-1.1,2.1-1.7c0.5-0.5,0.9-0.9,1.3-1.4c0.3-0.3,0.6-0.5,0.9-0.7
			l0.4-0.4l0.4-0.4l0.5-0.5l1.3-1.3L55.6,32.6z"/>
		<path id="Trazado_10" class="st1" d="M64.2,175.7L64.2,175.7C64.2,175.7,64.2,175.7,64.2,175.7z"/>
		<path id="Trazado_11" class="st1" d="M63.9,175.8h0.2C63.9,175.7,63.1,175.3,63.9,175.8z"/>
		<path id="Trazado_12" class="st1" d="M35,64.7c0,0.2,0,0.5-0.1,0.7l0.4-1.3C35.3,64.4,35.2,64.6,35,64.7z"/>
		<path id="Trazado_13" class="st1" d="M35.7,61.6l1.8-2.9c0-0.1,0-0.1,0.1-0.2c0.1-0.1,0.1-0.3,0.2-0.4c0.1-0.3,0.3-0.6,0.3-0.6
			l-0.5,0.9c-0.2,0.3-0.4,0.6-0.6,1C36.6,60,36.2,60.7,35.7,61.6z"/>
		<path id="Trazado_14" class="st1" d="M26.8,99.4c-0.1,3.4-0.2,3-0.4,2.1c-0.1-0.9-0.2-2.3-0.4-0.7v1.2c0,0.3,0.1,0.6,0.1,0.9
			c0.1,0.6,0.2,1,0.2,1.6c-0.1-2.7,0.1-2.5,0.3-2.4c0.2,0.2,0.4,0.4,0.5-2.4c0.1,0.3,0.2,0.6,0.2,1c0.1,0.4,0.1,0.9,0.1,1.5
			c0.1,1.1,0.1,2.2,0,3.3c-0.2,1-0.3,0.6-0.4-0.2c0-0.7-0.1-1.4-0.4-2.1c0,0.6,0,1.2,0.1,1.8c0.1,0.3,0.2,0.6,0.3,0.9
			c0.1,1.7,0.2,3.4,0.5,5.1c0.1,0.8,0.2,1.5,0.3,2.2c0.1,0.6,0.1,1.2,0,1.8c0.1,0.8,0.3,1.5,0.6,2.2c0.2,0.4,0.4,0.7,0.6,1.4
			c0.3,0.1,0.1-0.8,0-1.8c-0.2-0.9-0.2-1.8-0.1-2.7c0,0.2,0,0.6-0.1,0.5l-0.1-1.1c-0.1-0.5-0.1-1.1-0.1-1.1c0,0.3,0,0.5,0,0.8
			c0,0.1-0.1-0.1-0.2-0.3c-0.2-0.6-0.3-1.2-0.4-1.8c-0.1-0.8-0.3-2.3-0.1-2.1c0,0.2,0,0.4,0.1,0.6l0.1,0.6c0-0.4-0.1-0.8-0.1-1.2
			s-0.1-0.8-0.2-1.3c-0.2-0.8-0.2-1.7-0.1-2.5c0.1-0.1,0.2,0.5,0.2,0.6c-0.2-0.9-0.3-1.8-0.3-2.7l-0.1-0.8v-0.8c0-0.6,0-1.2-0.1-1.8
			l0.4,1.6c-0.2-1.6-0.2-3.2,0-4.7c0.2-1.9,0.5-3.7,0.9-5.6c-0.1,0.4-0.3,1-0.3,0.6c0-0.5,0.1-0.9,0.2-1.4c0.1-0.3,0.2-0.6,0.3-0.9
			c0.2-0.5,0.4-0.6,0.4-0.1c0-0.7,0.1-1.3,0.3-2c0.2-0.8,0.5-1.7,0.7-2.6c0.1-0.5,0.3-0.9,0.4-1.4c0.1-0.5,0.3-0.9,0.4-1.3
			c0.1-0.4,0.2-0.9,0.3-1.3c0.1-0.4,0.2-0.7,0.2-1.1l0.3-1.9c0.1-0.6,0.2-1.2,0.3-2l0.4-2.3c0.2-0.8,0.4-1.5,0.5-2.2s0.3-1.4,0.5-2
			l0.6-2c-0.2,0.4-0.3,0.9-0.6,1.4c-0.3,0.3-0.5,0.5-0.8,0.8c-0.1,0-0.1-0.1,0-0.3c0.1-0.2,0.1-0.5,0.3-1c-0.1,0.3-0.2,0.7-0.3,1
			c-0.1,0.3-0.1,0.4-0.1,0.7c-0.2,0.8-0.5,1.6-0.8,2.3c0.1-0.6,0.1-1,0-0.9c-0.2,0.1-0.2,0.2-0.4,0.5C31.3,72,31,72.5,30.8,73
			c-0.3,0.8-0.5,1.6-0.8,2.4c-0.1,0.2-0.1,0.4-0.2,0.6l-0.1,0.6c-0.1,0.4-0.2,0.8-0.3,1.2c-0.2,0.8-0.3,1.5-0.4,2.2
			s-0.2,1.5-0.3,2.2c-0.1,0.4-0.1,0.7-0.1,1.1c0,0.4-0.1,0.7-0.1,1.1c-0.1,0.7-0.1,1.4-0.2,2.2c-0.1,0.7-0.1,1.5-0.2,2.2
			c-0.1,0.8-0.1,1.5-0.2,2.3c-0.4,1-0.6,2-0.7,3c-0.1,0.4-0.1,0.8-0.2,1.2s-0.1,0.8-0.1,1.3c0,0.4-0.1,0.8-0.1,1.2
			c0,0.2,0,0.4-0.1,0.5c0,0.2,0,0.3,0,0.5c-0.2-0.7-0.2-1.3-0.2-2v-1.3c0-0.5,0-0.9,0.1-1.4c0,0.2,0,0.3-0.1,0.5L26.5,95
			c0,0.4-0.1,0.8-0.1,1.2c-0.1,0.4-0.1,0.9-0.1,1.3c0,0.2,0,0.4-0.1,0.6c0,0.2,0,0.4,0,0.6L26.8,99.4z"/>
		<path id="Trazado_15" class="st1" d="M28.2,83.3c-0.1,0.2-0.1,0.3-0.2,0.5C28.1,83.7,28.2,83.5,28.2,83.3z"/>
		<path id="Trazado_16" class="st1" d="M26.7,93.4L26.7,93.4c0,0.2,0,0.4-0.1,0.6C26.6,93.8,26.7,93.6,26.7,93.4z"/>
		<path id="Trazado_17" class="st1" d="M33.6,65.8c0.1-0.2,0.1-0.4,0.2-0.6c0.1-0.2,0.1-0.4,0.2-0.6c-0.1,0.2-0.2,0.5-0.4,0.8
			S33.5,66,33.6,65.8z"/>
		<path id="Trazado_18" class="st1" d="M34.8,64.9v0.3l0.3-0.4C35,64.7,34.9,64.7,34.8,64.9z"/>
		<path id="Trazado_19" class="st1" d="M27.1,126.1l0.3,0.6C27.3,126.5,27.2,126.3,27.1,126.1z"/>
		<path id="Trazado_20" class="st1" d="M26.2,107.1c-0.1-1.2-0.2-1.3-0.3-1.5c-0.1-0.2-0.2-0.5-0.2-2.2v1c-0.1-0.6-0.1-1.3-0.1-2.1
			c0-0.8,0-1.7,0.1-2.5l0.1-1.3c0-0.4,0.1-0.9,0.1-1.3c0.1-0.9,0.2-1.7,0.2-2.4c0.1,0.2,0.2-0.3,0.3-0.7s0.3-0.9,0.4-0.7
			c0.1-1,0.2-2,0.3-2.8c0.1-0.7,0.1-1.4,0.1-2.2c0.3-1.2,0.5-3.1,1-4.6c-0.3,0.6,0-2.3-0.8,1.5c0.1-0.3,0-0.1,0-0.4
			c-0.9,2.3-0.6,3.4-1,5.5c-0.4,1.2,0.1-2.1-0.2-0.9c0,0.4-0.1,0.7-0.2,1.1c-0.1,0.4-0.1,0.9-0.2,1.3c-0.1,0.9-0.3,1.8-0.4,2.7
			c-0.1,1.7-0.2,3.1,0.1,3c0,0.5-0.1,0.9-0.1,1.2c0,0.3-0.1,0.5-0.1,0.7c-0.1,0.3-0.1,0.6-0.2,0.9c0.1,0.4,0.1,0.9,0.1,1.3
			c0,0.5,0.1,1.1,0.1,1.7s0,1.2,0,1.8v1.9c0,2.5,0.3,4.5,0.7,4.4c-0.1-0.5-0.2-1.3-0.3-2.1s-0.2-1.6-0.3-2.5L26.2,107.1z"/>
		<path id="Trazado_21" class="st1" d="M31.8,69.6c-0.1,0.1-0.1,0.3-0.2,0.4L31.8,69.6z"/>
		<path id="Trazado_22" class="st1" d="M51.8,46.6l-0.3,1.1l-1.4,1.4c-0.4,0.4-0.8,0.9-1.2,1.2l-1,1.1l-0.5,0.5L47,52.5l-1.8,2.1
			c-0.6,0.7-1.3,1.6-2.1,2.6c-0.3,0.2,0-0.3,0.2-0.5c-0.3,0.3-0.5,0.7-0.8,1.1l-0.9,1.2c-0.6,0.8-1.2,1.7-1.7,2.5
			c-0.5,0.9-1.1,1.7-1.5,2.5s-0.8,1.5-1,2.1c-0.1,0.2-0.3,0.6-0.6,0.9c-0.2,0.3-0.4,0.7-0.6,1c-0.4,0.6-0.7,1-0.5,0.4
			c-0.2,0.5-0.5,1.1-0.7,1.6c-0.3,0.1,0.6-1.3,0.4-1.4c-0.2,0.4-0.4,0.6-0.4,0.7c0.2-0.8-1,0.4,0.8-3c0.6-0.5,0.2,0.1-0.1,0.7
			c-0.3,0.7-0.7,1.4-0.2,1.2c0.6-1.1,0.3-1.1,0.3-1.2c0-0.1,0.2-0.3,0.3-0.5c0.1-0.1,0.1-0.2,0.2-0.3c0.1-0.1,0.2-0.3,0.3-0.4
			c0.1-0.1,0.2-0.1,0.2,0c0.2-0.5,0.5-1,0.8-1.5c0.2-0.3,0.3-0.6,0.5-0.9c0.1-0.2,0.3-0.5,0.3-0.8c1.7-2.7,0.3,0.4,1.4-1.4l0.1-0.7
			c0-0.2,0-0.3,0.1-0.4c0-0.1,0-0.1,0-0.2l2.1-2.7c1.5-2,1.2-2,0.9-2.1s-0.2-0.1-0.1-0.5c0.4-0.8,0.9-1.5,1.4-2.1
			c-0.1,0.4,0.3,0.2,0.9-0.3c0.4-0.3,0.8-0.6,1.2-1c0.4-0.4,0.9-0.8,1.4-1.3c-0.3,0.3-0.6,0.7-0.9,1.1s-0.7,0.9-1.1,1.4
			c-0.7,0.9-1.5,1.9-2.2,2.7c2.1-2-2.4,3.2-1.1,2.3c1-1.6,2.1-3.1,3.5-4.5l-0.4,0.5c0.3-0.3,0.6-0.7,0.9-1.1
			c0.3-0.4,0.5-0.8,0.8-1.1c0.7-0.9,1.4-1.7,2.3-2.5c1-0.9,0.9-0.7,0.8-0.4C51.1,47.3,51.8,46.6,51.8,46.6z M49.8,48.8l-0.2,0.2
			l-0.4,0.4L48.5,50C49,49.6,49.4,49.2,49.8,48.8L49.8,48.8z"/>
		<path id="Trazado_23" class="st1" d="M170,153.6l-0.4,0.4C169.7,153.9,169.9,153.8,170,153.6z"/>
		<path id="Trazado_24" class="st1" d="M113.9,20.7l1.1,0.2C114.6,20.8,114.2,20.8,113.9,20.7z"/>
		<path id="Trazado_25" class="st1" d="M139.2,26.1l1.6,0.6C140.3,26.4,139.7,26.2,139.2,26.1z"/>
		<path id="Trazado_26" class="st1" d="M177.2,142.2L177.2,142.2l0.1-0.3L177.2,142.2z"/>
		<path id="Trazado_27" class="st1" d="M176.2,61.4c0.1,0.3,0.2,0.6,0.3,0.9C176.5,62,176.4,61.7,176.2,61.4z"/>
		<path id="Trazado_28" class="st1" d="M138.9,26L138.9,26l0.3,0.1L138.9,26z"/>
		<path id="Trazado_29" class="st1" d="M102.7,18.5l-0.7,0.1C102.2,18.6,102.4,18.5,102.7,18.5z"/>
		<path id="Trazado_30" class="st1" d="M104.3,20c-0.2,0-0.5,0-0.7,0.1L104.3,20z"/>
		<path id="Trazado_31" class="st1" d="M65.8,27.9l-1.4,0.8C64.9,28.5,65.3,28.2,65.8,27.9z"/>
		<path id="Trazado_32" class="st1" d="M100.2,19.8l-0.2,0.1C100.2,19.8,100.3,19.8,100.2,19.8z"/>
		<path id="Trazado_33" class="st1" d="M162.5,159.9L162.5,159.9l0.1-0.1L162.5,159.9z"/>
		<path id="Trazado_34" class="st1" d="M160.5,163.1l-0.9,0.9C159.9,163.7,160.2,163.4,160.5,163.1z"/>
		<path id="Trazado_35" class="st1" d="M183.9,82.3c0,0.4,0.2,1.4,0,0.9C184.2,84,184.4,83.9,183.9,82.3z"/>
		<path id="Trazado_36" class="st1" d="M164.6,152.3c-0.1,0.3-0.2,0.5-0.3,0.8C164.5,152.5,164.8,152.1,164.6,152.3z"/>
		<path id="Trazado_37" class="st1" d="M164.3,153c-0.1,0.2-0.3,0.5-0.4,0.7C164,153.5,164.2,153.2,164.3,153z"/>
		<path id="Trazado_38" class="st1" d="M176.4,74.3c0-0.2,0-0.3-0.1-0.4C176.3,74,176.3,74.1,176.4,74.3z"/>
		<path id="Trazado_39" class="st1" d="M158.7,164.7c-0.1,0.3-4.3,4.2-0.6,1.1c0.1,0.2-0.5,0.8-1.2,1.4c-0.3,0.3-0.7,0.6-1.1,0.9
			c-0.3,0.2-0.6,0.5-0.9,0.8c0.8-0.5-0.2,0.5,0.1,0.4c0.5-0.4,1-1,1.8-1.7c0.5-0.2-0.7,1-1.7,1.7c1.4-0.8-1.4,1.5,0.5,0.2
			c0.9-0.7,1.8-1.5,2.5-2.2c0.8-0.7,1.5-1.4,2.1-2.1c0.6-0.7,1.2-1.3,1.8-2c0.3-0.3,0.5-0.7,0.8-1l0.7-1l-1.4,1.5
			c-0.5,0.5-1,1-1.5,1.5c-0.5,0.5-1,0.9-1.4,1.4c-0.4,0.4-0.9,0.8-1.4,1.1l0.5-0.9c0.3-0.2,0.5-0.3,0.7-0.5l0.6-0.5
			c0.4-0.4,0.8-0.7,1.1-1.1l1.1-1.1c0.4-0.4,0.7-0.8,1.2-1.2l-0.6,0.6c-0.2,0.2-0.4,0.4-0.6,0.6l-0.8,0.7l-2.1,1.8
			c-1.1,0.7-1.3,0.8-1.1,0.5c0.2-0.2,0.4-0.4,0.6-0.6l1-1C159.3,164.2,159,164.5,158.7,164.7L158.7,164.7z"/>
		<path id="Trazado_40" class="st1" d="M159.2,159.9L159.2,159.9l-0.2,0.2L159.2,159.9z"/>
		<path id="Trazado_41" class="st1" d="M69.2,34.2l-0.3,0.3C69,34.4,69.1,34.3,69.2,34.2z"/>
		<path id="Trazado_42" class="st1" d="M162.6,158.9"/>
		<path id="Trazado_43" class="st1" d="M79.4,30L79.4,30L79.4,30z"/>
		<path id="Trazado_44" class="st1" d="M80.1,21.9C80.1,21.8,80,21.8,80.1,21.9C79.8,21.9,79.9,21.9,80.1,21.9z"/>
		<path id="Trazado_45" class="st1" d="M79.4,30"/>
		<path id="Trazado_46" class="st1" d="M132.3,30.3c-0.1-0.1-0.2-0.2-0.4-0.3C131.8,30,131.9,30.1,132.3,30.3z"/>
		<path id="Trazado_47" class="st1" d="M122.2,26.5c-0.1,0-0.1-0.1-0.2-0.1L122.2,26.5z"/>
		<path id="Trazado_48" class="st1" d="M184.7,79.3c-0.2-0.5-0.3-0.9-0.4-1.3C184.4,78.4,184.5,78.8,184.7,79.3z"/>
		<path id="Trazado_49" class="st1" d="M79.3,30.1c-0.1,0.1-0.3,0.2-0.5,0.3C79,30.3,79.2,30.2,79.3,30.1z"/>
		<path id="Trazado_50" class="st1" d="M147.8,36.3l-0.3-0.1l0.2,0.1L147.8,36.3z"/>
		<path id="Trazado_51" class="st1" d="M152.4,39.8c-0.1-0.1-0.3-0.1-0.4-0.2c0.9,0.6,2,1.5,3,2.2c0.6,0.6,1.3,1.1,2.1,1.4
			c-0.3-0.2-1-1-1.7-1.6s-1.2-1.2-0.9-1.1c-0.6-0.5-1.3-1-1.8-1.5c-0.5-0.4-1-0.8-1.5-1.2c1.8,1.5,0,0.4-1.3-0.4
			c-1.1-0.9,0.4-0.1-0.6-0.9l-2.8-1.8l2.4,1.6l-0.9-0.2l0.3,0.1c0.5,0.3,0.9,0.6,1.2,0.8c0.2,0.1,0.4,0.3,0.6,0.5
			c0.3,0.2,0.3,0.3,0.3,0.4c0,0.1,0,0.2,0.3,0.4c0.2,0.2,0.4,0.3,0.6,0.5C151.5,39.2,151.9,39.5,152.4,39.8z"/>
		<path id="Trazado_52" class="st1" d="M152,39.7c-0.2-0.1-0.4-0.3-0.7-0.4C151.5,39.5,151.7,39.6,152,39.7z"/>
		<path id="Trazado_53" class="st1" d="M165.8,53.9c0.2,0.2,0.3,0.4,0.6,0.6L165.8,53.9z"/>
		<path id="Trazado_54" class="st1" d="M39.6,55.5c0.1,0,2.1-2.1,1.8-2.2c-0.5,0.6-1.1,1.3-1.6,1.9c0,0-0.1,0.1-0.1,0.1L39.6,55.5z"
			/>
		<path id="Trazado_55" class="st1" d="M184.7,104v-1.1C184.7,103.2,184.7,103.6,184.7,104z"/>
		<path id="Trazado_56" class="st1" d="M155.3,41.1c-0.2-0.2-0.5-0.3-0.8-0.4C154.7,40.8,155,41,155.3,41.1z"/>
		<path id="Trazado_57" class="st1" d="M184,104.1c0,0.4-0.1,0.7-0.3,1.1c0,0.8,0.1,1.4,0.1,2.3c0-0.5,0-1,0.1-1.5
			c0-0.3,0.1-0.6,0.1-0.9C184,104.8,184,104.4,184,104.1z"/>
		<path id="Trazado_58" class="st1" d="M183.8,107.5L183.8,107.5C183.8,107.5,183.8,107.5,183.8,107.5z"/>
		<path id="Trazado_59" class="st1" d="M38.5,56.8l-0.4,0.6l0.2-0.4c-0.4,0.5-0.8,1-1.2,1.6c-0.1,0.2-0.2,0.4-0.4,0.7
			c0.1-0.1,0.1-0.2,0.1-0.3c-0.1,0.2-0.2,0.3-0.4,0.5C36.2,60,36,60.5,35.7,61l-0.4,0.8l-0.4,0.9c-0.5,1.2-1.1,2.3-1.3,2.8
			c-0.3,0.7-0.6,1.4-0.9,2.1l-0.5,1c-0.1,0.3-0.3,0.6-0.4,0.9l0.6-1.4c0.2-0.4,0.2-0.6,0.1-0.5c-0.6,0.9-1,1.6-1.5,2.4
			c-0.3,0.5-0.5,1-0.8,1.5c-0.3,0.7-0.5,1.5-0.7,2.2c0,0,0.2-0.5,0.4-1l0.3-0.7c0-0.1,0.1-0.2,0.1-0.3c0,0.1,0,0.1-0.1,0.2
			c-0.1,0.2-0.1,0.4-0.1,0.5c-0.1,0.4-0.3,1-0.4,1.6c-0.1,0.6-0.3,1.2-0.4,1.6l-0.2,0.8c-0.4,0.8-0.3,0.2,0-0.7
			c0.3-0.8,0.5-1.6,0.7-2.4c-0.3,0.9-0.6,1.7-0.9,2.5c-0.3,0.8-0.6,1.5-0.9,2.2c-0.1,0.3-0.3,0.7-0.4,1c-0.1,0.3-0.2,0.6-0.3,0.9
			c-0.2,0.5-0.2,1-0.3,1.5c-0.3,0.1-0.5,0.3-0.7,0.6c-0.5,0.7-0.8,1.4-0.9,2.2c0.8-1.7-0.1,1.5,0.6,0.2c-0.1,0.6-0.2,1.2-0.4,1.7
			c-0.2,0.6-0.3,1.1-0.2,1.2l-0.1-0.3c-0.3,0.9-0.5,1.7-0.7,2.6c-0.1,0.3-0.1,0.7-0.2,1c0,0.3,0,0.6,0,0.9c0,1.1,0.1,1.9,0.2,2.8
			c-0.1,1.3-0.2,2.3-0.3,3.3c-0.1,1-0.1,1.8-0.2,2.7l-0.1,1.3v4.1c-0.5,0.9-0.8,1.9-0.6,3c0.1,0.3,0.2,0.7,0.3,1
			c0.1,0.5,0.2,1,0.3,1.5c0.1,0.7,0.3,1.5,0.7,2.1c-0.2-2.9-0.6-2.4-0.8-4.1c0.3-1.5,0.4-0.2,0.5-2.2c0,0.4,0,1.1,0.1,1.8
			c0.1,0.8,0.2,1.7,0.3,2.6c0,0.5,0.1,0.9,0.1,1.4c0,0.4,0.1,0.9,0.2,1.3c0.1,0.6,0.2,1.3,0.2,2l-0.1-0.6c0,0.6,0,1.2,0,1.8
			c0,0.5,0,1,0,1.6c0,0.6,0.1,1.3,0.2,1.9c0.2,0.9,0.5,1.9,0.9,2.7c0,0,0.2,0.5,0.4,1.1c0.1,0.3,0.2,0.5,0.3,0.7l0.1,0.3
			C27,126,27,126,26.9,126c0.3,1,0.6,2.1,0.8,3.2c0.3,1.1,0.7,2.2,1.3,3.3c-0.1-0.3-0.1-0.1-0.2-0.4c0.3,1.1,0.8,2.2,1.3,3.2
			c0.3,0.5,0.5,1,0.8,1.4s0.5,0.9,0.7,1.2c0.2,1.1-0.4-0.1-0.9-0.6c1.5,3.4,3.6,6.5,6,9.3l0.2,0.4c0.1,0.1,0.1,0.2,0.2,0.4l0.2,0.4
			l0.7,1.1c-0.2-0.3-0.5-0.6-0.8-0.9l-0.4-0.4l-0.3-0.4c-0.4-0.5-0.7-0.7-0.7-0.4c0.8,1.2,0.8,0.9,1.9,2.6c-0.6-0.4-1.2-0.9-1.8-1.5
			c2.2,3.7,1.1,0.4,2.3,3.2c0.8,1.1,1.5,1.5,1.8,1.5l0.6,1.1c0.3,0.5,0.6,1,0.6,1c0.6,0.3,1.1,0.8,1.5,1.3c0.4,0.4,0.7,0.8,1.1,1.2
			l1.1,1.1c0.1,0-0.1-0.3-0.4-0.7c-0.3-0.4-0.7-0.8-1-1.1c1,0.7,1.9,1.5,2.7,2.4c-0.1,0.4,1.5,1.9,2.9,3.2c1.4,1.3,2.7,2.4,1.8,2.2
			l0.9,0.7c0.3,0.3,0.6,0.5,1,0.7l2,1.5c0.7,0.5,1.4,1,2.1,1.5c0.7,0.5,1.4,1,2.1,1.4l2.1,1.3c0.3,0.2,0.7,0.4,1,0.6l1,0.5l1.8,0.9
			l1.5,0.7c0.5,0.4,1.4,0.9,1.9,1.2c0.5,0.3,0.8,0.5,0,0.3c1.1,0.5,2.1,0.9,3,1.3c0.9,0.4,1.8,0.6,2.7,0.9l1.3,0.4l1.4,0.4l1.5,0.5
			l0.8,0.3l0.8,0.3c0.2,0.1-0.3-0.1-0.9-0.2c-0.6-0.1-1.1-0.3-1.1-0.2c0.4,0.1,0.8,0.2,1.1,0.3c0.4,0.1,0.7,0.2,1.1,0.3
			c0.7,0.2,1.4,0.5,2.2,0.7c0.8,0.3,1.6,0.5,2.6,0.8c0.5,0.1,1,0.3,1.5,0.4s1.1,0.2,1.7,0.3c-0.4-0.1-0.8-0.1-1.2,0
			c1.1,0,2.2,0.1,3.3,0.3c0.3,0.1,0.1,0.1-0.2,0c-0.3-0.1-0.6-0.1-0.4,0c4.3,0.8,8.6,1.2,13,1l3.1-0.1l3.1-0.3l0.8-0.1l0.8-0.1
			l1.6-0.2c0.5-0.1,1.1-0.1,1.7-0.2l1.7-0.3c-0.6,0.1-1.1,0.2-1.7,0.3c-0.5,0.1-0.8,0.2-1.1,0.3c-0.6,0.2-0.8,0.4-0.8,0.4l1.3-0.1
			c0.3,0,0.6-0.1,0.9-0.1l0.4-0.1c0.9-0.4,2.9-0.6,4.5-1.1c0.2,0,1,0,0.2,0.2c0.6-0.1,1.3-0.2,1.8-0.3c0.6-0.1,1.1-0.3,1.6-0.4
			c0.5-0.2,1-0.3,1.5-0.5c0.5-0.2,1-0.4,1.5-0.6c1-0.4,2-0.9,3.2-1.3c1.2-0.4,2.4-1,3.9-1.5l-3.5,1.8c-0.9,0.4-1.8,0.8-2.4,1.1
			l-1.1,0.5l1.9-0.3l-1.6,0.7c-0.4,0.2-0.7,0.3-1.1,0.5l-0.5,0.2c0.9-0.1,1.8-0.4,2.6-0.8c0.7-0.3,1.1-0.5,1.3-0.4
			c-0.4,0.2-1.4,0.5-1.4,0.7c0.7-0.1,1.3-0.3,1.9-0.6c0.4-0.2,0.8-0.4,1.5-0.7c-1,0.6-2.1,1.1-3.2,1.5l-0.9,0.4
			c-0.3,0.1-0.7,0.3-1,0.4l-2.1,0.6c-1.4,0.4-2.8,0.8-4.2,1.1c-1.3,0.3-2.6,0.5-3.6,0.7c-0.6,0.1,0.5-0.2,0.6-0.3
			c-0.8,0.1-1.5,0.2-2.2,0.3s-1.5,0.1-2.6,0.3c-1.3,0.4,1,0.1,2.1,0c-0.1,0.3-0.6,0.3-1.8,0.4c-0.3-0.2-6.4,0.4-7.9-0.1
			c-0.6,0-1.2,0-1.8,0.1c-0.3,0-0.5,0-0.8,0.1c-0.3,0.1-0.2,0.2,0,0.3c0.3,0.2,0.5,0.3-2.5,0.1l-0.9-0.2l-0.9-0.3
			c-4.1,0-8.1-0.5-12.1-1.4l0.8,0.2c0.6,0-0.3-0.3-0.7-0.5c-0.7-0.2-1.4-0.4-2.1-0.5l-0.5-0.1l-0.5-0.1l-1-0.2
			c-1.1-0.2-2.2-0.6-3.2-1.1c-0.8-0.2-1.8-0.4-2.9-0.7c-1.1-0.3-2.2-0.7-3.3-1.1c-2.2-0.8-4.5-1.7-6.3-2.6c-0.4-0.5,0.8,0,2.3,0.7
			l2.3,0.9c0.6,0.3,1.2,0.5,1.8,0.6l-0.5-0.2l-1.1-0.5l-1.6-0.8c1.3,0.7,2.8,1.1,4.2,1.4c-1.5-0.6-2.4-1-3.4-1.3l-1.5-0.5
			c-0.5-0.2-1.1-0.5-1.8-0.8c0.3,0,0-0.3-1.3-0.9l-0.5,0.1c-0.2-0.1-0.3-0.3-0.5-0.4l-2.4-1.3c-0.3-0.2-0.6-0.3-0.9-0.5l-0.7-0.4
			l-0.7-0.4c0.3,0.3,0.6,0.6,0.9,0.9c0.3,0.3,0.7,0.6,1.1,0.9c-0.3-0.4,0.7,0.1,1.9,0.8c-1.2-0.4,1.1,0.8,1,1l-3.8-2.1
			c-1.2-0.8-2.3-1.4-3.1-1.9l-0.2-0.3l-0.2-0.3c-0.5-0.4-1.1-0.8-1.6-1.2l-0.8-0.6l-0.4-0.3l-0.4-0.3c-1-0.8-1.9-1.5-2.6-2.1
			l0.5,0.2c-0.6-0.5-1.2-1-1.8-1.5l-1.8-1.5c-0.6-0.5-1.1-1.1-1.6-1.6c-0.5-0.5-1-1-1.4-1.6c-0.5-0.5-1.1-0.9-1.7-1.5
			c-0.6-0.5-1.2-1-1.7-1.6l-1.6-1.5l-0.8-0.7l-0.7-0.7c-0.5-0.4-0.9-0.9-1.2-1.4c-0.3-0.4-0.6-0.8-0.9-1.2c-0.3-0.4-0.6-0.9-0.9-1.4
			l-1-1.5c-0.2-0.2-0.3-0.5-0.5-0.8l-0.5-0.8c-0.5-0.9-1.1-1.7-1.7-2.5c-0.1-0.2,1.4,1.7,2.1,2.6c-0.5-0.8-1-1.6-1.6-2.3
			c-0.4-0.4-0.6-1-0.7-1.5c0.3,0.5,0.5,0.9,0.6,1.2c0.1,0.2,0.2,0.4,0.4,0.5c0.1,0.2,0.1,0.1,0.1-0.1c-0.1-0.4-0.4-1.1,0.2-0.2
			c-0.3-0.5-0.6-1-0.9-1.4l-0.8-1.4l-0.7-1.2l-0.5-0.9c0.2,0.4,0.3,0.7,0.4,0.9c0.1,0.1,0.1,0.2,0.1,0.4c0,0.1-0.1,0-0.2-0.1
			c-0.1-0.1-0.5-0.5,0.5,1.1c-0.9-1.3-1.8-2.7-2.5-4.2c-0.4-0.8-0.8-1.6-1.1-2.4c-0.4-0.8-0.7-1.6-1-2.4c0.2,0,0.1-0.5-0.3-1.7
			l-0.6-0.9c-0.5-1.5,1.3,2.7,0.3-0.2c-0.2-0.4-0.4-0.8-0.6-1.3c-0.2-0.5-0.3-1-0.5-1.5s-0.3-1.1-0.5-1.6l-0.2-0.8
			c-0.1-0.3-0.1-0.6-0.2-0.8c-0.3-1.1-0.5-2.1-0.8-3c-0.1-0.6-0.4-1.3-0.8-1.8c-0.1-1.3,0.2-0.1,0.5,0.9c0.1,0.2,0.1,0.5,0.2,0.7
			c0,0.1,0.1,0.3,0.2,0.4c0.1,0.1,0.1-0.2,0-1.1c0.2,0.5,0.3,1.1,0.5,1.7c0.2,0.6,0.3,1.2,0.5,1.7c0.1,0.5,0.3,1,0.4,1.4
			c0.1,0.3,0.3,0.6,0.4,0.8c-0.1-0.3-0.2-0.7-0.3-1c0-0.1,0-0.2,0-0.3c0.1-0.1,0.2-0.2,0-0.8l-0.8-2.2l0.1,0.5
			c-0.2-0.5-0.4-1-0.5-1.5c-0.1-0.5-0.3-1.1-0.4-1.7s-0.3-1.2-0.4-1.8c-0.1-0.6-0.2-1.3-0.3-2c-0.1-0.7-0.2-1.4-0.3-2.1l-0.2-2.1
			c-0.1-0.7-0.1-1.4-0.2-2c-0.1-0.7-0.1-1.3-0.1-2c-0.4-2.2-0.5-4-0.8-6c-0.2-2.2-0.1-4.4,0.1-6.7c0,0.8,0.2-0.3,0.4-1.2
			c0-0.3,0.1-0.6,0.3-0.9c0,0,0.1,0,0.1,0.2s0,0.4,0,0.9c0.1-0.6,0.2-1.2,0.3-1.7c0.1-0.6,0.1-1.1,0.2-1.5c0-0.4,0.1-0.7,0-1.1
			c0-0.3,0-0.4-0.1-0.5c-0.4,2.1-0.2,0.7-0.5,2.5c0-0.9,0.1-1.7,0.2-2.6c0.2-0.8,0.4-1.7,0.6-2.5c-0.1,0.5,0,0.3,0,0.5
			c0.2-0.6,0.3-1.2,0.3-1.8c-0.1-0.4,0-0.9,0.1-1.3c0.4-0.8,0.6-1.5,0.8-2.4c0.3-1.1,0.7-2.4,1-3.1v-0.4c0-0.3,0.1-0.6,0.1-0.8
			c0.1-0.6,0.2-1.2,0.2-1.2c-0.2,1.4,0.8-2.2,1.2-2.5c0.4-1.9,1-3.8,1.9-5.6c-0.3,1.1,1.2-2.2,1.6-2c0.5-0.9,1-1.9,1.5-2.8
			c0.4-0.9,0.8-1.7,1.2-2.6c0.2-0.4,0.4-0.9,0.6-1.3c0.2-0.4,0.5-0.8,0.7-1.2c0.2-0.4,0.5-0.8,0.8-1.3c0.1-0.2,0.3-0.4,0.4-0.6
			s0.3-0.4,0.5-0.6c0,0.1-0.4,1,0.4,0c0.3-0.4,0.6-1,1-1.6l0.6-0.8c0.2-0.3,0.4-0.5,0.5-0.7l0,0c0.3-0.4,0.5-0.7,0.4-0.8
			c0.5-0.8,0.8-1.4,1.3-2.2c0.7-1.1,1.5-2.2,2.3-3.2c-0.2,0-0.8,0.6-1.4,1.3c-0.6,0.7-1.2,1.4-1.7,2.2l-0.5,1.1
			c-0.6,0.4-1.1,0.9-1.4,1.5c-0.3,0.6-0.7,1.1-1.1,1.6c0.1-0.3,0.3-0.6,0.4-0.9c0.2-0.4,0.4-0.8,0.6-1.1c0.5-0.8,1.2-1.7,1.9-2.6
			c1.4-1.8,3.1-3.8,4.3-5.2c-0.6,0.4-1.2,0.9-1.7,1.4c-0.6,0.6-1.3,1.3-2,2.1c-0.4,0.4-0.7,0.8-1.1,1.2s-0.7,0.9-1.1,1.3
			s-0.7,0.9-1.1,1.3c-0.4,0.4-0.7,0.9-1,1.4l0.6-0.7l0.5-0.5l0.2-0.2l-0.2,0.3c-0.1,0.2-0.3,0.4-0.5,0.6l-0.7,0.9l0.8-0.8
			c0.4-0.4,0.8-0.8,0.8-0.8c-0.3,0.4-0.6,0.8-0.9,1.3l-0.9,1.2l-0.8,1.2l-0.8,1.3c0.3-0.4,0.5-0.8,0.8-1.2c0.2-0.2,0.4-0.4,0.6-0.6
			c0.3-0.2,0.3-0.1-0.1,0.4c-0.3,0.4-0.6,0.8-0.9,1.2c-0.2,0.3-0.3,0.6-0.5,0.9c-0.3,0.6-0.6,1.3-1,1.8c0.6-0.9,1.4-2.1,1-1.2
			c-0.5,0.6-1,1.3-1.4,2c-0.4,0.6-0.7,1.1-1,1.6c-0.2,0.2-0.3,0.5-0.5,0.8s-0.3,0.5-0.5,0.8c-0.3,0.6-0.7,1.2-1.2,1.9
			c0.2,0,0.1,0.2,0,0.6c-0.1,0.2-0.2,0.4-0.3,0.6c-0.1,0.2-0.2,0.5-0.4,0.8c-0.5,0.8-0.8,1.7-1,2.6l0.7-1.5L26.6,70
			c-0.2,0.4-0.3,0.8-0.4,1.1l-0.2,0.5c-1.6,2.7,0.6-2.7-1.4,1.6c-1.7,4.2-1.1,4.3-2.1,7.6c0.1-0.9,0.2-1.8,0.4-2.7
			c0.3-1.3,0.7-2.6,1.1-3.9l-0.7,1.6c0.1-0.4,0.2-0.8,0.3-1.1c0.1-0.2,0.2-0.5,0.3-0.8c0.1-0.3,0.2-0.6,0.3-0.9
			c0.3-0.6,0.5-1.3,0.8-1.9c0.2-0.6,0.5-1.2,0.7-1.6c-0.1,0.3-0.2,0.7-0.3,1.1c0.1-0.2,0.3-0.5,0.4-0.7c0.4-1,0.9-2,1.5-2.9
			c-0.2-0.4-1,1.5-0.2-0.8c-0.5,1-0.8,1.7-1.1,2.3c-0.3,0.7-0.7,1.4-1.3,2.7c0.3-0.7,0.6-1.4,0.8-1.9c0.2-0.5,0.4-1,0.6-1.5
			c0.3-0.9,0.5-1.6,0.7-2.2c0.2-0.6,0.4-1.3,0.7-2c0.2-0.4,0.3-0.8,0.6-1.3c0.2-0.5,0.6-1,0.9-1.6c-1.2,2.3,0.8-0.6,1.1-0.8l0.5-0.9
			l0.7-1.1c0.4-0.8,0.9-1.5,1.1-2l-0.9,0.5c0.7-1.1,1.5-2.2,2.4-3.1c0.4-0.4,0.8-0.9,1.2-1.4c0.5-0.6,1-1.3,1.4-2
			c0.1-0.5-2.1,2.5-1.7,2c1.1-1.7,2.4-3.2,3.9-4.6c0.6-0.6,1.2-1.1,1.9-1.7s1.4-1.2,2.3-1.9c0-0.2,0-0.3,0.1-0.5
			c0.2-0.5,0.4-0.9,0.7-1.2c-0.2,0.5,0.8-0.2-0.4,1.2c0.6-0.5,1.2-1.1,1.7-1.7c0.5-0.6,1.1-1.2,1.5-1.7c-1.2,1-1,0.7-0.5,0.1
			s1.4-1.5,1.6-1.7c1.3-1-0.2,0.5-0.9,1.2c1.1-0.8,2.5-1.5,2.8-2.3c0.1,0.1-0.5,0.8-1.3,1.7c-0.4,0.5-0.9,1-1.4,1.4s-0.9,1-1.4,1.4
			l1.2-1.1c-0.6,0.8-1.3,1.4-2.1,2.1c1.3-0.9,1.3-0.6,1.2-0.3c-0.2,0.1,0-0.1-0.1,0c-0.4,0.3-0.8,0.7-1.2,1.1
			c-0.2,0.3-0.3,0.4-0.2,0.4c-0.3,0.6,0.1,0.3,0.6-0.2c0.5-0.5,1.1-1,1.6-1.4c0.5-0.5,0.9-0.9,1.4-1.4l2.2-2.6
			c0.5-0.7,1.1-1.3,1.6-1.7l0.7-0.8c0.3-0.2,0.5-0.4,0.8-0.6c0.2-0.2,0.5-0.4,0.7-0.5c0.5-0.3,0.9-0.6,1.3-0.8
			c0.8-0.5,1.6-0.9,2.6-1.4l0.3-0.6c0.5-0.3,1.1-0.6,1.6-0.9c0.4-0.2,0.8-0.4,1.2-0.6c0.7-0.3,0.9-0.3,0.3,0.3
			c-0.3,0.1-0.6,0.2-0.9,0.4c-0.1,0.1-0.2,0.2-0.3,0.3l-0.1,0.1l0.8-0.5l0.7-0.4l1.2-0.7l1.1-0.7c-3.8,2.6,0.1,0.6-0.3,1.5l0.6-0.4
			l0.6-0.4l0.7-0.4l2-1.1c-2.6,1.1-0.2-0.2,0.7-0.7c0.7-0.1,1.4-0.4,2-0.8l1.5-0.7l0.7-0.3l0.6-0.2l-0.1,0.1
			c0.7-0.2,1.7-0.5,2.7-0.9c1-0.4,2.1-0.7,2.9-1.1c1-0.7,2-1.3,3-1.8c-1.6,0.3-1.9,0.4-1.8,0.3s0.4-0.3,0.2-0.3
			c0.3-0.1,0.6-0.2,1-0.3c0.4-0.2-0.6,0-0.8,0l-2.4,0.9l-1.2,0.4L76.2,23l-0.5,0.2c-1.1,0.4-2.1,0.9-3,1.6c1.1-0.2,1.6-0.8,2.7-1.1
			c-0.9,0.5-1.7,0.9-2.7,1.2c-0.5,0.2-1.1,0.4-1.6,0.7l-1.8,0.8l-1,0.1l-0.4,0.2c-0.2,0.1-0.5,0.3-0.9,0.5l-1.3,0.7
			c0.3-0.2,0.6-0.4,0.8-0.7c0.2-0.2,0.4-0.3,0.6-0.5c0.5-0.3,1-0.5,1.5-0.8c-0.2,0-0.4,0.1-0.6,0.2c-0.3,0.1-0.7,0.3-1.1,0.5
			c-0.8,0.4-1.8,1-2.6,1.3c0,0-0.2,0.2-0.3,0.4l-0.3,0.4c0.2-0.3-3.2,1.5-0.9-0.1l0.6-0.4L64,28l0.7-0.4l2-1.1l-1.3,0.3l1.7-0.9
			c0.4-0.2,0.9-0.4,1.2-0.6l0.5-0.2l-0.8,0.5c5.6-2.7,1.9-0.2,7.6-2.7c0.9-0.5,1.9-1,3-1.3c1.5-0.5,3-0.9,4.5-1.2
			c-2.7,0.8-0.2,0.4-1.1,0.9c1.7-0.3,3.4-0.8,5-1.5c0.8,0.1,1.3,0.2-1.2,0.6c-0.2,0.5,3.2-0.8,3.5-0.3c2.1-0.3,3.5-0.7,4.6-0.9
			s2-0.5,2.9-0.8c1.1-0.3,2.1-0.4,3.2-0.5c0.8-0.1,1.6-0.1,2.4-0.1h1.5c0.6,0,1.1,0,1.7,0.1l-0.4,0.2c1.6,0,2.9,0,4.2,0.1
			c1.3,0.1,2.5,0.2,3.7,0.3c1.2,0.1,2.4,0.3,3.6,0.5c0.6,0.1,1.2,0.2,1.9,0.3l2,0.3l0.7,0.2l1.5,0.5l2.1,0.8c-1-0.2-3.7-0.4-2.5,0.1
			c-1-0.5-2.1-0.8-3.2-1.1l-1.7-0.4c-0.6-0.1-1.1-0.2-1.7-0.4c-0.3,0.1,0.7,0.3,1.1,0.5c-1.4-0.2-2.1-0.5-4-0.7
			c0.1,0.1,2.1,0.5,0.5,0.4c-0.1,0-0.3-0.1-0.4-0.1l-0.9-0.2l-1.3-0.3c-0.6,0-1.2,0-1.8,0c-0.3,0-0.6,0.1-0.9,0.2
			c-1,0.2-2,0.2-3.1,0.1c1.3-0.4,2.6-0.6,3.9-0.6c-0.9-0.1-0.3-0.1,0.3-0.1s1.3,0,0.5-0.2c-0.7,0-1.2,0.1-1.8,0.1c-0.6,0-1,0-1.5,0
			c-0.5,0-1.2-0.1-1.8-0.1c-0.7,0-1.4,0-2.3,0.1c0.5-0.1,0.9-0.2,1.4-0.2l-2.5-0.1h-2.6c0.6,0.1-0.4,0.2-1.6,0.3S95,19,95.2,19.2
			L97,19l1.3-0.1l1.7-0.1c1.8-0.1,3.5-0.1,5.3,0c-0.9,0.1-1.8,0.2-2.7,0.3c-0.5,0.1-0.9,0.2-1.3,0.2c-0.3,0.1-0.7,0.2-1,0.3
			c-0.1,0-0.2,0-0.3,0c-0.9,0.4,0,0.4,0,1.1c1.2-0.2,2.5-0.3,3.8-0.3h4.1c0.3-0.2-0.2-0.3-0.9-0.4c-0.9-0.1-1.7-0.1-2.6-0.1h1.4
			l1.5,0l-0.6,0.1l1.1,0.1c0.8,0,1.7,0.1,2.5,0.2l2.5,0.3c0.3,0,0.6,0.1,0.8,0.1h0.3c-0.5-0.1-1-0.1-1.5,0c-0.4,0-0.7,0.1-1.1,0.1
			c1,0.1,1.9,0.3,2.8,0.5c-0.2-0.3,0-0.6,0.9-0.4c3,0.4,6,1.2,8.7,2.5l0.5,0.1c-0.3-0.2,0.5-0.2,1.6,0c1.1,0.2,2.2,0.4,3.2,0.5
			c-0.2,0.3,2.2,1,3.5,1.6c0.4-0.1,0.4-0.3,0.2-0.6c-0.4-0.5-1-0.9-1.6-1.2c-0.7-0.2-1.5-0.4-2.3-0.4c-0.4,0.1-0.7,0.2-1.1,0.2
			l-2.5-0.6c-0.6-0.1-1.3-0.2-1.7-0.3l-0.8-0.1h1.2c-0.6-0.2-1.2-0.3-1.8-0.5l-0.8-0.2c-0.3-0.1-0.5-0.1-0.7-0.1
			c-0.9-0.1-1.5-0.2-1.3-0.4c0.8,0,1.7,0.1,2.5,0.3c0.8,0.2,1.6,0.3,2.5,0.4l-1.6-0.5c0.8,0,1.6,0.2,2.3,0.6
			c0.8,0.4,1.8,0.8,2.7,0.9c-1.2-0.7,0.3,0.1,1.9,0.3c-1.1-0.4-2.2-0.8-3.4-1.1c-0.6-0.2-1.2-0.3-1.5-0.5s-0.4-0.3-0.1-0.3
			c1.4,0.3,2.7,0.7,4,1.3c0.8,0.3,1.6,0.6,2.3,0.9c0.7,0.3,1.4,0.4,2.1,0.5h-0.1c1.3,0.5,2.5,1,3.8,1.4c0.9,0.3,1.6,0.5,2.3,0.6
			c0.4,0.2,0.8,0.4,1.1,0.6c0.4,0.2,0.9,0.4,1.3,0.6c0.9,0.4,1.8,0.8,2.6,1.2l-0.1,0.1l0.3,0.2c0.2,0.1,0.5,0.2,0.8,0.4l1.1,0.6
			c-0.3-0.1-0.6-0.2-0.9-0.4c-0.3-0.2-0.6-0.4-1-0.6c-0.7-0.4-1.5-0.9-2.5-1.4l0.1,0.4c-0.9-0.6-1.8-1.1-2.8-1.4
			c-0.4-0.1-0.9-0.2-1.3-0.3l-0.7-0.2l-0.7-0.1c0.7,0.2,1.5,0.5,2.2,0.8c0.8,0.3,1.6,0.7,2.3,1.1c1.5,0.7,2.7,1.3,3.2,1.2l0.2,0.2
			l0.4,0.4l0.6,0.6l0.8,0.3c0.5,0.4,0.4,0.5-0.1,0.4c-0.3-0.1-0.7-0.2-1-0.4c-0.4-0.2-0.9-0.4-1.4-0.7c-0.3-0.3-0.5-0.4-0.3-0.4
			c-0.5-0.2-1.1-0.4-1.7-0.6c-0.3-0.1-0.7-0.3-1.2-0.5c-0.4-0.2-1-0.4-1.6-0.7L140,28c-0.8-0.4-1.5-0.7-2.2-1l-1-0.4
			c-0.3-0.1-0.7-0.2-1-0.4c-0.9-0.3-1.9-0.6-2.9-0.8c4.3,1.8,8.6,3.8,12.6,6.2c0.8,0,1.5,0.1,2.2,0.3c0.6,0.1,1.2,0.2,1.8,0.1
			c0.7,0.4,1.4,0.8,2.1,1.3c0.7,0.5,1.5,1,2.2,1.5c0.4,0.3,0.7,0.5,1.1,0.8c0.3,0.3,0.7,0.5,1,0.8c0.6,0.5,1.2,1,1.7,1.5l-0.3-0.1
			l1.4,1c0.4,0.4,0.9,0.7,1.3,1c0.9,1-0.9-0.4-0.3,0.3l0.5,0.4c0.2,0.1,0.3,0.3,0.6,0.4l0.6,0.5l1.7,1.5c-0.7-0.4-1.3-0.8-1.8-1.4
			c-0.4-0.4-0.9-0.8-1.4-1.2l-1.2-1c0.3,0.2,0.8,0.6,0.7,0.4c-0.4-0.4-0.8-0.8-1.4-1.2c-0.5-0.4-1.1-0.8-1.6-1.2
			c-0.8-0.5-1.6-1.2-2.2-1.9c-0.9-0.5,1.8,0.9-0.9-1.1c-0.6-0.5-1.3-1-2-1.3c-0.3-0.1-0.6-0.2-0.9-0.2c-0.1,0.1,0.7,0.6,1.2,1.1
			c0.5,0.5,1,0.9,0.4,0.6c1.4,0.8,2.6,1.7,3.8,2.7c-1.4-1.1-3.5-2.2-4.1-2.9c-0.4-0.2-0.7-0.4-1-0.5c-0.2-0.1-0.5-0.2-0.7-0.3
			c-0.4-0.1-0.7-0.1-0.8,0c-0.1,0.1,0.1,0.6,0.8,1.1c-0.2-0.5,5.2,3.3,1.8,0.5c0.5,0.3,1.1,0.6,1.6,0.9c0.3,0.2,0.6,0.3,0.9,0.6
			l0.9,0.6l1.8,1.3c0.3,0.2,0.6,0.4,0.9,0.7l0.8,0.6h-0.1l1.3,1c0.6,0.5,1.2,1.1,1.2,1.1c-0.2-0.1-0.5-0.4-0.8-0.5
			c-0.3-0.2-0.5-0.3-0.6-0.2l0.6,0.4l1.2,0.9l1.8,1.4c-1-0.8-0.8-0.5-0.2,0.2c0.6,0.6,1.5,1.6,1.8,2.1c0.5,0.2,1.9,1.3,0.8,0
			c-1.2-1.5-0.9-0.7-2.1-2l2,1.5l0.1,0.2l0.6,0.4l0.4,0.3l0.2,0.1c2.2,2.6-1.5-0.6,1.5,2.5v-0.7c0.4,0.5,0.8,1,1.2,1.5l1.2,1.7
			c0.4,0.6,0.8,1.1,1.2,1.7l1.1,1.7c0.4,0.6,0.7,1.1,1.1,1.7l0.9,1.6l0.9,1.5l0.4,0.6l0.4,0.6c-0.3-0.4-0.7-0.6-0.9-0.5
			c-0.2,0-0.2,0.3,0,0.9c-0.1-0.2-0.2-0.4-0.3-0.6l-0.4-0.6l-0.9-1.5c-0.3-0.5-0.6-1.1-1-1.6l-1-1.4c-0.1-0.2,0.4,0.3,1.1,1.1
			c0.8,0.9,1.5,1.9,2.1,3c0-0.7-0.9-1.9-1.7-3c-0.8-1.1-1.7-2.1-1.5-2.4l-0.6-0.9c-0.2-0.3-0.4-0.5-0.5-0.7
			c-0.3-0.4-0.6-0.7-0.9-1.1c-0.5-0.6-0.9-1-1.3-1.3c-1.1-1-2.1-2.1-3-3.3c-0.3,0.2-1.1-0.9-1.5-0.9c0.7,1.4,4.5,5.1,6.3,7.9
			c-0.2-0.3-0.5-0.6-0.8-0.8c0.7,0.9,1.1,1.7,1.6,2.3s0.9,1.1,1.4,1.7l-0.1-0.2l0.3,0.4l0.2,0.3c0.1,0.2,0.3,0.4,0.3,0.5
			c0.1,0.2,0.2,0.4,0.2,0.6c0,0.5,0.1,0.9,0.4,1.3c0.1,0.1,0.2,0.4,0.4,0.6l0.3,0.4l0.2,0.4c0.3,0.5,0.6,0.9,0.6,0.7l0.6,1.4
			c0.1,0.3,0.3,0.7,0.4,1c0.1,0.1,0.1,0.2,0.1,0.3v0.1l0.3-0.3c0.4,1.1,1,2.2,1.6,3.3l0.3-0.1l-0.9-2l-0.6-1.3
			c-0.1-0.2-0.2-0.3-0.2-0.4l-0.1-0.2c0.3,0.5,0.4,0.7,0.6,0.9c0.1,0.1,0.2,0.2,0.3,0.3c0.1,0.1,0.3,0.3,0.9,1.4
			c-0.8-1.1-0.6-0.7-0.3,0.1c0.4,0.6,0.6,1.3,0.7,2.1l0.9,1.5l-0.3-0.4c0.1,0.5,0.3,1,0.6,1.4c0.3,0.5,0.5,1,0.7,1.6
			c-0.1-0.2-0.1-0.5-0.2-0.7l-0.2-0.6c-0.1-0.4-0.2-0.8-0.4-1.2s-0.3-0.8-0.5-1.3c-0.2-0.5-0.5-1-0.8-1.5c0.2,0.4,0.5,0.9,0.8,1.4
			l0.8,1.6c0.3,0.5,0.5,1.1,0.7,1.5c0.2,0.4,0.3,0.8,0.4,1c0.3,0.8,0.6,1.6,0.9,2.4l0.2,0.6l0.1,0.6c0.1,0.4,0.2,0.8,0.3,1.2
			c-0.6-1.6-0.7-1.2-1-1.3c-0.2-0.1-0.6-0.5-1.6-3.7c0.2,0.2,0.3,0.5,0.3,0.8c-0.1-0.8-0.3-1.7-0.8-2.4c-0.5-1-1.1-1.9-1.5-2.6
			c-0.1,0.4-0.7-0.9,0.1,1.5c-0.1-0.4,0.2,0,0.7,0.9c0.3,0.5,0.5,1,0.7,1.5c0.2,0.6,0.4,1.2,0.6,1.8l-0.6-0.2l0.6,1.6
			c0.1,0.4,0.3,0.8,0.4,1.2c0.1,0.3,0.2,0.5,0.2,0.5l-0.1-0.3c0.1,0.9,0.3,1.8,0.7,2.6c0.1,0.3,0.2,0.5,0.3,0.8s0.2,0.6,0.2,0.8
			c0.2,0.6,0.3,1.2,0.4,1.7c0.7,1.6,1.7,8.2,1.8,5.3c0,1.1,0.2,2.1,0.4,3.1c0.3,1.1,0.5,2.2,0.6,3.3c0,0,0-0.7,0-1.5
			c0-0.3,0-0.7,0-1c0-0.2,0-0.3,0-0.5c0.2,0.9,0.3,1.4,0.4,1.9c0.1,0.4,0.1,0.7,0.2,1c0.1,0.5,0.3,1,0.7,2.4
			c-0.1,0.3-0.2,0.9-0.4,0.4c0,0.6,0,1.2,0.1,1.8v6c0,1.3-0.1,2.6-0.1,3.7c0,0.9,0,1.8,0,2.7c0,0.4-0.1,0.8-0.1,1.1
			c-0.1,0.3-0.1,0.6-0.2,0.9c-0.1,0.6-0.3,1.1-0.4,1.6c-0.1,0.5-0.3,1.2-0.4,1.9c-0.2,0.7-0.3,1.6-0.5,2.8c-0.1,0.5,0.1,0.3,0.2,0.4
			c0.1,0.1,0.1,0.2,0,0.4c-0.1,0.5-0.2,1-0.4,1.5c-0.1,0.2,0.3-3-0.5,0.4c-0.1,0.7-0.2,1.3-0.3,2c-0.2,0.7-0.4,1.4-0.7,2.1
			c-0.1,0.4-0.2,0.7-0.4,1.1c-0.1,0.4-0.2,0.8-0.4,1.1c-0.3,0.8-0.5,1.5-0.7,2.3c-0.2,0.4-0.3,0.9-0.6,1.3l-0.6,1.3
			c-0.4,0.8-0.6,1.3-0.7,0.9c1-2.1,1.7-4.4,2.3-6.7c0.1,0.4,0.7-1.8,0.3,0.2c0.4-1,0.7-2.1,0.9-3.2c0.2-1,0.4-2,0.7-2.9
			c-0.1-0.3-0.8,1.7-0.9,2.5c-0.2,0,0.2-1.8,0.4-3.1c0.1-0.5,0.2-1,0.2-1.5c0-0.1,0-0.1-0.1,0c-0.1,0.2-0.2,0.5-0.3,0.7
			c-0.9,3.7-0.4,5.1-1.8,8.1c0.1-0.7,0.3-1.5,0.5-2.4c0.3-0.9,0.4-1.8,0.4-2.7c0,0-0.1,0.2-0.1,0.4c-0.1,0.2-0.2,0.6-0.3,0.9
			l-0.5,1.3l-0.1,1c0,0.2,0,0.5-0.1,0.7v0.2c-0.4,0.8-0.7,1.7-1,2.6c-0.1,0.3-0.2,0.6-0.2,0.9s-0.1,0.5-0.2,0.8
			c-0.1,0.5-0.2,1-0.3,1.7c-0.2,0.8-0.4,1.6-0.8,2.4c1.3-2.2,0.5,0.9,1.4-0.8c-0.6,1.4-1.1,2.5-1.5,3.3c-0.1,0.2-0.2,0.4-0.3,0.5
			s-0.2,0.3-0.3,0.4c-0.1,0.1-0.3,0.3-0.4,0.2c0.1-0.3,0.3-0.6,0.4-0.8c0.1-0.2,0.2-0.5,0.2-0.6c0.1-0.4,0.2-0.6,0.3-0.8
			c0.1-0.4,0-0.4,0-0.4c0,0-0.1-0.1-0.1-0.4c0-0.2,0.1-0.5,0.2-0.7c0.1-0.3,0.3-0.8,0.4-1.4c-0.2,0.3-0.3,0-0.4-0.1s-0.3,0.1-1,1.4
			c-1.1,3.2,0.8-0.8-0.5,2.3c-0.1,0.2-0.2,0.3-0.3,0.2c-0.5,1.5-0.9,1.6-1.5,3.3l0.1-0.4c-0.2,0.2-0.3,0.5-0.4,0.7
			c-0.1,0.2-0.2,0.4-0.3,0.5c-0.2,0.3-0.3,0.6-0.4,0.9c-0.3,0.7-0.6,1.3-1.1,1.8c0.3-0.3,0.2,0.1,0,0.6c-0.2,0.5-0.7,1.2-0.9,1.8
			c0.3-0.4,0.6-0.8,0.9-1.1c0.3-0.3,0.6-0.7,0.9-1.1c0.3-0.4,0.7-0.9,1-1.5c0.2-0.3,0.4-0.6,0.6-1c0.1-0.2,0.2-0.4,0.3-0.6
			c0.1-0.2,0.2-0.4,0.3-0.6c0-0.5-0.3-0.4,0.4-1.8l-1.2,2.3c0.2-0.5,0.4-0.9,0.5-1.4l1.3-2.2c-1.3,2.9-0.4,1.7-0.7,3.1l-0.5,0.8
			l-0.4,0.6c-0.2,0.3-0.3,0.6-0.4,0.8c-0.3,0.5-0.5,1-0.9,1.5c-0.2-0.3-3.5,4.4-5.7,6.9c0.3-0.4,0.7-0.9,0.9-1.2
			c1.2-2.1-1.2,1.2-1.4,1.2l-0.9,1.5c0.2-0.3,0.4-0.7-0.1-0.1c-0.5,0.6-0.9,1.3-1.2,2c-0.4,0.7-0.8,1.3-1.3,1.9
			c-0.3,0,0.8-1.7-0.2-0.7c-0.5,0.3-0.9,0.6-1.4,1c-0.9,0.8-1.8,1.6-2.6,2.5c-0.1,0.2-0.3,0.4-0.4,0.6l-0.9,0.9l0.2-0.3l-1.7,1.2
			c0.5-0.7,1.1-1.3,1.8-1.9c0.3-0.3,0.7-0.6,1-0.9c0.3-0.3,0.6-0.7,0.8-1.1l-0.1-0.3c0.2-0.2,0.5-0.5,0.7-0.8
			c0.1-0.1,0.3-0.3,0.4-0.4c0.1-0.1,0.2-0.3,0.3-0.4c0.4-0.5,0.7-1,1-1.5c-0.7,0.8-1.1,1.2-1.5,1.8s-0.9,1-1.7,1.9
			c-0.4,0.1,0.6-1.2,0.8-1.4l-0.1,0.4c0.9-0.8,1.7-1.7,2.3-2.7c0.3-0.4,0.7-0.9,1-1.5c0.4-0.5,0.8-1.1,1.4-1.8
			c0.3-0.4,0.2-0.1,0.1,0c0.8-1.2,1.5-2.3,2.4-3.4l0.6-0.8c0.2-0.3,0.4-0.6,0.5-0.9c0.3-0.6,0.6-1.2,0.9-1.8l-0.3,0.8l0.8-1.5
			c0.3-0.6,0.6-1.3,0.9-2l0.5-1.1c0.1-0.2,0.2-0.4,0.3-0.6l0.2-0.6c0.3-0.8,0.7-1.6,1-2.5l-0.1-0.1c-0.1,0.2,0-0.1,0.1-0.4
			c0.2-0.4,0.4-0.7,0.6-1.1l0,0c0.3-0.8,0.6-1.7,0.9-2.4c0.3-0.7,0.5-1.5,0.7-2.2c-0.3,0.5-0.6,1-0.8,1.5c-0.2,0.7-0.4,1.3-0.7,1.9
			c-0.3,0.8-0.6,1.4-0.3,1.3c-0.2,0.3-0.4,0.7-0.6,1.1c-0.2,0.4-0.4,0.8-0.6,1.3c-0.3,0.7-0.7,1.4-1.1,2.1c0.3-0.4,0.4-0.5,0.4-0.5
			c0,0.2-0.1,0.4-0.2,0.6c-0.3,0.5-0.5,1.1-0.7,1.7c-0.4,0.4-0.7,0.9-1,1.4c-0.3,0.5-0.6,0.9-0.7,0.8c0.4-0.5,0.7-1,1-1.6
			c0.4-1-0.1-0.2-0.6,0.6c-0.5,0.8-1,1.4-0.4,0.2c-0.9,1.6-1.9,3.2-2.9,4.7c-1.1,1.6-2.3,3.2-3.2,4.6l1.3-1.4
			c-1.1,1.4-2.3,2.8-3.6,4.1l1.2-1.4l0.6-0.8c0.2-0.3,0.4-0.6,0.6-0.8c-0.1-0.1-0.2,0.1-0.4,0.3c-0.2,0.2-0.5,0.6-0.8,0.9
			c-0.4,0.5-0.8,1-1.3,1.4l-0.4,0.6l-0.9,1.2l-1.3,1.7l1.3-1.3c-0.3,0.4-0.5,0.7-0.9,1c-0.2,0.2-0.4,0.4-0.7,0.7l-0.8,0.7l-1.7,1.5
			c-0.3,0.3-0.6,0.5-0.9,0.8s-0.6,0.5-0.9,0.7c0.7-0.8,1.4-1.6,2.2-2.3c0.5-0.4,1-0.9,1.5-1.3l0.4-0.4l0.4-0.4
			c0.2-0.3,0.5-0.5,0.7-0.8c1.4-1.7-1.3,0.7,0.1-0.9c-0.7,0.5-1.2,1.2-1.8,1.8l-0.6,0.5c0.5-0.8,1.5-1.9,2.5-3.1
			c0.5-0.6,1-1.2,1.5-1.8c0.5-0.6,0.9-1.2,1.3-1.8c-0.1,0.2-0.2,0.3-0.2,0.5c0.4-0.4,0.7-0.8,1.1-1.2c0.3-0.4,0.7-0.8,1-1.2
			c0.7-0.8,1.3-1.7,1.8-2.5c-0.5,0.6-1,1.2-1.4,1.9c-0.1,0,1-1.6,1.3-2.3c-1.2,1.5-0.4,0.1-1.2,1.1c0.3-0.5,0.6-1,1-1.5
			s0.7-1,1.1-1.6c0.6-0.6-0.2,0.7,0.1,0.6c0.3-0.6,0.7-1.1,1.2-1.6c0.6-0.6,1-1.4,1.4-2.2c-1.6,2.6,0-0.9,0.4-1.9l-0.3,0.4
			c0.1-0.4,0.3-0.8,0.5-1.2c0.2-0.3,0.4-0.7,0.6-0.9c-0.5,1.2-1.2,2.1-0.8,1.9c0.2-0.4,0.4-0.7,0.6-1.1c0.2-0.4,0.4-0.8,0.5-1.2
			l-0.2,0.8c0,0,0.4-0.9,0.9-1.8c0.2-0.5,0.5-0.9,0.6-1.3l0.3-0.6c0.1-0.8,0.2-1.6,0.2-2.4c0.3-0.5,0.5-0.9,0.7-1.5
			c0.2-0.5,0.3-1.1,0.5-1.5l-0.1,0.4c0.3-0.5,0.5-1,0.7-1.5c0.2-0.6,0.4-1.2,0.6-1.8c0.2-0.6,0.3-1.2,0.4-1.6
			c0.1-0.3,0.1-0.6,0.1-0.8c0.1-0.3,0.1,0.1,0,0.8s-0.2,1.5-0.3,2.2c-0.1,0.7-0.1,1.1,0.1,0.8c0.2-0.3,0.3-0.7,0.4-1
			c0.1-0.3,0.2-0.6,0.4-1c0.1-0.4,0.3-0.9,0.4-1.4c0.9-3.3,0-2.2,0.3-4.1c0,0,0,0.1,0.1-0.1c0.1-0.5,0.2-1,0.3-1.5
			c0-0.4,0-0.9,0.1-1.3c-0.1,0.4-0.3,0.9-0.4,1.4c-0.1,0.4-0.2,0.7-0.2,1.1c0-0.6,0.1-1.2,0.3-1.8c0.2-0.8,0.3-1.5,0.4-2.3
			c0.1,1.5,0.7-2.7,0.7-1.6c0.2-0.7,0.3-1.5,0.4-2.2c0.1-0.7,0.2-1.4,0.2-2.1c0-1.1,0-2.2-0.1-3.3c0.3-0.9,0.4-1.9,0.3-2.9
			c0-0.5,0-1.1,0-1.7c0-0.7,0-1.4,0-2.1c0,0.5,0.1,1.4,0,2.1c0.3,1.8,0.1-3.4,0.5-0.5c-0.1-0.6-0.2,0-0.1,0.6
			c0.1,1.1,0.1,2.1,0.3,1.8c0-0.1,0-0.3,0.1-0.4c0.1-0.3,0.1-0.6,0.1-0.9c0.1-0.7,0.1-1.3,0.1-1.3l0.1,0.9l0.2-2
			c0-0.3,0.1-0.5,0.1-0.8c0-0.2,0-0.5,0-0.6v-0.6c-0.1,0.2-0.1,0.3-0.2,0.5c-0.1-4.8-0.7-9.5-1.8-14.1c-0.2-0.2-0.3-0.4-0.4-0.6
			c-0.2-0.4-0.4-0.8-0.5-1.2c-0.2-0.5-0.4-1.1-0.5-1.7c-0.2-0.6-0.4-1.3-0.6-1.9c-0.2-0.7-0.5-1.4-0.7-2.1c-0.1-0.2-0.1-0.3-0.2-0.5
			l-0.2-0.5l-0.4-1c-0.4-1.1-0.9-2.1-1.5-3.1c0.6,0.7,1.2,1,1.2,0.4c0.7,1.2,1.3,2.4,1.8,3.7c0,0.3,0.4,2.4-0.1,1.1
			c1.5,4.4,0.2-0.7,0.9,0.5c-0.2-0.6-0.4-1.2-0.6-1.8s-0.4-1.1-0.7-1.5c-0.4-1-0.8-1.8-1.3-2.7l-1.3-2.3l-0.3-0.5l-0.3-0.5
			c-0.2-0.3-0.4-0.7-0.6-1.1l0.1-0.1l-0.6-1.1c-0.2-0.3-0.3-0.5-0.4-0.7l-0.2-0.3c0.2,0.3,0.3,0.7,0.4,1c0.1,0.2,0,0.3,0,0.3
			c-0.4-0.6-0.8-1.1-1-1.8l0.2,0.3c-0.4-0.9-0.9-1.9-1.4-2.7c-0.7-1-1.4-2.1-2-3.1l-0.2-0.2l-0.4-0.4l-0.6-0.5
			c-0.7-0.9-1.1-2-1.1-3.1c-0.9-1.2-1.9-2.4-3-3.4c-1-0.9-1.8-1.7-2.8-2.5c-0.3-0.4-0.6-0.8-0.9-1.2l-0.6-0.8
			c-0.2-0.2-0.4-0.5-0.6-0.7c-0.8-0.9-1.2-1.4,0-0.5c-0.5-0.4-1-0.8-1.6-1.1c-0.4-0.2-0.8-0.4-1.3-0.6c-0.5-0.3-1-0.6-1.5-1
			c-0.3-0.3-0.7-0.6-1-0.9c-0.4-0.4-0.8-0.8-1.3-1.3l1.3,0.7l-1.7-1.3c-0.6-0.5-1.2-0.9-1.8-1.3c-1.3-0.8-2.5-1.7-3.8-2.4l-1.8-1.1
			l-1.6-0.9c-1-0.6-1.8-1.1-2.3-1.4c1.1,0.1-0.3-0.9-2-2c-0.9-0.5-1.8-1.1-2.6-1.6c-0.4-0.2-0.7-0.5-1-0.7c-0.2-0.1-0.4-0.3-0.5-0.5
			c0.2,0.3-1.7-0.4-2-0.4c-0.2-0.2-0.5-0.3-0.8-0.4c-0.3-0.1-0.7-0.2-1.1-0.3c0.9,0.4,0.5,0.5,0.4,0.6c-0.2,0.1-0.1,0.1,0.1,0.2
			c0.2,0.1,0.7,0.3,1.7,0.6c-0.5-0.1-1.1-0.1-1.7-0.2c-0.6-0.1-1.3-0.2-2-0.3c-1.4-0.3-3.1-0.7-5.2-1.3l0.2-0.3l3.3,1.1
			c-0.1-0.2,0.2-0.1,0.7,0s1.1,0.3,1.5,0.4c-0.8-0.3-1.3-0.5-1.7-0.7c-0.3-0.1-0.5-0.2-0.8-0.4c-0.3-0.2-0.2-0.2,0-0.3
			c0.2,0,0.5-0.2-2.7-1.1c-0.7,0.1-0.3,0.1-2-0.2c0.8,0.2,1,0-0.3-0.3h-1.3c-0.5-0.2-0.6-0.3-0.3-0.4c0.4,0,0.8,0,1.2,0.1
			c1,0.2,2.1,0.4,1.1-0.1c0.6,0.1,1.4,0.2,2.2,0.3c0.8,0.1,1.5,0.3,2.2,0.5c1.3,0.2,2.3,0.4,1.9,0.1c-0.4-0.2-0.9-0.3-1.3-0.4
			c-0.4-0.1-0.7-0.2-1.1-0.2c-0.5-0.1-1.1-0.2-1.6-0.2c-0.5,0-1,0-1.7-0.2c-0.9-0.1-1.7-0.3-2.5-0.6l-0.4-0.3
			c-0.9-0.1-1.8,0-2.7,0.1c-0.1-0.1-0.4-0.3-1.4-0.4h-3.5c-1.1,0-2.1,0.1-3.3,0.2c1.6,0.1,2.7,0.1,3.7,0.2c0.8,0.1,1.5,0.2,2.3,0.4
			c1.4,0.3,2.7,0.6,6,1.1c-1-0.1-5.6-0.9-6-0.4l0.1-0.3l-1.6-0.1l-0.8-0.1h-0.8l-1.8-0.1l-0.9-0.1l-1-0.1l0.8-0.1h-0.5l-1.2-0.1
			c-0.8-0.1-1.5-0.2-2.2-0.2c-0.7-0.1-1.4-0.1-2-0.1c-0.3,0-0.7,0-1,0.1c-0.3,0-0.7,0.1-1,0.2h1.4c0.4,0,0.7,0,1.1,0
			c-1.8,0.1-4.1,0.2-6.1,0.3l-2,0.5l-1.5,0.2l-0.6,0.2c0-0.2-2.6,0.2-1.4-0.2c-0.7,0-1.3,0.1-1.9,0.2c-0.6,0.1-1,0.3-1.5,0.4
			c-0.9,0.3-1.6,0.6-2.4,0.8c-1.5,0.2-0.9,0,0.1-0.3c1.1-0.3,2.5-0.6,2.6-0.9l-1.6,0.3c-0.5,0.1-1,0.2-1.5,0.3c-1,0.3-2,0.5-2.9,0.8
			c-0.5,0.1-0.9,0.3-1.3,0.4l-1.2,0.5L79,29.8c-0.3,0.1-0.6,0.3-0.9,0.4c0.3-0.1,0.6-0.2,0.9-0.2h0.3c-0.4,0-0.7,0.1-1,0.3l-1.6,0.6
			l-0.5,0.4c-1.5,0.4-1.4,0.2-0.2-0.4c-0.4,0.1-0.7,0.3-1.1,0.4c-0.4,0.2-0.7,0.4-1.1,0.6c-0.7,0.4-1.5,0.7-2.3,0.9
			c0.6-0.3,1.2-0.6,1.8-0.9c0.6-0.3,1.2-0.6,1.8-0.8c1.2-0.4,2.3-0.8,2.9-1.1c-1,0.4-2,0.8-3,1.1c-0.4,0.1-0.8,0.2-1.2,0.4l-1.1,0.3
			c-0.4,0.1-0.8,0.2-1.2,0.4c-0.5,0.1-0.9,0.3-1.3,0.5c-0.5,0.2-1,0.5-1.6,0.8l-0.9,0.5c-0.3,0.2-0.7,0.4-1,0.6
			c-0.1-0.1,0.8-0.8-0.4-0.2c-2.6,1.6-0.5,0.8-1.2,1.5c0.8-0.5,1.6-1,2.4-1.3c0.6-0.3,1.3-0.5,1.9-0.6l-0.4,0.5
			c-0.1,0-1.4,0.6-1.8,0.7l-0.2,0.5c0-0.2-0.6-0.1-1.3,0.2c-0.4,0.2-0.8,0.3-1.2,0.5l-0.6,0.3c-0.2,0.1-0.4,0.3-0.6,0.4
			c0.4-0.2,0.9-0.4,1.4-0.5c0.2,0,0.2,0.1,0.6,0.2c-0.7,0.6-1.5,1.1-2.4,1.4c-0.4,0.2-0.8,0.4-1.1,0.6c-0.5,0.3-1,0.7-1.5,1.1
			c0.1-0.3,2.2-1.7,0.3-0.6c-1.5,1-1.1,1.1-2,1.9c0.9-1,0.5-1.1,1.5-2.2l0.4-0.3l0.4-0.2l0.5-0.3l0.5-0.3l1.8-1.3l-2.4,1.2
			c2.3-1.5,1.5-1.4,1.6-1.6c-4.2,2.2-2.7,2.3-5.3,4c-1.1,1,2.3-1.6,0.6-0.1c-0.4,0.2-0.7,0.5-1.1,0.8c-0.1,0.1-0.2,0.2-0.3,0.3
			c-0.1,0.2-0.2,0.4-1.4,1.4l0.3-0.4c-0.9,0.5-1.7,1.2-2.3,1.9c-0.4,0.4,0,0.4,0.1,0.7c0,0.3-0.1,0.6-0.3,0.8
			c-0.2,0.3-0.4,0.5-0.6,0.7l-0.5,0.5c-0.2,0.2-0.4,0.4-0.6,0.6c0.1-0.2,0.1-0.3,0.1-0.4l0.1-0.2c0-0.2,0.1-0.4,0.2-0.6l0.6-1.8
			l0.7-1.8c0.1-0.2,0.2-0.4,0.2-0.6l0.1-0.2c-0.5,0.4-1,0.8-1.5,1.3c-0.5,0.4-1,0.9-1.6,1.3c-0.3,0.2-0.5,0.5-0.8,0.7l-0.8,0.7
			l-1.6,1.5L46,48.3c-0.3,0.3-0.5,0.5-0.8,0.8l-0.4,0.4l-0.4,0.4l-1.5,1.7l-0.8,0.8l-0.7,0.9c-0.6,0.4-0.1-0.5,0.6-1.5
			c0.7-1,1.6-2.1,1.4-2.1l0.3-0.3c0.2-0.2,0.4-0.4,0.7-0.7l1-0.9c-0.1,0.3-0.3,0.5-0.6,0.8c-0.2,0.2-0.4,0.4-0.6,0.6l-0.6,0.7
			c-0.7,0.9-1.2,1.5-0.2,0.7c0.4-0.5,0.7-0.9,1.1-1.3l1-1.1l1-1c0.3-0.3,0.6-0.6,0.9-0.9c1.3-1.2,2.4-2.5,4.1-4.1
			c-1.2,0.6-2.2,1.5-3.1,2.5l-0.9,0.9c-0.3,0.3-0.7,0.6-0.9,0.9c-0.6,0.6-1.2,1.2-1.8,1.7c0.5-0.4,0.9-0.9,1.2-1.3s0.7-0.8,1.1-1.2
			c-0.3,0.2-0.5,0.5-0.8,0.7c-0.3,0.3-0.5,0.5-0.8,0.8L44,48.8c-0.5,0.6-1,1.1-1.6,1.7c-0.6,0.6-1.1,1.2-1.6,1.8L40.4,53
			c0.4-0.4,0.7-0.8,1-1.2c0.3-0.3,0.6-0.6,0.8-0.9L43,50c-0.5,0.5-0.9,1.1-1.3,1.6c-0.3,0.5-0.7,0.9-1,1.4c-0.5,0.9-0.8,1.5-0.7,1.7
			l0.3-0.4l-0.5,0.9C39.3,55.8,38.9,56.3,38.5,56.8z M114.6,183c-0.1,0.1-0.3,0.1-0.4,0.2C114.3,183.1,114.2,183.1,114.6,183z
			 M83.9,24.5c-3.8,0.9-7.5,2-11.1,3.4c0.2-0.1,0.4-0.1,0.6-0.2l0.6-0.1l1.2-0.3l2-0.5c0.8-0.2,1.6-0.3,2.4-0.3
			c0.3,0,0.1,0.2-0.8,0.6l-0.9,0.3c-0.3,0.1-0.7,0.3-1.1,0.4c-0.9,0.3-1.9,0.7-3.2,1.2l-0.6,0.3c0.3-0.1,0.7-0.3,1.2-0.4
			c0.4-0.2,0.9-0.3,1.5-0.5c1-0.4,2.2-0.8,3.3-1.2c0.9-0.4,2.7-1.4,4.4-2.1l2.1-1c0.3-0.1,0.6-0.2,0.9-0.4c-0.4,0-0.8,0-1.2,0.2
			c-0.5,0.1-1,0.3-1.6,0.5L83.9,24.5z M86.9,25.1c2.2-0.3,1.6-0.4,1.9-0.6l-2.3,0.6C86.8,25,87,25.1,86.9,25.1L86.9,25.1z
			 M88.6,24.4c-0.2,0-0.4,0.1-0.6,0.1L88.6,24.4z M50.6,42.6l0.2-0.2c-0.4,0.3-0.8,0.6-1.2,1C49.7,43.3,50,43,50.6,42.6z M54.3,40
			l0.2-0.5l-1.2,0.9C53.7,40.4,54,40.3,54.3,40L54.3,40z M66.7,33.2c0.6-0.7,3.3-2,3.3-2.5c0.1-0.2-0.5,0.1-1.1,0.3l-2.3,1.1
			c0,0.1-0.1,0.2-0.4,0.4c0.8-0.4,1.4-0.5,1.2-0.1c-0.7,0.1-1.4,0.5-1.9,1c-0.5,0.6-1.1,1-1.8,1.4C63.1,35.3,66.1,33.7,66.7,33.2z
			 M180.4,127.4c-0.1,0.1-0.2,0.3-0.4,0.5l0.3-1.7c0.2-0.7,0.5-1.4,0.8-2.1s0.4-1.3,0.6-2c0.2-0.6,0.4-1.3,0.5-1.9
			c0.1-0.7,0.2-1.4,0.2-2c0.1-0.5,0.3-1,0.6-1.5c0.2-0.4,0.3-0.7,0.5-1c-0.1,0.6-0.2,1.2-0.3,1.7c-0.3,3.9-0.9,4.9-1.3,5.6
			c-0.3,0.4-0.5,0.9-0.6,1.3C180.9,125.3,180.6,126.3,180.4,127.4L180.4,127.4z M184,92.1c0,0.1,0.1,0.3,0.2,0.4
			c-1.7-6.8-3.6-12.2-4.8-15.7c0,0.3,0.1,0.7,0.1,1c0.1,0.4,0.2,1,0.3,1.5c0.1,0.5,0.2,1.1,0.4,1.7c0.1,0.3,0.1,0.5,0.2,0.8
			c0.1,0.2,0.1,0.5,0.1,0.7l-0.3-0.6c-0.2-0.3-0.4-0.6-0.4-0.6v-0.9l-1-2.2c0,0.7,0.6,2.6,0.8,3.8c0,0,0.4,1,0.9,2.2l0.6,1.7
			c0.2,0.5,0.3,1,0.4,1.3c0-0.2,0-0.4-0.1-0.5c-0.1-0.3-0.1-0.7-0.2-1.1l-0.3-1.7c0.2,0.9,1.2,5.2,1.5,6.9c0.1-0.5,0.1-1,0-1.6
			c0-0.6-0.2-1.2-0.5-1.8c0.2-0.4,0.9,3,0.7,0.8c0.4,1.5,0.7,3,0.9,4.6c0,0.2,0,0.4,0.1,0.6c0,0.2,0,0.4,0,0.6c0,0.4,0,0.8,0.1,1.1
			c0,0.7,0.1,1.3,0.1,1.8l-0.4,0.4c0,2.1,0.6,1.4,0.5,4c-0.2-3.1-0.4,0.5-0.6-1.9c-0.1,0.4-0.2,0.4-0.2,0.6
			c-0.1,0.2-0.1,0.4-0.1,0.6v1.3c0.2,0.8,0.2,1.5,0.1,2.3c-0.1,0.3-0.1,0.7-0.1,1c0,0.4,0,0.8,0.1,1.2c-0.2,1.3-0.3-1.4-0.5,1.1
			c0,0.6,0.1,1.1,0.1,1.7c0,0.3,0.1,0.6,0.1,0.8c0.1,0.3,0.3,0.4,0.5,0.5c0.2-0.9,0.2-1.9,0-2.9c-0.1-0.8-0.2-1.6-0.1-2.5
			c0,0.1,0,0.1,0,0.2c0,0.2,0,0.3,0.1,0.5c0.1,0.4,0.1,1,0.2,1.5c0.1,0.6,0.1,1.1,0.2,1.6v0.7c0.1-0.4,0.1-0.7,0.2-1.1
			c0-0.3,0-0.6,0-0.9v1.3c0,0.4,0,0.7,0.1,1.1c0,0.3,0.1,0.7,0.1,1.1c0.1-0.6,0.1-1.3,0.2-1.8c0.1-0.6,0.1-1.1,0.1-1.6
			c0-0.6,0.1-1.2,0.2-1.8l0.2,0.4c0.2-1,0.1-2.1-0.1-3.1c0-0.6,0-1.1-0.1-1.7c-0.1-0.5-0.1-1.1-0.1-1.5c-0.1-0.6-0.1-1.3,0-1.9
			l0.2,0.9c-0.1-0.7-0.1-1.3-0.1-1.7c-0.1-0.5-0.1-0.9-0.2-1.3c-0.1-0.4-0.1-0.9-0.2-1.5c0-0.3-0.1-0.6-0.1-0.9
			C184,93,184,92.5,184,92.1L184,92.1z M126.5,25.2c0.9,0.8,1.9,1.4,3,1.9c1.5,0.8,3.8,1.7,7.4,3.3l-0.6-0.2c0.9,0.5,1.7,1,2.7,1.4
			c0.9,0.4,1.8,0.8,2.7,1.2c0.5,0.2,0.9,0.4,1.4,0.7c0.5,0.2,0.9,0.5,1.4,0.8c1,0.6,2,1.2,2.9,1.9c-1.1-0.5-1.6-0.8-2.1-1
			s-1.2-0.4-2.4-0.8l2.3,1.1c-0.8,0,1.4,1.1,3,2.2l-1.6-0.5c-0.6-0.5-1.3-1-1.9-1.4c-0.4-0.3-0.9-0.5-1.3-0.7
			c0.3,0.1-0.5-0.5-1.5-1.2c-1.2-0.8-2.4-1.5-3.7-2.1c0.6,0.5,1.3,1,2.1,1.4c0.9,0.5,1.4,0.9,0.3,0.6c0.4,0.1,0.7,0.3,1.1,0.5
			c0.3,0.1,0.5,0.3,0.8,0.5c0.6,0.4,1.2,0.8,1.8,1.1c-1.8-0.8-0.6,0.1-2-0.4l1.5,0.8c0.4,0.2,0.8,0.4,1,0.6l0.4,0.3
			c-0.2-0.1-0.4-0.2-0.6-0.3c-0.4-0.2-0.8-0.4-1.3-0.6c-0.8-0.4-1.4-0.5-0.3,0.3c0.3,0.1,0.7,0.4,1.2,0.6l1.4,0.9
			c0.9,0.6,1.7,1,1.8,0.9V39c0.5,0.4,1,0.7,1.6,0.9c0.7,0.3,1.4,0.7,1.9,1.3c0.1-0.1,0-0.2-0.2-0.4c-0.3-0.3-0.6-0.5-1-0.8
			c-0.3-0.2-0.7-0.4-1-0.5c-0.2-0.1-0.4-0.2-0.6-0.3l-1-0.6c-0.3-0.3,0.2,0,0.6,0.3s0.8,0.5,0.4,0c-0.7-0.6-1.4-1.1-2.2-1.5
			c-0.9-0.5-1.5-1-0.8-0.8l2.1,1.4c0.1-0.1,0.6,0.1,1,0.3c0.4,0.2,0.8,0.4,0.9,0.3c0.6,0.4,1.3,0.9,1.8,1.4c0.3,0.2,0.6,0.5,0.9,0.7
			c0.3,0.2,0.6,0.5,1,0.6c0.6,0.2,0-0.8,2,1c0.4,0.6,0.9,1.1,1.5,1.6c0.3,0.3,0.7,0.6,1,1l1.1,1.1l1.1,1.1c0.4,0.3,0.7,0.7,1,1
			c0.6,0.7,1.2,1.2,1.6,1.6l0.8,0.6l0.7,0.7c0.1-0.3-2.6-2.7-1.5-2c0,0,0.5,0.6,1.1,1.1l1,1.2l-0.3-0.1c0.3,0.4,0.7,0.8,1,1.1
			c0.4,0.4,0.7,0.7,1.1,1.1c-0.4-0.3-0.9-0.9-1.4-1.3c-0.5-0.4-0.8-0.8-0.8-0.5c0.4,0.6,0.7,0.9,0.9,1.3c0.2,0.3,0.5,0.6,0.9,1.1
			c-0.2-0.2-0.4-0.4-0.4-0.3c1.7,2.4,2.1,2,2.6,2.5c0.5,0.5,0.7,0.6,0.7,0.5c-0.1-0.4-0.3-0.7-0.5-1c-0.6-0.9-1.4-2.1-1.1-2.1
			l0.9,1.1l0.9,1.1c0.3,0.4,0.6,0.9,0.9,1.3l0.9,1.3l0.4,0.6l0.4,0.6l0.8,1.2c-0.5-0.6-1-1.2-0.9-0.8c1,1.9-0.2,0.2,1.4,2.7
			c0.2-0.2,0.7,0.6,1.3,1.6c0.3,0.5,0.7,1.1,1,1.7c0.4,0.6,0.6,1.2,0.9,1.6c0.3,1,0.3,1.2-0.6-0.8c0.1,0.6,0.3,1.2,0.6,1.7
			c0.2,0.4,0.4,0.8,0.6,1.2c0.2,0.4,0.3,0.7,0.4,1c0.3,0.5,0.8,1.4,1.1,2c-0.2-0.9,0.1-0.6,1,1.1l0.1,0.1c-0.1-0.4-0.3-0.8-0.4-1.2
			c-0.2-0.4-0.3-0.8-0.5-1.3c-0.3-0.9-0.6-1.8-1.1-2.6c-0.6-1.4-1.3-2.7-2.1-4l0.4,0.4c-0.4-0.8-0.8-1.7-1.3-2.5l-0.4-0.6l-0.4-0.6
			c-0.3-0.4-0.5-0.7-0.8-1.1c-0.5-0.7-0.9-1.4-1.3-1.9c-0.3-0.5-0.6-1-0.8-1.5c0.3,0-0.4-0.6-0.1-0.8l-0.8-1c-0.5-0.5-0.9-1-0.9-1
			l0.5,0.3l-1.4-1.8c-0.4-0.4-0.7-0.9-1-1.2l-0.5-0.5h0.1l-2.2-1.9l-1.8-1.4c-0.1,0.1,0,0.2-0.6-0.2c-0.3-0.2-0.5-0.4-0.7-0.6
			c-0.2-0.2-0.4-0.4-0.6-0.5l0,0c-0.8-0.8-1.1-1.5-2.1-2.5l1.5,1.5c0.4,0.4,0.8,0.7,1.1,1c0.2,0.1,0.3,0.3,0.5,0.5
			c0.4,0.1,0.4-0.4-1-1.9c0.6,0.6,1,0.7,0.3-0.1c-0.1,0-2.1-1.8-1.5-0.9c-1.5-1.3-3.4-3.2-5.6-5c-0.3-0.2-0.6-0.5-0.9-0.7l-0.9-0.7
			c-0.6-0.4-1.2-0.9-1.8-1.3c-0.6-0.4-1.3-0.8-2-1.2c-0.7-0.4-1.3-0.8-2-1.1c1.9,1,1.2,0.5,0.6,0c-0.3-0.3-0.7-0.5-0.6-0.5
			c0.1,0,0.2,0.1,0.3,0.2c0.2,0.1,0.6,0.3,1.1,0.6c-0.3-0.2-0.6-0.5-0.9-0.7c-0.2-0.2-0.5-0.3-0.7-0.4c-0.4-0.2-0.7-0.4-1.1-0.5
			c-1-0.3-2-0.8-3-1.3c-0.1-0.1,0.3,0.1,0.9,0.4l0.4,0.2l0.4,0.2c0.2,0.1,0.5,0.2,0.8,0.3c-1.2-0.7-2.3-1.3-3.6-1.9
			c-1.1-0.6-2.3-1-3.4-1.4c-0.6-0.2-1.1-0.4-1.7-0.6c-0.6-0.2-1.2-0.4-1.7-0.6l-1.8-0.6c-0.6-0.2-1.3-0.4-1.9-0.7l-0.1-0.4
			c-0.5-0.1-1-0.3-1.6-0.5L126.5,25.2z M115.7,23.2l-1.6-0.2c-0.5-0.1-1.1-0.1-1.6-0.2h-2.9c1.9,0.3,3.2,0.8,0.4,0.7
			c0.2-0.1-0.5-0.3,0.4-0.3c-0.4-0.1-1-0.2-1.7-0.3c-0.6-0.1-1.3-0.1-1.8-0.2c-1.1-0.1-1.8,0-1.3,0.2c3.5-0.3,0.8,0.6,3.6,0.4
			c-0.7,0.1-1.5,0.1-2.2,0.1c-0.7,0-1.4-0.1-2.1,0c0.7-0.1,0.6-0.3,0.1-0.4c-0.9-0.2-1.7-0.3-2.6-0.3c-0.3,0-0.7,0-1,0
			c-0.4,0-0.9,0-1.3,0.1c-0.9,0.1-2,0.1-2.7,0.2c0.6,0.3-0.8,0.5,1.8,0.4c-0.5,0.1-1.1,0.1-1.7,0.2c-0.7,0-1.4,0.1-2.3,0.1
			c0.6-0.1,1.1-0.2,1.7-0.4c-1-0.1-2-0.1-3-0.1l-0.4,0.1L93,23.7l-0.9,0.1c0.1,0,0.3,0,0.4,0l-1.7,0.5c2.4-0.5,1.1,0,1.1,0.1
			c0-0.3-1.5,0.2-2.3,0.3l1.8,0.1c-0.6,0.1-1.2,0.2-1.8,0.3c-0.6,0.1-1,0.1-0.8,0.3l0.7-0.1l0.6-0.1l1.1-0.1c0.7-0.1,1.3-0.2,2-0.3
			l4.1-0.5L96,24.1c0.5-0.1,0.9-0.1,1.2-0.2c0.3,0,0.6,0,0.9,0c0.4,0,0.7,0.1,1.1,0.2c0.4,0.1,0.8,0.1,1.2,0.1h2.3
			c1.8-0.3,6.4,0.1,6.6-0.3c-0.3,0.1,0.4,0.2,1.3,0.4c0.5,0.1,1,0.1,1.5,0.2c0.5,0,1,0.1,1.4,0.1c1.2-0.1,2.5-0.1,3.7,0.1
			c1.3,0.1,2.1,0.2,1.4,0c-0.3-0.1-0.7-0.1-1.1-0.2c-0.4-0.1-0.8-0.1-1.1-0.1c-0.7,0-1.3-0.2-2-0.4l1.3,0.1l0.9,0.1h0.4l-0.2,0
			l-0.6-0.2l-0.8-0.2C116.1,23.9,116.1,23.6,115.7,23.2z M57.7,33l-0.1,0.1L57.7,33L57.7,33z"/>
		<path id="Trazado_60" class="st1" d="M161.4,161c-0.1,0.2-0.3,0.4-0.5,0.6l-0.6,0.6c-0.4,0.4-0.6,0.7-0.4,0.6
			c-0.1-0.1,0.5-0.7,1-1.2C161.5,161.2,161.9,160.7,161.4,161z"/>
		<path id="Trazado_61" class="st1" d="M159.6,162.3c-0.1,0.1,0.1,0.2-0.5,0.7l1.6-1.6L159.6,162.3z"/>
		<path id="Trazado_62" class="st1" d="M156.6,162.6c-0.8,1-1.7,1.9-2.7,2.7c-0.9-0.1,2.2-2.1,2.4-3.1c-1,0.8-1.9,1.7-2.7,2.6
			c-0.8,0.8-1.6,1.6-2.4,2.3c0.5-0.3,1-0.6,1.4-0.9c0.7-0.4,1.3-0.9,1.9-1.4C155.7,163.8,156.8,162.8,156.6,162.6z"/>
		<path id="Trazado_63" class="st1" d="M157.1,160.9l-0.6,0.7l-0.4,0.5l-0.2,0.2l0.2-0.1c0.1-0.1,0.1-0.1,0.2-0.2l0.4-0.5l0.6-0.7
			L157.1,160.9z"/>
		<path id="Trazado_64" class="st1" d="M183.9,129.2c0.3-0.1,0.4-1.4,0.5-2C184.2,127.9,184,128.6,183.9,129.2z"/>
		<path id="Trazado_65" class="st1" d="M71.3,181.7l2.2,0.9l0.5,0.2l0.6,0.2l1.2,0.4l1.3,0.4l0.7,0.2l0.7,0.2l2.7,0.8l0.6,0.2
			l0.6,0.1l1.1,0.3l1.7,0.4l0.5,0.1h0.2c-2.1-0.5-4.2-0.9-6.5-1.6c-0.6-0.2-1.2-0.3-1.8-0.5l-1.9-0.6l-1-0.3
			c-0.3-0.1-0.7-0.2-1.1-0.4L71.3,181.7z"/>
		<path id="Trazado_66" class="st1" d="M183.2,80.1c0.1,0.2,0.2,0.5,0.3,0.7c0.1,0.2,0.1,0.4,0.2,0.6c0.1,0.4,0.3,0.8,0.4,1.2
			c0.3,0.8,0.5,1.4,0.8,2.1c0.2,0.7,0.4,1.4,0.6,2.2l0.3,1.2c0.1,0.2,0.1,0.4,0.2,0.7s0.1,0.5,0.1,0.7c0-0.6-0.1-1.2-0.2-1.8
			c-0.1-0.6-0.2-1.1-0.3-1.6c-0.1-0.5-0.2-0.9-0.4-1.4c-0.1-0.4-0.3-0.8-0.4-1.2c-0.3-0.8-0.6-1.6-0.8-2.4c-0.1-0.4-0.3-0.9-0.4-1.3
			c-0.1-0.5-0.3-1-0.4-1.5L183.2,80.1z"/>
		<path id="Trazado_67" class="st1" d="M185.2,81c-0.1,0.2-0.2,0.1-0.3-0.1c-0.1-0.1-0.2-0.3-0.2-0.4c-0.1-0.2-0.2-0.3-0.2-0.5
			c-0.3-0.7-0.7-1.5-0.7-1.1c0.9,2.6,0.8,1.1,1.4,3.5L185.2,81z"/>
		<path id="Trazado_68" class="st1" d="M181.6,99.5l-0.3-1.1l0.1,0.9L181.6,99.5z"/>
		<path id="Trazado_69" class="st1" d="M178,63.9l0.3,0.3l-0.9-1.8L178,63.9z"/>
		<path id="Trazado_70" class="st1" d="M178.6,64.6l-0.1-0.2l-0.1-0.2l0.1,0.2L178.6,64.6z"/>
		<path id="Trazado_71" class="st1" d="M180.7,98.1l0,1.7l0.2,0.8L180.7,98.1z"/>
		<path id="Trazado_72" class="st1" d="M180.3,83l0.5,1.5C180.7,84.2,180.3,82.1,180.3,83z"/>
		<path id="Trazado_73" class="st1" d="M171.5,53.2l-1.3-1.5l0.1,0.2l1.3,1.5L171.5,53.2z"/>
		<path id="Trazado_74" class="st1" d="M175.2,72c0.1,0.5-0.2-0.1-0.5-0.7c-0.1-0.2-0.2-0.4-0.3-0.6c0,0.2,0.1,0.4,0.1,0.6
			C175.4,73.1,175.2,72.3,175.2,72z"/>
		<path id="Trazado_75" class="st1" d="M165.1,51.8c-0.2-0.2-0.3-0.4-0.5-0.6C164.7,51.4,164.9,51.6,165.1,51.8z"/>
		<path id="Trazado_76" class="st1" d="M165.1,51.8c0.3,0.3,0.5,0.6,0.8,0.9c0.2,0.3,0.4,0.5,0.6,0.8
			C166.1,52.8,165.6,52.3,165.1,51.8z"/>
		<path id="Trazado_77" class="st1" d="M158.5,44.9l0.5,0.5c-0.6-0.4-0.4-0.2,0.2,0.2c0.6,0.5,0.6,0.4,0.7,0.5l0.4,0.3
			c-0.2-0.1-0.4-0.3-0.5-0.4C158.9,45.2,158.4,44.6,158.5,44.9z"/>
		<path id="Trazado_78" class="st1" d="M130,22.3c2.7,1.1,3.4,1.4,3.2,1.5c2.6,1.1,2.3,0.6,3.9,1.1c-1.5-0.6-2.4-0.9-3.3-1.3
			C132.6,23.1,131.3,22.7,130,22.3z"/>
		<path id="Trazado_79" class="st1" d="M137.1,24.9c0.3,0.1,0.6,0.3,1,0.4C137.8,25.2,137.5,25,137.1,24.9z"/>
		<path id="Trazado_80" class="st1" d="M164,54.7c-0.1-0.1-0.1-0.1-0.2-0.2l-0.5-0.4l-0.7-0.5l0.4,0.4l0.5,0.3l0.3,0.2L164,54.7z"/>
		<path id="Trazado_81" class="st1" d="M125.8,20.9c0.6,0.2,1.2,0.4,1.8,0.6C127.8,21.3,125.3,20.7,125.8,20.9z"/>
		<path id="Trazado_82" class="st1" d="M134.8,28.9c0.4,0.2,0.7,0.4,1.1,0.6c0.5,0.2,1.1,0.5,1.4,0.7c-0.4-0.2-0.8-0.5-1.2-0.8
			c-0.2-0.1-0.4-0.2-0.6-0.3C135.3,28.9,135,28.9,134.8,28.9L134.8,28.9z"/>
		<path id="Trazado_83" class="st1" d="M117.4,20.1c0.5,0.1,1.3,0.4,0.9,0.5C119.1,20.6,120.2,20.5,117.4,20.1z"/>
		<path id="Trazado_84" class="st1" d="M130,27l0.3,0.2l0.9,0.2l0.6,0.2l0.3,0.1l-0.3-0.1l-0.8-0.2L130,27z"/>
		<path id="Trazado_85" class="st1" d="M135,32.7c1,0.3,0.3-0.2-0.2-0.6c-0.5-0.4-0.9-0.8,0.8-0.1c-0.5-0.3-0.9-0.5-1.2-0.6
			c-0.2-0.1-0.4-0.2-0.6-0.2c-0.2-0.1-0.2,0-0.1,0.1c0.1,0.1,0.5,0.5-1.1-0.1C134.5,31.9,135.2,32.7,135,32.7z"/>
		<path id="Trazado_86" class="st1" d="M132.7,31.1c-0.3-0.1-0.5-0.2-0.9-0.4L132.7,31.1z"/>
		<path id="Trazado_87" class="st1" d="M104.2,23.7c0.2,0,0.5-0.1,0.7-0.1C104.7,23.6,104.5,23.7,104.2,23.7z"/>
		<path id="Trazado_88" class="st1" d="M122.3,28l1.6,0.2l1.5,0.2c-2.1-0.4-7.1-1.5-6.9-1c0.4,0.1,0.8,0.2,1.3,0.3
			c0.4,0.1,0.9,0.2,1.3,0.3c0.6,0.1,1.3,0.2,1.9,0.3L122.3,28z"/>
		<path id="Trazado_89" class="st1" d="M85.4,20l1.4-0.5L85,19.9C85.5,19.8,84.7,20.3,85.4,20z"/>
		<path id="Trazado_90" class="st1" d="M84.6,20l0.4-0.1L84.6,20z"/>
		<path id="Trazado_91" class="st1" d="M110.2,23.8c0.9,0.1,1.8,0.2,2.7,0.2C112.6,23.9,110.1,23.5,110.2,23.8z"/>
		<path id="Trazado_92" class="st1" d="M75.6,23.4c0,0,0.6-0.2,1.1-0.4l1.1-0.4L76.7,23l-0.5,0.2l-0.4,0.1l-0.4,0.1L75.6,23.4z"/>
		<path id="Trazado_93" class="st1" d="M65,27.2l-0.4,0.1l-0.3,0.2c-0.2,0.1-0.4,0.2-0.6,0.4l-0.9,0.5l0.4-0.1l0.3-0.2l0.6-0.4
			L65,27.2z"/>
		<path id="Trazado_94" class="st1" d="M81.1,29.6c1.4-0.4,2.5-1,2.1-1l-0.4,0.1l-0.4,0.1L81.8,29l-1.4,0.4c0.3,0.1,0.6,0,0.9-0.1
			c0.2-0.1,0.3-0.1,0.6-0.2c0.3-0.1,0.6-0.2,0.9-0.3l-0.3,0.1c-0.2,0.1-0.4,0.2-0.6,0.3L81.1,29.6z"/>
		<path id="Trazado_95" class="st1" d="M19.2,93.4c-0.1-0.7,0.5-4.2,0.8-4.3c0,0.5-0.2,2.3,0.1,1.2v-2.8c1-3.5,0.1,2.8,0.2,4.6
			c0.1-0.9,0.2-1.7,0.3-2.3c0.1-0.7,0.2-1.3,0.2-1.9c0.1-0.6,0.2-1.2,0.3-1.9c0.1-0.8,0.3-1.6,0.5-2.4c-0.3,0.8-0.6,1.6-0.9,2.4
			c-0.1,0-0.1-0.2-0.1-0.6c0.1-0.5,0.2-1,0.3-1.5c0.1-0.6,0.3-1.3,0.5-2s0.4-1.4,0.6-2c-0.6,1.6-0.5,0.6-0.3-0.6
			c0-0.2,0.1-0.3,0.1-0.5c0-0.1,0-0.3,0.1-0.4l-0.1,0.3c0,0-0.1,0-0.2,0.2c-0.1,0.5-0.3,1-0.4,1.5c-0.2,0.5-0.3,0.9-0.4,1.3
			c-0.3,0.8-0.5,1.6-0.7,2.3c0.2-0.3,0.3-0.2,0.2,0.2c-0.1,0.4-0.2,1.1-0.3,1.9c-0.1,0.8-0.4,1.7-0.5,2.5c-0.1,0.7-0.2,1.3-0.3,2
			l-0.3,2.1l-0.1,0.8c-0.1,0.1-0.1-0.1-0.1-1.3c0,0.4,0,0.7-0.1,1.1c-0.1,0.5-0.1,0.9-0.1,1.4c-0.1,0.9-0.1,1.7,0,1.5
			c0.1-0.1,0,0.5-0.1,1.2c-0.1,0.7-0.1,1.7-0.1,2.6s-0.1,1.8-0.1,2.6c0,0.8,0,1.2,0,1.2c0,0.2-0.1,0.4-0.1,0.6
			c0,0.3,0.1,0.3,0.1,0.3c0,0,0,0.1,0,0.4v1c0.1,0.9,0.1,2.2,0.2,3.7c0.1,0.8,0.2,1.6,0.2,2.5c0,0.4,0.1,0.9,0.1,1.3l0.1,0.7
			l0.1,0.7c0.1,0.9,0.3,1.9,0.4,2.9c0.1,0.5,0.2,1,0.3,1.5c0.1,0.5,0.2,1,0.3,1.5c0.1,0.5,0.2,1,0.3,1.5s0.3,1,0.4,1.5
			c0.3,1,0.5,1.9,0.8,2.9c0.2,0.9,0.6,1.8,0.8,2.6c0.3,0.8,0.5,1.6,0.8,2.4c0.5,1.4,1,2.6,1.3,3.5c0.3,0.8,0.6,1.3,0.6,1.3
			c-0.6-1.5-0.9-2.9-1.5-4.5c0.6,1.1,0.4,0.5,0.1-0.4c-0.3-0.9-0.6-1.9-0.3-1.6c0.2,0.5,0.5,1.2,0.7,1.8c0.2,0.7,0.4,1.2,0.5,1.7
			c0.3,0.3,0-1.1,0.3-1c-0.2-0.8-0.5-1.6-0.8-2.4c-0.2-0.6-0.5-1.2-0.8-1.7c-0.3-0.5-0.5-1-0.8-1.7c-0.3-0.8-0.5-1.6-0.7-2.4
			c0.3,0.1,0.8,1.2,0.1-1.3l0.2,0.6c-0.2-0.5-0.3-0.9-0.4-1.3s-0.1-0.7-0.2-0.9c-0.1-0.4-0.1-0.8-0.1-1.2c0-0.8-0.3-1.6-0.7-2.3h0.3
			c-0.3-0.9-0.5-2.3-0.8-3.7c-0.3-1.4-0.4-2.8-0.5-3.9l0.1,0.1c-0.1-0.7-0.2-1.3-0.2-1.8l-0.1-1.2c-0.1-0.7-0.1-1.1-0.1-1.6
			c0-0.4,0-0.9,0-1.7v-3c0,0.2,0,0.3,0,0.5c0,0.2,0,0.4,0.1,0.5c0.1,0.8,0.2,1.5,0.2,1.5c0.1-0.8,0-1.6-0.1-2.4
			c-0.1-0.6-0.1-1.3-0.1-2c0.1,0.1,0.3-0.2,0.3,1.3v-1.2c0-0.7-0.1-1.7,0-2.7s0-2,0-2.7v-1.3C19.7,90.9,19.4,93.2,19.2,93.4z"/>
		<path id="Trazado_96" class="st1" d="M21.6,83.6c0.1-0.4,0.2-0.9,0.4-1.4C21.8,82.7,21.6,83.2,21.6,83.6z"/>
		<path id="Trazado_97" class="st1" d="M25.7,138.8l-0.9-2.1C25.1,137.3,25.4,138,25.7,138.8z"/>
		<path id="Trazado_98" class="st1" d="M24.3,72.4c-0.7,1.2,0.2-1.1,0.1-1.3l-1,2.3c-0.2,0.6-0.4,1.2-0.6,1.6
			c-0.2,0.4-0.3,0.7-0.3,0.7s0.1,0.5,0.3,0.5c0,0,0.3-0.9,0.6-1.9c0.1-0.2,0.2-0.5,0.2-0.7c0.1-0.2,0.2-0.4,0.2-0.6
			C24.2,72.7,24.3,72.4,24.3,72.4z"/>
		<path id="Trazado_99" class="st1" d="M22,77.1c0,0.4-0.1,0.9-0.1,1.3l0.1-0.4c0.1-0.2,0.2-0.6,0.3-0.9l0.4-1.3
			C22.6,75.8,22.4,76.1,22,77.1z"/>
		<path id="Trazado_100" class="st1" d="M28.8,78.8l-0.1,0.4l-0.1,0.4l-0.2,1.2l0.2-1c0.1-0.3,0.1-0.5,0.2-0.7L28.8,78.8z"/>
		<path id="Trazado_101" class="st1" d="M25.2,91.1c0.2-0.6,0.3-1.2,0.4-1.8c0.1-0.7,0.2-1.3,0.2-1.6c-0.2,1.1-0.3,1.4-0.3,1.7
			c0,0.2-0.1,0.4-0.1,0.6c0,0.2,0,0.3-0.1,0.5C25.3,90.6,25.3,90.8,25.2,91.1z"/>
		<path id="Trazado_102" class="st1" d="M27.8,88.9l-0.3,2v-0.2L27.8,88.9z"/>
		<path id="Trazado_103" class="st1" d="M35.4,152.7c0.2,0.3,0.4,0.6,0.6,0.9C35.8,153.3,35.6,153,35.4,152.7z"/>
		<path id="Trazado_104" class="st1" d="M25.9,136.4c1.7,5-1.7-3-1.5-1.3l1.3,2.6l-0.2-0.2l0.8,1.6l0.8,1.6
			c-0.1-0.7-0.3-1.2-0.1-1.2c1,2.1,1.1,2.5,1.1,2.7s-0.1,0.4,0.6,1.9l1.3,2.3c0.2,0.3,0.3,0.6,0.5,0.8l0.4,0.7l0.4,0.7l-0.3-0.3
			c0.1,0.2,0.3,0.4,0.5,0.6l0.4,0.6l0.5,0.7l0.6,0.9c0.5,0.7,1,1.5,1.6,2.3s1.3,1.7,2,2.6c0.3,0.4,0.7,0.9,1,1.3l1,1.2l1,1.1
			l0.5,0.5l0.4,0.5l1.9,2c0.6,0.6,0.8,0.7,0.9,0.7c0.1,0-0.1-0.2-0.2-0.5c-0.3-0.5-0.6-1.1,0.3-0.3c-2.6-2.6-5.9-7-6.4-7
			c0.1,0.1,0.4,0.2,0-0.5l-1.7-1.5l1.2,1.7c-0.6-0.5-1.1-1.1-1.6-1.7c-0.6-0.8-1.3-1.7-1.8-2.6l-0.5-0.7c-0.2-0.2-0.3-0.4-0.4-0.7
			c-0.3-0.4-0.5-0.9-0.7-1.2c-0.3-0.5-0.6-1.1-0.9-1.6c0.6,0.9,1.3,1.7,2,2.5c0.9,1.1,1.7,2.3,2.5,3.6c0-0.3-0.4-1.2,0.3-0.2
			l-1.4-1.9l-0.7-1l-0.7-1c-0.8-1.3-1.7-2.6-2.4-4c-0.4-0.7-0.8-1.3-1.1-2s-0.7-1.4-1.1-2.1l-1.1-2.1
			C26.6,137.9,26.2,137.2,25.9,136.4z"/>
		<path id="Trazado_105" class="st1" d="M70.5,180.9L70.5,180.9C70.6,181,70.6,181,70.5,180.9z"/>
		<path id="Trazado_106" class="st1" d="M68.6,180l-1.5-0.4c-0.4-0.1-0.8-0.2-1-0.3l-0.5-0.2l0.7,0.3c0.4,0.2,1,0.5,1.5,0.7l2.2,1
			l0.2-0.1l0.2-0.1c-0.9-0.2-1.8-0.6-2.6-1.1L68.6,180z"/>
		<path id="Trazado_107" class="st1" d="M62.2,177.6c0.4,0.2,0.9,0.4,1.3,0.6c0.2,0.1,0.4,0.1,0.6,0.1c0.2-0.1-0.1-0.4-0.7-0.8
			c2.1,0.9,0.9,0.9,2.5,1.3c0.1-0.3-2.5-1.4-3.1-1.7L62.2,177.6z"/>
		<path id="Trazado_108" class="st1" d="M47,166.6l0.6,0.4l-0.6-0.6l-0.4-0.4l-0.2-0.2l0.3,0.4L47,166.6z"/>
		<path id="Trazado_109" class="st1" d="M47.7,166.9l1.3,1.2c0-0.2-0.1-0.4-0.2-0.6L47.7,166.9z"/>
		<path id="Trazado_110" class="st1" d="M52.5,171c0.6,0.5,1.2,0.9,2,1.5l-1-0.8l-0.7-0.5C52.6,171.2,52.5,171,52.5,171z"/>
		<path id="Trazado_111" class="st1" d="M50.9,169.7L50.9,169.7l1.5,1.3L50.9,169.7z"/>
		<path id="Trazado_112" class="st1" d="M49,168.1c0,0.3,0.1,0.5,0.3,0.8c0.5,0.6,1.2,1.1,1.8,1.6l-0.1-0.6l-1-0.8
			C49.5,168.5,49,168.1,49,168.1z"/>
		<path id="Trazado_113" class="st1" d="M26,103.5l0.2,1.8l0-0.2l-0.2-1.8L26,103.5z"/>
		<path id="Trazado_114" class="st1" d="M26.4,114c0.1,0.4,0.2,0.8,0.3,1.1C26.7,114.7,26.6,114.4,26.4,114z"/>
		<path id="Trazado_115" class="st1" d="M29.7,121.3c0.3,2.1-1.1-2.7-0.2,1.1c-0.1,0.2-0.3-0.1-0.6-0.7c-0.2-0.4-0.3-0.7-0.4-1.1
			c-0.1-0.4-0.2-0.9-0.3-1.3c0.3,0.1,0.5,1.7,0.5,0.6c-0.5-1.1-0.4-1.6-0.7-1.2c-0.7-2-0.9-2.2-1.3-3.6c0.1,0.6,0.2,1.4,0.4,2.3
			c0.2,0.9,0.4,1.8,0.6,2.9c0.1,0.2,0.1,0.5,0.2,0.8c0.1,0.2,0.1,0.5,0.2,0.8c0.1,0.5,0.3,1,0.4,1.5c0.1,0.5,0.3,0.9,0.4,1.4
			c0.1,0.4,0.3,0.8,0.5,1.2c0.9,1.6,1.2,0.4,1.8,0.2c0-0.3-0.1-0.6-0.2-0.8c-0.1-0.4-0.3-1-0.4-1.6C30.5,122.8,30.1,122,29.7,121.3z
			"/>
		<path id="Trazado_116" class="st1" d="M29.6,118c-0.2-0.9-0.3-1.2-0.4-1.8c-0.1,0.1,0,0.4,0.1,0.7C29.3,117.2,29.5,117.6,29.6,118
			z"/>
		<path id="Trazado_117" class="st1" d="M32.9,141.1c0.2,0.1,1.2,1.7,1.1,1.3l-0.7-1.2c-0.4-0.6-0.7-1.2-0.7-1.2
			c0.1,0.2,0.2,0.5,0.2,0.7C32.9,140.8,32.9,140.9,32.9,141.1z"/>
		<path id="Trazado_118" class="st1" d="M32,138.8l0.6,1.1C32.4,139.6,32.3,139.3,32,138.8z"/>
		<path id="Trazado_119" class="st1" d="M32.9,141.2v-0.1C32.9,141,32.8,141,32.9,141.2z"/>
		<path id="Trazado_120" class="st1" d="M58.4,175.3c-0.1,0.1,1,0.8,1.7,1l-0.8-0.5C58.9,175.6,58.7,175.4,58.4,175.3z"/>
		<path id="Trazado_121" class="st1" d="M106,187.7h1.2C106.8,187.6,106.4,187.6,106,187.7z"/>
		<path id="Trazado_122" class="st1" d="M122.6,180.7c0.1-0.1,0.1-0.1,0.2-0.1C122.8,180.6,122.7,180.7,122.6,180.7z"/>
		<path id="Trazado_123" class="st1" d="M122.8,180.6c0.6-0.2,1.2-0.4,1.8-0.5c0.6-0.1,1.3-0.4,1.8-0.6l-0.1,0.1l1.4-0.6l-2.7,0.9
			C124.3,180,123.6,180.3,122.8,180.6z"/>
		<path id="Trazado_124" class="st1" d="M125.2,182.7c0.4,0,0.8-0.2,1.1-0.5l-1.4,0.3l-1.4,0.3l-1.6,0.3c-1.1,0.2-2.2,0.4-3.1,0.5
			l-1.4,0.2c0.3,0.1,2.9-0.1,1.2,0.3c0.6,0,1.3-0.1,1.9-0.2c0.5-0.1,1-0.3,1.5-0.5l-0.6,0.3c0.8-0.3,1.6-0.4,2.4-0.4
			c0.5,0,0.5,0.2-0.1,0.4h0.2l2.7-1.2c0.6-0.3,1.2-0.6,1.8-0.9l0.8-0.4c-0.6,0.1-1.3,0.4-1.8,0.7
			C126.7,182.3,125.9,182.6,125.2,182.7z"/>
		<path id="Trazado_125" class="st1" d="M130.4,180.7c0,0,0.4-0.2,0.8-0.4l0.8-0.4C131.3,180.1,130.8,180.5,130.4,180.7z"/>
		<path id="Trazado_126" class="st1" d="M163.9,158.5c0.1-0.1,0.2-0.3,0.4-0.4C164.1,158.2,164,158.4,163.9,158.5z"/>
		<path id="Trazado_127" class="st1" d="M129.8,181.1c0-0.1,0.2-0.3,0.5-0.5l-1.2,0.6C129.3,181.2,129.6,181.2,129.8,181.1z"/>
		<path id="Trazado_128" class="st1" d="M127.1,182.9l-3.3,0.8l-0.2,0.1l-0.4,0.2l-0.6,0.2l1-0.2c0.3-0.1,0.7-0.2,1.1-0.3
			L127.1,182.9z"/>
		<path id="Trazado_129" class="st1" d="M159.9,162c2.5-2.4,2.3-2,1.7-1.3c-0.5,0.7-1.4,1.8-0.2,0.7c0.3-0.3,0.6-0.6,0.8-0.9
			c0.2-0.3,0.4-0.5,0.6-0.8c0.3-0.5,0.6-0.9,1-1.3c-1.8,2-1.8,1.8-1.8,1.5c0-0.3,0-0.5-2,1.4c0.1-0.3,0.3-0.6,0.5-0.9
			c0.3-0.3,0.6-0.7,1-1.1c0.7-0.8,1.5-1.6,2.3-2.3c0.9-0.6,0.6-0.2,0.2,0.4c-0.5,0.5-0.9,1.2-1.2,1.8c0.4-0.4,0.8-0.9,1.2-1.4
			c0.2-0.3,0.2-0.4,0.4-0.8c1.1-1.3,2.2-2.6,3.2-4c0.5-0.6,0.9-1.2,1.4-1.8c0.4-0.5,0.8-0.9,1.3-1.3c0.5-0.6,0.8-1.3,1.1-2
			c0.2-0.4,0.2-0.8,0.5-1.4c-0.1-0.2-0.7,0.5-1.3,1.4c-0.5,0.8-1.1,1.5-1.8,2.1c0.1-0.1,0.4-0.4,0.4-0.3l-0.7,0.8
			c-0.3,0.4-0.7,0.8-0.7,0.8c0.3-0.4,0.5-0.5,0.6-0.5c0.1,0,0,0.1,0,0.3c-0.3,0.5-0.6,1.1-1,1.6c-0.5,0.6-1.4,1.8-1.4,1.6
			c0,0,0.2-0.2,0.3-0.5l0.3-0.5c-0.3,0.3-0.5,0.6-0.8,0.9c-0.3,0.3-0.5,0.7-0.8,1c-0.5,0.7-1,1.3-1.7,1.9c-0.1,0,0.3-0.5,0.3-0.6
			c-0.5,0.8-1.1,1.5-1.7,2.2l-0.5,0.6l-0.3,0.3l-0.3,0.3c-0.4,0.4-0.8,0.9-1.3,1.4l0.8-1.4c-0.9,1.3-2,2.4-3.3,3.4
			c-1.4,1.2-3,2.3-4.6,3.3c0.3-0.2,0.9-0.5,0.6-0.2c-0.3,0.3-0.7,0.6-1.1,0.8c-0.3,0.2-0.6,0.3-0.9,0.5c-0.5,0.2-0.7,0.2-0.4-0.2
			c-0.5,0.5-1,0.9-1.6,1.2c-0.7,0.4-1.5,0.9-2.4,1.4c-0.4,0.3-0.8,0.5-1.3,0.7c-0.4,0.2-0.8,0.5-1.2,0.7c-0.4,0.2-0.8,0.4-1.1,0.7
			c-0.3,0.2-0.6,0.4-0.9,0.6l-1.5,1.2c-0.5,0.4-1,0.8-1.6,1.2l-1.9,1.3c-0.7,0.4-1.3,0.8-1.9,1.2c-0.6,0.4-1.2,0.8-1.7,1.1l-1.7,1
			c0.4-0.2,0.9-0.4,1.4-0.6c0.4,0,0.8,0,1.1,0c0,0,0,0.1-0.2,0.2c-0.2,0.1-0.5,0.3-0.9,0.5c0.3-0.1,0.6-0.3,0.9-0.5
			c0.2-0.1,0.4-0.3,0.5-0.4c0.7-0.5,1.4-0.8,2.2-1.1c-0.5,0.3-0.8,0.6-0.6,0.7c0.2,0.1,0.4,0.1,0.6,0c0.5-0.1,1-0.3,1.5-0.5
			c0.8-0.4,1.5-0.8,2.3-1.2l0.5-0.3l0.5-0.3l1-0.6c0.6-0.4,1.3-0.8,1.8-1.3l1.7-1.3l0.9-0.7c0.3-0.2,0.5-0.5,0.8-0.7
			c0.5-0.5,1.1-0.9,1.7-1.4s1.1-1,1.7-1.5c0.6-0.5,1.2-1,1.8-1.5c0.9-0.4,1.8-1,2.6-1.7c0.3-0.2,0.6-0.5,1-0.8l1-0.8
			c0.3-0.3,0.6-0.5,0.9-0.8l0.4-0.3l0.4-0.3c-0.3,0.6-0.8,1.1-1.3,1.6l-0.9,0.9c-0.3,0.3-0.7,0.6-1.1,0.9l0.4-0.3l0.4-0.3l0.9-0.8
			l1-0.8l0.5-0.4l0.4-0.4L159.9,162z"/>
		<path id="Trazado_130" class="st1" d="M147.7,172.5l0.5-0.2C148,172.4,147.8,172.4,147.7,172.5z"/>
		<path id="Trazado_131" class="st1" d="M155.8,166.4L155.8,166.4l0.5-0.3L155.8,166.4z"/>
		<path id="Trazado_132" class="st1" d="M131.6,181.3c-0.2,0.1-0.4,0.2-0.5,0.3l-0.5,0.3c0.2-0.1,0.6-0.2,0.8-0.3
			C131.7,181.4,131.8,181.3,131.6,181.3z"/>
		<path id="Trazado_133" class="st1" d="M130.1,181.2l0.2-0.2l-0.5,0.1C129.8,181.2,129.9,181.3,130.1,181.2z"/>
		<path id="Trazado_134" class="st1" d="M165.7,156.9c-0.8,0.9-0.7,1.1-0.8,1.3s-0.2,0.5-1.4,1.8l0.7-0.7c-0.4,0.5-0.9,1-1.4,1.6
			c-0.6,0.6-1.2,1.2-1.8,1.8l-1,0.9c-0.3,0.3-0.7,0.6-1,0.9l-1.8,1.6c0.1-0.2-0.3,0.1-0.7,0.3c-0.4,0.2-0.8,0.4-0.8,0.2
			c-0.8,0.6-1.5,1.3-2.2,1.8c-0.6,0.4-1.1,0.9-1.6,1.5c-1.1,0.7-2.5,1.8-3.9,2.6c0.7-0.2-1.6,1.7,1.5-0.5c-0.2,0.2-0.1,0.1-0.3,0.3
			c2.3-1.1,2.8-2.1,4.6-3.3c1.2-0.6-1.5,1.4-0.5,0.8c0.3-0.2,0.6-0.4,0.9-0.7l1-0.8c0.7-0.6,1.5-1.1,2.2-1.7c1.3-1.1,2.3-2.1,2-2.3
			c0.4-0.3,0.6-0.6,0.9-0.8c0.2-0.2,0.4-0.3,0.6-0.5c0.2-0.2,0.5-0.3,0.8-0.5c0.2-0.4,0.5-0.7,0.8-1c0.3-0.4,0.7-0.8,1.1-1.3
			c0.4-0.4,0.9-0.9,1.3-1.3l0.3-0.3l0.3-0.3l0.6-0.7c1.7-1.8,2.9-3.4,2.6-3.7l-1.3,1.7c-0.5,0.6-1,1.3-1.5,2L165.7,156.9z"/>
		<path id="Trazado_135" class="st1" d="M135.5,179.9c0.1-0.1,0.3-0.1,0.5-0.2L135.5,179.9z"/>
		<path id="Trazado_136" class="st1" d="M133,178c0,0,0.1,0,0.1-0.1L133,178z M133.6,177.5c-0.6,0.2-1.1,0.4-1.7,0.6
			c0.5-0.3,0-0.2-0.7,0c-0.4,0.1-0.8,0.2-1.2,0.3s-0.8,0.2-1,0.3c-0.6,0.2-1.3,0.5-2.2,0.8s-1.8,0.5-2.8,0.7c-1,0.2-2,0.4-3,0.6
			l-1.5,0.3c-0.5,0.1-0.9,0.1-1.4,0.2c0.3-0.1,0.9-0.2,0.5-0.2c-1.2,0.2-2.3,0.3-3.2,0.4l-2.7,0.2l-0.7,0.1h-2.2
			c-0.5,0-1.1,0.1-1.7,0.1h-2l-0.7,0.4l0,0l-0.3,0.2c0.7,0.1,1.4,0.1,2.2,0c-0.2,0.1-0.5,0.3,0.9,0.3c1.1,0,2.3,0,3.4-0.2
			c0.5-0.1,0.9-0.2,1.4-0.2c0.5-0.1,0.9-0.1,1.4-0.2l-0.6,0.1c1.9,0,3.8-0.3,5.6-0.8c1.6,0.3-5.3,0.8-2.4,0.9
			c-1,0.1-2.3,0.2-3.5,0.4c-0.6,0.1-1.2,0.2-1.7,0.2c-0.5,0-1,0.1-1.4,0.1c0.7,0,1.3,0.1,1.9,0.1c0.5,0,1,0,1.5,0.1
			c0.8,0.1,1.2,0.3,0.9,0.4c0.8-0.1,1.7-0.3,2.5-0.6c0.3-0.2,0.3-0.3,0.2-0.4s-0.3-0.4,2.1-0.9l3.4-0.5l0.2-0.1l0.4-0.3l0.5-0.4
			c2-0.5-1.1,0.7,1.9,0c0.2-0.1,0.5-0.2,0.8-0.3c0.3-0.1,0.7-0.2,1-0.3c0.5-0.1,1.1-0.3,1.6-0.5c0,0.1,0,0.1,0.1,0.1
			c0.2,0,0.3,0,0.5-0.1l0.4-0.1l0.5-0.2c0.1-0.1-0.1-0.2,1.1-0.6c0.5,0.1-0.3,0.4-1,0.7c-0.7,0.3-1.4,0.4-0.5,0.5
			c3.5-1.2,2.1-1.2,2.5-1.6c-0.1,0.1-0.3,0.1-0.6,0.2C132.3,178,133.8,177.7,133.6,177.5L133.6,177.5z M109,182.3h-0.9
			c0.6-0.1,1.2-0.1,1.8,0H109z"/>
		<path id="Trazado_137" class="st1" d="M120.2,184.6c-0.1-0.1-2.9,0.1-2.9,0.3l2.5-0.2h0.2L120.2,184.6z"/>
		<path id="Trazado_138" class="st1" d="M144.1,175.4l0.4-0.2l0.4-0.2l1-0.7l-0.9,0.5c-0.2,0.1-0.4,0.3-0.6,0.4L144.1,175.4z"/>
		<path id="Trazado_139" class="st1" d="M155.3,169.1c-0.5,0.3-1.1,0.6-1.6,1c-0.5,0.4-1,0.8-1.3,1c0.9-0.6,1.1-0.8,1.4-0.9
			c0.2-0.1,0.3-0.2,0.5-0.3l0.4-0.3C154.9,169.4,155.1,169.2,155.3,169.1z"/>
		<path id="Trazado_140" class="st1" d="M151.9,168.8l1.6-1.2l-0.1,0h-0.1L151.9,168.8z"/>
		<path id="Trazado_141" class="st1" d="M163.3,159.7l1.2-1.4l-0.2,0.1l-1.2,1.4L163.3,159.7z"/>
		<path id="Trazado_142" class="st1" d="M170.4,151.8c0.2-0.4,0.4-0.7,0.5-1C170.7,151.1,170.5,151.4,170.4,151.8z"/>
		<path id="Trazado_143" class="st1" d="M173.1,144.3c1.3-1.7-1.1,2.7,0.9-0.6c0.2-0.1,0.1,0.3-0.1,0.9c-0.1,0.4-0.3,0.7-0.5,1
			c-0.2,0.4-0.5,0.8-0.8,1.2c-0.1-0.3,0.9-1.6,0-0.8c-0.4,1.2-0.8,1.5-0.3,1.3c-0.9,1.9-0.9,2.2-1.5,3.5c0.3-0.5,0.8-1.2,1.3-1.9
			l1.6-2.5l0.4-0.6c0.1-0.2,0.2-0.5,0.4-0.7c0.3-0.4,0.5-0.9,0.7-1.3s0.4-0.9,0.6-1.3c0.2-0.4,0.3-0.8,0.5-1.2
			c0.4-1.8-0.6-1.1-1.1-1.4c-0.2,0.2-0.3,0.5-0.5,0.7c-0.2,0.4-0.5,0.9-0.8,1.4C173.5,143,173,144.1,173.1,144.3z"/>
		<path id="Trazado_144" class="st1" d="M170.8,146.8c-0.5,0.8-0.7,1.1-1,1.6c0.1,0,0.3-0.2,0.5-0.5
			C170.5,147.5,170.6,147.1,170.8,146.8z"/>
		<path id="Trazado_145" class="st1" d="M91.5,188.1"/>
		<path id="Trazado_146" class="st1" d="M93.6,182.2l-0.5-0.1l-0.4-0.1l-0.6-0.1l0,0l-0.6-0.1l0.9-0.6l0.4,0.1
			c0.4,0.1,0.9,0.1,1.4,0.1c-0.5,0-0.9,0-1.4,0l0,0c0.3,0.1,0.5,0.2,0.8,0.2c1.8,0.3,1.6,0,2.8,0.1C94.9,181.7,95.2,182,93.6,182.2z
			"/>
		<path id="Trazado_147" class="st1" d="M95.5,182.8l0.7,0.1l-0.1,0.1C95.5,182.9,93.9,182.7,95.5,182.8z"/>
		<path id="Trazado_148" class="st1" d="M96,183.1l0.1-0.1C96.4,183.1,96.5,183.1,96,183.1z"/>
		<path id="Trazado_149" class="st1" d="M99.7,185.9l-1.5-0.2l0.5-0.2C99.2,185.5,99.5,185.6,99.7,185.9z"/>
		<path id="Trazado_150" class="st1" d="M96.3,182.9l0.6,0.1c0.1,0,0.3,0,0.4,0c0.7-0.1,1.4-0.1,2,0l-0.5,0.1c1,0.2,2,0.3,3,0.2
			c0.1,0,0.2,0,0.3,0L96.3,182.9z"/>
		<path id="Trazado_151" class="st1" d="M100.9,184.5l1.4-0.7l0.4,1.3l-0.6,0c-0.7,0-1.3-0.1-2-0.2l0.2-0.1
			C100.4,184.7,100.6,184.7,100.9,184.5z"/>
		<path id="Trazado_152" class="st1" d="M102.2,185.8h0.7l0.1,0.2C102.7,186,102.4,185.9,102.2,185.8z"/>
		<path id="Trazado_153" class="st1" d="M72.4,59.2c-0.1-2.7-0.3-4.9-0.3-6.5c-0.1-1.6-0.2-3.7-0.3-6.3l4-1.1l1.1,22.3l-4,1.1
			L62.4,49l4-1.1c1.2,2.3,2.2,4.2,3,5.6C70.1,54.9,71.1,56.8,72.4,59.2z"/>
		<path id="Trazado_154" class="st1" d="M87.5,65.5l-4,0.6l-1.5-9.9l-0.9-0.6l0.7-0.9l-1.6-10l4-0.6l1.6,10l0.9,0.7L86,55.5
			L87.5,65.5z"/>
		<path id="Trazado_155" class="st1" d="M100.7,46.8l-4,0.2L97,53l0.9,0.8l-0.8,0.8l0.5,10.1l-4,0.2l-0.5-10.1l-0.9-0.7l0.8-0.8
			l-0.3-6.1l-4,0.2l-0.2-4l12-0.6L100.7,46.8z"/>
		<path id="Trazado_156" class="st1" d="M113.9,65.5l-10.5-0.9l0.8-10.1l-0.8-0.8l0.9-0.7l0.8-10.1l10.4,0.9l-0.3,4l-6.4-0.5
			l-0.3,4.9l5.5,0.5l-0.3,4l-5.5-0.5l-0.4,4.8l6.4,0.5L113.9,65.5z"/>
		<path id="Trazado_157" class="st1" d="M128.5,68.4l-4.2-0.9l-1.5-9.4l-1.2-0.3l-1.8,8.7l-3.9-0.9l4.6-21.3l9.4,2l2,2.7l-1.7,7.8
			l-3.2,1.9L128.5,68.4z M118,55.8l-0.6-0.9l1-0.6L118,55.8z M122.5,53.9l4.1,0.9l1-4.7l-4.1-0.9L122.5,53.9z"/>
		<path id="Trazado_158" class="st1" d="M134.3,70.3l-3.8-1.2l3-9.6l-0.6-1l1-0.5l3-9.6l3.8,1.2l-3,9.6l0.5,1l-1,0.5L134.3,70.3z"/>
		<path id="Trazado_159" class="st1" d="M157.3,66.5l0.8,4.8l-4.3-2.3l-4.3,2.3l0.8-4.8l-3.5-3.4l4.8-0.7l2.2-4.4l2.2,4.4l4.8,0.7
			L157.3,66.5z"/>
		<path id="Trazado_160" class="st1" d="M162.8,62.7l-6.2-0.9l-2.7-5.6l-2.7,5.6l-6.2,0.9l4.5,4.3l-1.1,6.1l5.5-2.9l5.5,2.9
			l-1.1-6.1L162.8,62.7z M158.7,72.1l-4.8-2.5l-4.9,2.5l0.9-5.4l-3.9-3.8l5.4-0.8l2.4-4.9l2.4,4.9l5.4,0.8l-3.9,3.8L158.7,72.1z"/>
		<path id="Trazado_161" class="st1" d="M157.3,66.5l0.8,4.8l-4.3-2.3l-4.3,2.3l0.8-4.8l-3.5-3.4l4.8-0.7l2.2-4.4l2.2,4.4l4.8,0.7
			L157.3,66.5z"/>
		<path id="Trazado_162" class="st1" d="M157.3,66.5l0.8,4.8l-4.3-2.3l-4.3,2.3l0.8-4.8l-3.5-3.4l4.8-0.7l2.2-4.4l2.2,4.4l4.8,0.7
			L157.3,66.5z"/>
		<path id="Trazado_163" class="st1" d="M55.8,66.5l0.8,4.8L52.4,69l-4.3,2.3l0.8-4.8l-3.5-3.4l4.8-0.7l2.2-4.4l2.2,4.4l4.8,0.7
			L55.8,66.5z"/>
		<path id="Trazado_164" class="st1" d="M61.3,62.7l-6.2-0.9l-2.7-5.6l-2.7,5.6l-6.2,0.9l4.5,4.3l-1.1,6.1l5.5-2.9l5.5,2.9L56.8,67
			L61.3,62.7z M57.2,72.1l-4.9-2.5l-4.8,2.5l0.9-5.4l-3.9-3.8l5.4-0.8l2.4-4.9l2.4,4.9l5.4,0.8l-3.9,3.8L57.2,72.1z"/>
		<path id="Trazado_165" class="st1" d="M55.8,66.5l0.8,4.8L52.4,69l-4.3,2.3l0.8-4.8l-3.5-3.4l4.8-0.7l2.2-4.4l2.2,4.4l4.8,0.7
			L55.8,66.5z"/>
		<path id="Trazado_166" class="st1" d="M55.8,66.5l0.8,4.8L52.4,69l-4.3,2.3l0.8-4.8l-3.5-3.4l4.8-0.7l2.2-4.4l2.2,4.4l4.8,0.7
			L55.8,66.5z"/>
		<path id="Trazado_167" class="st2" d="M112.9,172.1c-4.6,1-7.3-4.6-4.9-8.2c1.4-2,3.9-2.1,6.8-2.3c3.4-0.2,6.9,2.4,7.1,5.9
			c-0.7-2.9-4.5-6.2-7.6-4.7c-0.1,0.1-0.6,0.5-0.6,0.5c-0.5,0-1.4-1.3-2.1-0.5c-0.3,0.2,0,1-0.1,1.4c-1.2,0.6-3.4,2.7-1,3.6
			c-2,0.5-0.7,4.1,1.4,2.6c-0.3,0.6-0.1,1.3,0.4,1.6C112.5,172.1,112.7,172.1,112.9,172.1z"/>
		<path id="Trazado_168" class="st2" d="M118.1,171.9c1.2-0.5,2.7-0.8,3.1-2c0.5,2.7,2.3-0.4,3.3-0.9c1-0.5,2-0.1,2.4-0.8
			c0.4-0.7,0-1.4,0.1-2.2s1.1-1.4,0.9-2.2C129.1,168.9,123.9,171.9,118.1,171.9z"/>
		<path id="Trazado_169" class="st2" d="M99.2,168.1c0.3-0.2,0.9-0.3,1.2-0.6c0.1-0.4,0.1-0.8,0-1.2c2.1,1.3,3.4-2,1.4-2.6
			c2.2-1.2,0-3-1.2-3.7v-1.4c-0.7-0.6-1.6,0.1-2.2,0.4c-0.2-0.4-0.7-0.4-1-0.6c-4,0-6.4,1.7-7,5c-0.3-2.6,2.2-5,4.5-5.8
			c1.5-0.5,4.1-0.2,5.6,0C106.2,158.3,106.8,168.6,99.2,168.1z"/>
		<path id="Trazado_170" class="st2" d="M93.7,167.5c-5.3-0.1-10.2-1.8-9.7-8.1c-0.3,0.8,0.8,1.1,1,2.1c0.2,0.9-0.4,2.2,0.5,2.8
			c0.5,0.4,1.5,0.2,2.2,0.5c1.2,0.6,2.4,3.4,3.1,0.9C91.4,166.7,92.5,167.4,93.7,167.5z"/>
		<path id="Trazado_171" class="st2" d="M90.6,159.1c-4.3,0.2-7.2-3.9-6-8.5c0,1.9-0.3,4.1,1.5,4.9C86.3,158,88.2,158.8,90.6,159.1z
			"/>
		<path id="Trazado_172" class="st2" d="M119.3,152.4c-0.2,0.3-0.1-0.8-0.1-1C119.4,151,119.3,152.1,119.3,152.4z"/>
		<path id="Trazado_173" class="st2" d="M120.6,151.8c-0.3,0.1-0.1-1.4-0.1-1.9C120.7,149.8,120.5,151.2,120.6,151.8z"/>
		<path id="Trazado_174" class="st2" d="M119.3,150.2c-0.2,0.3-0.1-0.8-0.1-1.2C119.4,148.8,119.2,149.9,119.3,150.2z"/>
		<path id="Trazado_175" class="st2" d="M91.6,147.3c-0.3,0.2-0.1-1.2-0.1-1.7C91.7,145.4,91.5,146.8,91.6,147.3z"/>
		<path id="Trazado_176" class="st2" d="M106,148.3c-1,2.3-0.7,4.7-1,7.3c-0.1,1-0.8,1.9-0.6,2.7c0.1,0.8,1.1,1.5,1.4,2.2
			c0.9,2.3,0.2,5.8-1.4,7.2c-2.5,2.1-8.7,1.4-13.3,0.8c-4.6-0.6-9.5-3.9-7.9-9.9c0.2-0.8,1.1-1.5,1.1-2.2c0.1-0.9-1-2.2-1-3.7
			c0-2.5,1.7-4.2,2.8-6.5c1.3-2.7,1.5-5.3,3.6-6.8c0.8-3,0.7-6.5,1.4-10.1c0.2-0.9,0.7-2.3,1.2-2.6c0.7-0.4,3,0,4.1,0.1
			c1.2,0.2,2.4,0.5,3.6,0.9c3.1,0.7,5.8,0.5,8.3,1.4c0.5,0.9-0.1,2.1-0.1,3.3c4.1-0.3,7.6-2,12-1.5c1.4,2.6,1.4,5.8,1.9,9.3
			c0,1.1,0.2,2.2,0.5,3.2c0.3,0.6,1.1,1,1.5,1.7c0.7,1.2,1.3,3.3,2.2,5.3c1.6,3.3,4,6.1,1.7,10.1c0.5,1.4,1.1,1.6,1.3,2.7
			c0.4,2.2-0.2,4.5-1.5,6.3c-2.6,3.2-7.7,3.3-12.7,3.6c-2.5,0.1-5.2,0.2-6.8-0.9c-1.8-1.2-2.6-4.6-1.9-7c0.3-0.9,1.4-1.6,1.5-2.6
			c0.1-0.8-0.5-1.8-0.6-2.8c-0.1-1.1,0.1-2.2,0-3.1c-0.2-1.3-0.8-2.4-0.9-3.6c0-0.5,0.3-1.1,0.3-1.5
			C106.4,150.7,105.6,149.6,106,148.3z M122,165.4c0.3,0.4,0.7,2,0.1,2.4c0.3-3.4-3-6.2-6.3-6.4c-0.8-0.1-1.6,0.2-2.4,0.2
			c-0.8-0.1-1.5-0.1-2.3-0.1c-2.3,0.3-4.2,2.7-4.4,5c-0.5,5.3,3.2,6.1,8.3,5.9c6.4-0.3,12.7-0.9,13.3-6.8c0.1-1,0.2-3.1-0.6-3.3
			c-0.2,0-0.2,0.2-0.5,0.1c0.2,1.6-1.4,1.5-1.3,3.1c-0.4,0.6-1.3,0.6-2.2,0.8c-0.3,0.9-0.4,2-1.4,2.2c0.9-0.5,0.3-2.4,0.1-2.8
			c2.5,0.5,3.9-1.8,3.9-4c-0.1,0.3-0.1,0.9-0.4,1c0-0.1,0-0.2,0.1-0.2c-0.3-0.4-1,0.9-1.7,0.9c-0.2,0.2-0.2,0.5-0.5,0.6
			c-0.9,0.1-1.3,0.8-2.2,0.9c0.1,0.2,1,0.4,0.8,0.5C122.3,165.6,122.1,165,122,165.4L122,165.4z M89.8,164.3c-1-0.2-1.2-1.3-1.5-2.2
			c-2.2,0.1-2.1-2-3.3-2.8v-1c-0.3-0.1-0.7-0.2-1-0.1c-2,8,5.2,9.7,12.6,10c1.5,0.1,3,0.1,4.5,0c7-0.8,4.9-12.6-2.4-10.6
			c-4.7-0.8-8.3,1.6-8.7,6c-0.5-0.8,0.2-2.1,0.1-2.6c-2,1-3.7-1.1-3.7-2.4c0.3,1.6,2.4,3.5,4.1,2.1c-1,0-1.1-0.8-2.2-0.8
			c-0.2-0.3-0.3-0.5-0.5-0.8c-0.7,0-1.3-1.3-1.7-0.9c0.1,0,0.1,0.1,0.1,0.3c-0.4-0.1-0.1-0.9-0.5-0.9c0.3,2.3,1.4,4,4,4.1
			C89,162.5,89.1,163.6,89.8,164.3z M118.4,161c0.1-1.2-0.1,0.3,0.4,0.3c-0.6-3.4,1.8-5.4,2.1-9c0.2-3.1,0.4-5.6,2.1-7.2
			c0.8,1.5,1.2,3.5,2,5c-0.6-0.5-0.9-1.4-1.9-1.4c-1.3,0.9,0,2.5-0.1,3.5c-0.2,1.3-1.6,1.2-2.1,2.3c-0.1,1.5,0.5,2.5,0.1,3.8
			c-0.9,0.6-2.5,1.1-1.9,2.8c1,0.3,1.7,1.2,1.7,2.3c4.1,1.2,7.9-3.2,7.4-7.2c-0.2-1.8-1.8-4-2.7-5.9c-1-2.2-1.6-4.7-2.9-5.6
			c-0.4,0.8-0.8,1.6-1.3,2.3c0.4-1.1,0.9-1.7,1.2-2.4c-0.3-0.6-1.1-0.4-1.4-0.3c-2.5,0.9-3.3,7.1-1.9,9.7c0.6,0.2,0.2-1.1,0.6-0.4
			c0.3-0.3,0-1.1,0.3-1.4C120.3,155.5,117.6,157.4,118.4,161L118.4,161z M108.3,157.7c-0.1-2.2-1.5-4.3-0.8-6.3
			c-0.7-1.8-0.9-3.8-0.8-5.8c-0.8-0.6-0.4-1.8-0.5-2.9c-0.2-2.7-1.2-5.6-1.5-8.1c0,3.2,1.5,6.7,1.3,10.1c0.2,0.4,0.4,0.8,0.6,1.2
			c-0.1,1.7-0.1,4.2,0.6,5.5c-0.8,2,0.4,3.5,0.6,5.5c0.2,2.3-0.1,3.9,0.6,5.3C108.3,160.6,108.3,159.2,108.3,157.7L108.3,157.7z
			 M109,134.3c-1.1-0.2-2.8-0.2-3.5,0.4c0.2,0.3,1-0.1,1.2,0.3c-0.4,0-0.6,0.3-0.8,0.5c0.5,0.7,1.2,1.2,0.8,2.6
			c0.3,0.5,1,0.6,1.3,1.2c-0.3,0.3-1,0.9-0.8,1.7c0.4,1.2,1,1.6,0.8,2.7c-0.2,0.8-0.1,1.5,0.6,1.9c-0.8,0.7-0.8,2-0.1,2.8
			c0,0,0,0,0.1,0.1c-0.9,0.8,0,2.5,0.4,3.2c-1.7,1.3,0.9,3,0,5.3c0.3,0.7,1.1,0.8,1.7,1.3c-0.8,0.6-2.2,2-0.8,2.9
			c2.5-0.5,4.2-1.7,7.2-1.8c0.3-1.6,0.9-3.2,1.7-4.6c-0.7-2.2-0.8-4.6-0.5-6.9c0.3-2.1,2.2-3.6,2.2-4.6c-0.1-1-1.3-1.1-1.5-1.8
			c1.8-2.2-0.3-4.2-1.2-6c0.3-0.8,1.5-0.6,1.5-1.4c0.1-2-5.8-1.1-6.8-0.1c0.2,0.3,0.8,0.3,0.8,0.9c-0.4,0.3-0.8,0.5-1.3,0.5
			c0.2,0.7,0.4,1.4,0.5,2c0.6,0.4,1-0.5,1.4,0.1c-0.3,0.7-0.9,1.4-0.9,2.1c0.7,0.4,1.5,0.8,1.5,1.8c-0.4,0.3-0.5,0.1-1.2,0.1
			c0,0.7,0.2,1.2,0.3,1.9c0.2,0,0.8-0.3,0.9,0c0,0.8-0.6,1-0.6,1.8c1.3,0.2,1,1.5,1.3,1.9c-0.3-0.2-0.8,0.4-1-0.3
			c-0.1,0.6,0,1.2,0.1,1.8c0.2,0.4,1.2,0,1.2,0.6c0.2,0.7-0.6,0.4-0.6,0.8c1.8,2.2,1.1,7.1-2.3,6.3c-1.8-0.4-1.7-3.3-1.4-5.6
			c-0.2-0.1-0.9,0.1-0.9-0.5c0.1-0.6,0.7-0.7,1.2-1c0-0.6,0-1.3,0.1-1.9c-0.2,0.2-0.9,0.7-1.2,0.1c0.2-0.9,1.2-1.2,1-2.6
			c-0.2-0.5-0.8-0.6-1-1.2c0.1-0.3,0.8-0.1,0.8-0.5c0-0.5-0.2-1-0.4-1.5c-0.1,0.2-0.4,0.3-0.6,0.2c-0.1,0-0.1-0.1-0.2-0.2
			c0.8-1.1,0.6-2.7-0.5-3.6c0-0.4,0.7-0.2,0.6-0.6c-0.1-0.6-0.2-1.3-0.3-1.9c-0.5-0.1-0.5,0.4-1.2,0.3c0.2-0.3-0.3-0.6,0-0.6
			C108.8,135.2,108.8,134.4,109,134.3L109,134.3z M111.2,150.7c-0.2,1.9-0.2,4.1,0.9,5c3.9,1.1,4.2-3.8,2.6-5.9
			c-0.3,0.1-0.7,0.2-1,0.1c0.5,1.5,2.5,5.3-0.8,5.3c-1.2-0.8-1-3.7-0.5-5.1C111.9,150.3,111.4,150.3,111.2,150.7z M113.4,150
			c-1.3,0.7-1.4,4.9,0.8,4.7C115.1,153.2,113.8,151.3,113.4,150z M111.1,150.4c0.8-0.7,3-0.2,3.7-1c-0.5,0,0-0.1,0-0.3
			c-0.9-0.3-3.3,0-4,0.8C111.1,149.9,110.9,150.3,111.1,150.4z M114.7,146.3c-0.1-1-1.2-1-1.8-1.4c-0.6-0.4-0.9-1.4-1.8-1.3
			c-0.1,0-0.2,0.1-0.2,0.3C111.9,144.8,112.8,146.6,114.7,146.3L114.7,146.3z M113.4,160.7c1.3-0.3,2.6-0.4,4-0.4
			c0.2-0.2,0.1-0.6,0.1-1c-1.5,0.3-4,0.4-5.3,1.3C112.6,160.7,114,160.3,113.4,160.7L113.4,160.7z M89.6,140.5
			c-1.2,0.8-1.7,3.1-2.7,5.3c-0.8,1.9-2.2,3.7-2.7,5.3c-1.4,4.1,3,9.9,7.3,8.1c-0.1-1.3,0.8-1.8,1.7-2.2c0.6-2-1.6-2-2-2.9
			s0.6-2.4,0.1-3.7c-0.3-1-1.9-1.5-2-2.4c-0.1-1,1.3-2.7-0.4-3.3c-0.7,0.2-1.2,1.2-1.7,1.3c1-1.3,1.1-3.5,2.2-4.7
			c1.5,1.3,1.7,4.2,1.9,6.9c0.3,3.8,2.7,6,2.1,9.1c0.5-0.1,0.1-0.8,0.5-0.1c0.2-0.5-0.4-1,0-1.3c0,0.2-0.1,0.5,0.1,0.5
			c0-1.4-0.3-2.8-1-4c0.1,0.4,0.6,1,0.3,1.3c-0.1-0.7-0.3-1.4-0.5-2.1c-0.1,0.2,0.4,0.4,0,0.5c0.2-1-1.1-2.6-0.3-3.8
			c-0.4,1,0.2,1.4,0.5,1.9c0.9-1.1,0.9-3.1,0.8-4.7c-0.2-2.4-1.4-5-3.5-5.3c-0.3,0.2-0.6,0.3-0.5,0.9c1.3-0.1,2.5,0.8,2.7,2.2
			c0,0,0,0.1,0,0.1c-0.2-1.2-1.2-2.4-2.6-2.1c0.6,0.4,0.9,1,0.9,1.7C90.6,141.8,89.7,141.5,89.6,140.5L89.6,140.5z M104.2,152.8
			c0.2-2,1.5-3.6,0.6-5.6c0.6-0.5,0.6-2.3,0.4-3.2c-0.1,1,0.1,2.6-0.6,3.2c0.8,2.2-0.7,4.2-0.8,6.5c-0.1,1.7,0.1,2.9-0.4,4.1
			c0.2,0,0.1,0.2,0.3,0.3C104.2,156.5,104,154.7,104.2,152.8L104.2,152.8z M99.2,151.8c2.1-0.2,1.8-3.1,1.7-5.4
			c-0.4-0.1-0.7-0.4-1.2-0.5c0.8,1.7,0.8,5.4-1.2,5.3c-2.1-0.1-0.8-4.1-0.1-5.3c-0.4-0.1-0.7-0.2-1-0.3
			C95.8,147.8,96.2,152,99.2,151.8L99.2,151.8z M98.9,150.5c0.9-0.9,1.2-3.8,0-4.6C98.2,146.8,96.3,150.7,98.9,150.5L98.9,150.5z
			 M99.6,151.9c-3.6,0.8-4-4.4-2.3-6.4c-0.3-0.2-0.8-0.1-0.6-0.8c0.2-0.3,0.9-0.2,1.2-0.5c0.2-0.5,0-1.3,0.3-1.7
			c-0.4,0-0.2,0.4-0.8,0.3c-0.6-0.9,0.3-1.6,0.9-2.3c-0.2-0.5-0.6-0.8-0.6-1.5c0.3-0.5,0.9,0.5,0.9-0.1c0.2-0.6,0.2-1.2,0.3-1.8
			c-0.5,0-0.9,0.3-1.2-0.1c0.1-1,0.9-1.4,1.7-1.8c-0.3-0.7-0.7-1.4-1-2.1c0.4-0.5,0.7,0.1,1.3,0c0.3-0.7,0.5-1.4,0.6-2.2
			c-0.6-0.1-1.2-0.1-1.3-0.6c0.2-0.3,0.6-0.5,0.8-0.9c-1.5-0.5-5.9-2-6.8,0.4c0.3,0.7,1.4,0.6,1.5,1.4c-0.3,1.5-2.1,2.5-1.9,4.1
			c0.1,0.8,0.8,0.9,0.8,1.9c-0.3,0.6-1.5,0.7-1.5,1.8c0,1.1,1.8,2.4,2.2,4.5c0.4,2.4,0.2,4.8-0.5,7c0.8,1.4,1.4,2.9,1.7,4.5
			c2.9,0.1,4.7,1.4,7.3,1.8c0.5-0.4,0.7-1.1,0.5-1.7c-0.5-0.5-1.3-0.6-1.4-1.4c0.7-0.1,1.3-0.5,1.7-1.1c-0.5-2,0.5-2.8,0.8-4.3
			c-0.2-0.4-0.4-0.7-0.8-0.9c0.6-0.7,1.2-2.5,0.4-3.3c1.6-0.5,0-2.4,0-2.7c0-0.4,0.8-0.8,0.9-1.3c0-0.2-0.2-0.5-0.3-0.8
			c-0.1-0.6,0.3-1.2,0.3-1.8c0-1.4-0.8-2.7-0.5-4.2c0.5,0,0.7-0.4,1.4-0.2c-0.2-1,0.8-0.8,0.9-1.5c-0.1-0.5-0.5-0.5-0.8-0.8h1.2
			c-0.8-0.8-2.5-0.7-3.5-0.4c0.3,0.3,0.5,0.5,0.4,1c-0.6,0.2-0.6-0.3-1.2-0.3c0,0.7-0.1,1.5-0.3,2.2c0.2,0.2,0.8,0.1,0.6,0.6
			c-1,0.4-0.9,1.6-1,2.7c0.3,0.2,0.6,0.3,0.6,0.6c-0.3,0.3-0.7,0.3-1,0.1c0,0.6-0.3,1-0.3,1.7c0.2,0.2,0.6-0.1,0.8,0.4
			c-1.7,1-0.7,2.4,0,3.7c-0.3,0.5-1.1-0.4-1,0.1c-0.2,1.3,0.3,2,1.2,2.3v0.6c-0.3,0.1-0.6,0.2-0.9,0.1
			C101.4,148.5,101.4,151.5,99.6,151.9L99.6,151.9z M94.6,155.2v0.8c2,0.1,3.9,0.9,5.3,0.3h-0.3C98,155.6,96.3,155.3,94.6,155.2
			L94.6,155.2z M112.6,146c-0.8,0.4-0.9,1.4-1,2.6C112.8,149.7,112.8,146.9,112.6,146L112.6,146z M114,146.5c-0.4,0-0.4-0.3-0.8-0.3
			c0.1,0.8,0.1,1.5,0.1,2.3C114.5,148.7,113.7,147.5,114,146.5L114,146.5z M112.4,145.6c-0.1-0.1-0.3-0.1-0.4-0.3
			c-0.5,0.2-0.9,0.6-1,1.2c0.9-0.1-0.3,0.4,0.4,0.4C111.6,146.4,112.3,146.3,112.4,145.6L112.4,145.6z M101.2,146
			c0.1-1.3-3.9-1.7-3.8-0.6C98.4,145.6,100.3,145.9,101.2,146L101.2,146z M114.1,143.6c-0.6-0.1-0.6,0.5-1,0.5
			c0,0.4,0.4,0.5,0.8,0.5C114.4,143.6,113.3,144.3,114.1,143.6L114.1,143.6z M99.5,141.7v2.7C101.4,145.2,100.4,141.9,99.5,141.7
			L99.5,141.7z M98.9,142.1c-0.4-0.1-0.3,0.2-0.6,0.1c-0.2,0.7-0.2,1.4-0.1,2.1c0.2,0,0.4,0,0.5,0.1C98.9,143.7,99,142.9,98.9,142.1
			L98.9,142.1z M121.8,143.4c-0.4-2.6-0.9-5.8-1.3-8.5c-0.1-0.8,0.1-2-0.6-2.3c0.5,3.6,1,7.2,1.4,10.9c0.2,0,0.2,0.2,0.4,0.3
			C121.6,143.7,121.8,143.6,121.8,143.4L121.8,143.4z M111.9,140.7c-1-0.2-0.9,1.3-0.5,2.3c0.5,0.1,0.7,0.5,1,0.8
			C112.3,142.7,111.9,141.9,111.9,140.7L111.9,140.7z M112.4,141c0.3,0.8,0.2,2,0.8,2.6C113.7,143.2,113.5,140.9,112.4,141
			L112.4,141z M101.1,142.4c0.1-0.5-0.4-0.9-1-1.3c-0.8,0.4,0.5,1.5,0.9,1.4C100.4,142.3,101.1,142.4,101.1,142.4L101.1,142.4z
			 M101.1,139.3c-0.8-0.1-1.3,0.9-1.9,1.3s-2,0.6-1.7,1.5C98.8,142.3,100.6,140.9,101.1,139.3L101.1,139.3z M110.7,141.3
			c0.3-0.3,0.8-0.5,0.9-1c-0.2-0.5-1.3-0.3-0.9,0.2c0-0.1,0.6-0.1,0.6,0C111.2,140.7,110.3,140.9,110.7,141.3L110.7,141.3z
			 M110.2,137.9c0.2-0.2,0.1,0.3,0.1,0.3c0.1-0.2-0.4,0-0.1,0.4c0.6,0.7,2.2,2.9,3.7,2.3c-0.4-0.1-0.2-0.2-0.4-0.5
			c0.1,0,0.5,0.3,0.5,0C112.7,140.4,111.1,137,110.2,137.9z M98,139.6c-0.1,0.4,0.2,0.5,0.3,0.8c0.4,0,0.8,0,0.8-0.4
			c-0.3-0.2-0.7-0.8-1-0.5C98.4,139.7,98.4,140,98,139.6z M100.7,139c0.2-0.6,0.2-1.3,0.4-1.9c-0.4-0.1-0.5-0.4-0.8-0.6
			c-0.1,1-0.7,2.3-0.5,3.2C100,139.3,100.2,138.9,100.7,139z M92.4,128.3c-0.5,0.1-0.6,0.5-0.6,0.8c-0.4,1.5-0.4,3.5-0.6,5.3
			c-0.3,1.8-0.6,3.5-0.8,5.1c0.2,0,0.2,0.2,0.4,0.1C91.4,136,91.6,131.8,92.4,128.3z M99.5,136.8c-0.9,0.2-0.8,1.4-0.9,2.4
			c0.2,0,0.3,0.1,0.5,0.1C99.1,138.4,99.8,137.5,99.5,136.8z M113.1,137.5c-0.7-0.1-0.6,0.5-0.9,0.8c0.1,0.3,0.2,0.6,0.5,0.6
			c0.1-0.4,0.9-0.8,0.5-1.3c-0.1,0.2-0.4,0.8-0.5,0.5C112.9,138,113.2,137.9,113.1,137.5L113.1,137.5z M112.4,137.4
			c-0.3-0.7-0.2-1.8-0.8-2.3c0.1,0.9-0.3,2.3,0.4,2.7C111.9,137.5,112.3,137.6,112.4,137.4z M111,135.1c-0.4-0.1-0.4,0.2-0.9,0.1
			c0,0.6,0.1,1.3,0.1,1.9c0.4,0,0.7,0.1,1,0.3C111.3,136.6,111.2,135.9,111,135.1L111,135.1z M100.7,136.1c0.3,0.3,0.3,0.2,0.8,0.1
			c0-0.5-0.3-0.5-0.6-0.6c-0.7,0.5,0.2,1.5,0.8,1.3C101.3,136.6,100.8,136.6,100.7,136.1z M101.9,133.6c-1.8,0.2-1.8,2.2-3.7,2.4
			c0.2,0.4,0.6,0.5,0,0.8c2.5,0.2,2.7-1.9,4-3c-0.4-0.1-0.5,0.6-0.6,0.3C101.7,134.1,101.7,133.8,101.9,133.6z M112.6,134.1
			c-1.2-0.3-2.4-0.1-3.5,0.5c0.6,0,0.8,0.2,0.3,0.4c1.2-0.1,2.8,0.3,3.3-0.5c-0.2-0.1-0.4,0.4-0.5,0
			C112.6,134.6,112.5,134.2,112.6,134.1z M98.8,133.7c0,0.5,0.3,0.9,0.8,1c0-0.1,0.1-0.2,0.3-0.3c-0.1-0.6-0.3-1.1-0.9-1.2
			c-0.1,0.4,0.6,0.6,0.3,0.8C99.1,133.9,99,133.8,98.8,133.7z M104.5,134.5c1.2-0.3,2.4-0.4,3.6-0.5c0.5,0,1.4,0.5,1.5-0.3
			c-1.3-0.8-4.4-0.3-5.3,0.4C104.4,134.3,104.6,134.3,104.5,134.5L104.5,134.5z M100.4,131c-0.3,0.6-0.4,1.5-0.6,2.2
			c0.3,0.1,0.3,0.4,0.6,0.5C100.4,132.7,100.7,131.8,100.4,131z M120,132.3c0.1-1.2-1.3-0.7-2.2-0.6c-2,0.2-5.5,0-5.8,1.9
			C114.5,132.5,117.2,132.1,120,132.3L120,132.3z M112,132.7c-0.6,0-0.7,0.4-1.1,0.4c0,0.4,0.3,0.6,0.8,0.5
			C111.7,133.3,111.8,133,112,132.7L112,132.7z M101.7,133c0.2-0.7,0.3-1.4,0.3-2.1h-1C101,131.9,100.3,133.6,101.7,133z
			 M107.5,130.5c-0.4,0.7-0.5,1.4-0.4,2.2C107.3,132,107.4,131.2,107.5,130.5L107.5,130.5z M102.9,130.2c-1.1-0.2-2.4-0.8-3.5-0.3
			c0.5,0.5,0,0.1-0.1,0.5c0.7,0.4,3.2,0.3,3.5,0.3C102.1,130.7,102.7,130.3,102.9,130.2L102.9,130.2z M107.7,130.1v-0.5
			c-1.6,0-4.3-1.3-5.3,0.1C103.7,129.9,106.3,130,107.7,130.1L107.7,130.1z M101.3,128.9c-0.3-0.3-0.7-0.4-1.2-0.5
			c0.1,0.4,0.3,0.5,0.4,0.9C100.8,129.4,101.1,129.3,101.3,128.9L101.3,128.9z M96.2,127.6c-1.4-0.2-3.7-0.7-4.1,0.5
			c2.7-0.1,5.4,0.3,7.9,1.3C100,128,97.9,127.7,96.2,127.6z"/>
		<path id="Trazado_177" class="st2" d="M124.3,165.1c0,0.1-0.1,0.1-0.3,0.1c0.8-0.7,1.5-1.5,1.9-2.4
			C125.7,163.7,125.1,164.5,124.3,165.1z"/>
		<path id="Trazado_178" class="st2" d="M118.9,157.7C118.7,156.7,119.6,155.5,118.9,157.7z"/>
		<path id="Trazado_179" class="st2" d="M119.4,156.1c-0.1-0.7,0.6-1.8,0.8-2.8c0-0.2,0.1-0.3,0.1-0.1
			C120.1,154.2,119.8,155.2,119.4,156.1z"/>
		<path id="Trazado_180" class="st2" d="M127.4,154.8c1.3,3.2-0.3,6.8-3.5,8c-0.6,0.2-1.3,0.4-2,0.4c-0.4-0.1,0.8-0.1,1.3-0.3
			c1.2-0.4,2.2-1.3,2.8-2.4v-0.9c0.6-0.6,1.4-1,1.7-1.9C127.3,156.8,127.5,155.9,127.4,154.8z"/>
		<path id="Trazado_181" class="st2" d="M118.5,159.7c-0.4-0.3,0.1-0.9,0-1.4C118.9,158.6,118.3,159.1,118.5,159.7z"/>
		<path id="Trazado_182" class="st2" d="M92.5,151.1c-0.3,0.1-0.4-1.1-0.6-1.4c-0.2-0.3,0.2-0.6,0.1-0.1
			C92.1,150.1,92.3,150.6,92.5,151.1z"/>
		<path id="Trazado_183" class="st2" d="M119.6,147.9c-0.4-0.8,1.3-3.1,2.2-2.7C120.4,145.5,119.8,146.6,119.6,147.9z"/>
		<path id="Trazado_184" class="st1" d="M63.6,85.9l-2.8-2.6c0,0-4,1.6-12.1,7l-4.4,15.2l-1.5,1.7l1,0.9l-4.6,15.1h15.3l4.7-4.4
			l1.8-12.9l-1.8-3.2l2.7-4.2L63.6,85.9z M53.5,116.1l-6.4,0.7l1.7-8.2l6.1-1.4L53.5,116.1z M56.2,100.2l-5.9,1.7l1.7-8.1l5.6-2.4
			L56.2,100.2z"/>
		<path id="Trazado_185" class="st1" d="M84,97.4L84.8,80l-3.5-4.4l-10.2,3.1l-4.1,5.9l-1.8,15.6l-1.4,1.8l1.2,1.4l-2,15.3l3.8,4.7
			h11.9l4.2-5.1l0.8-17.4l1.3-1.9L84,97.4z M78,98l-1.4,1.9l1.1,1.5l-0.9,13.2l-7.1,0.3l1.1-12.7l1.4-1.6l-1-1.5l1-12.7l6.5-1.5
			L78,98z"/>
		<path id="Trazado_186" class="st1" d="M95.2,73.5L89,74.3l6,23.5l-8.2,25.6h6.9l4.3-13.9l4.1,13.9h6.8l-7.5-25.9l6.6-24.3H102
			l-3.6,12.5L95.2,73.5z"/>
		<path id="Trazado_187" class="st1" d="M112.2,73.5l5.5,0.6l1,22.6l1.3,2.1l-1.2,1.7l0.9,22.9h-6.5l-0.3-23.1l-1.6-1.8l1.5-1.8
			L112.2,73.5z"/>
		<path id="Trazado_188" class="st1" d="M121.5,74.8l6.1,1.4l8.1,25.5L133.6,78l5.4,1.9l2.2,20.2l1.5,1.8l-1.1,1.3l2.3,20.1H137
			l-8.5-24.6l1.4,24.6h-6.4l-0.9-22.4l-1.4-1.8l1.3-1.8L121.5,74.8z"/>
		<path id="Trazado_189" class="st1" d="M155.4,96.6l-0.6-2.7l-5.9-2.7l1.9,11l1.4,1.7l-0.8,1l1.8,11.1l6.7,0.6l-1.8-8l-4-0.9
			l-1.4-7l9.4,3.2l0.5,1.9l1.6,1.5l-0.9,0.9l3.4,11.7l-3.1,3.5H152l-4.6-4.4l-1.9-14.9l-1.5-1.8l1.2-1.4l-2-15L146,83l9.2,5.3
			l4.2,5.6l1.3,5.2L155.4,96.6z"/>
	</g>
</g>
<g>
</g>
<g>
</g>
<g>
</g>
<g>
</g>
<g>
</g>
<g>
</g>
</svg>
