<?xml version="1.0" encoding="utf-8"?>
<!-- Generator: Adobe Illustrator 25.0.1, SVG Export Plug-In . SVG Version: 6.00 Build 0)  -->
<svg version="1.1" id="Capa_1" xmlns="http://www.w3.org/2000/svg" xmlns:xlink="http://www.w3.org/1999/xlink" x="0px" y="0px"
	 viewBox="0 0 206 206" style="enable-background:new 0 0 206 206;" xml:space="preserve">
<style type="text/css">
	.st0{fill:#1B1B1B;stroke:#1B1B1B;stroke-miterlimit:10;}
	.st1{fill:#4EC600;}
</style>
<circle class="st0" cx="103.2" cy="102.9" r="99.9"/>
<path id="Path_29" class="st1" d="M123.9,81c-0.2,0.3-0.4,0.5-0.6,0.7c-1,1.1-2,2.1-3,3.2c3.6-1.7,7.1-3.3,10.8-5
	c-1.4-0.1-2.6-0.2-3.9-0.4C125.8,79.2,124.4,79.8,123.9,81"/>
<path id="Path_30" class="st1" d="M141,90.7l2.8-0.6c0-0.7,0.1-1.3,0.1-1.9c-0.1,0-0.2-0.1-0.3-0.1c-0.9,0.8-1.8,1.6-2.8,2.5
	C140.9,90.5,140.9,90.6,141,90.7"/>
<path id="Path_31" class="st1" d="M122,99.7c0.9-0.8,1.6-1.6,2.4-2.2c2.9-2.2,5.9-4.3,8.8-6.5l0.7-0.5c-4.7,2-9.1,4.4-13.4,7.2
	L122,99.7"/>
<path id="Path_32" class="st1" d="M140.5,80.5c-0.5,2.1-2.6,2.7-4.1,4.1c2.4-0.7,4.6-1.4,6.8-2.1C142.8,81.3,141.7,80.5,140.5,80.5"
	/>
<path id="Path_33" class="st1" d="M118.4,90.4c-1.1,0.7-1.1,0.9-0.4,1.9c3-2.2,6.1-4.4,9.1-6.6l-0.2-0.2
	C124.1,87.1,121.3,88.7,118.4,90.4"/>
<path id="Path_34" class="st1" d="M109.4,155.9c-0.4-0.3-0.6-0.8-0.5-1.3c0.5-2.5,0.9-5,1.5-7.5c0.7-3.1,1.5-6.1,2.2-9.2
	c0.4-1.6,0.6-3.3,1.1-4.9c0.3-0.7,0.8-1.2,1.4-1.6c2.6-1.4,5.3-2.7,7.8-4.1c3.5-2,6.8-4.5,9.6-7.4c3.8-3.7,7.1-7.9,9.7-12.5
	c1.5-2.5,2.7-5.2,3.5-8.1c1.6-5,2-10.2,1.2-15.4c-0.2-1.1-0.6-2.6-1.4-3.1c-1.5-0.9-3.2-1.5-5-1.7c-3.2-0.4-6.4-0.3-9.6-0.4
	c-0.7,0-1.5,0-2.2,0c0-0.2,0-0.3,0-0.3c2.4-2.3,3.9-5.4,4.1-8.8c0.3-2.1,0.1-4.2-0.7-6.1c-1.4-2.8-3.9-4.9-6.9-5.8
	c-2.9-1.1-6-1.2-9-0.3c-1.1,0.4-2.2,0.7-3.4,1.1c-0.1-0.1-0.2-0.3-0.4-0.4c-2.2-3.3-5.5-5.8-9.2-7.3c-2.4-1-5-1.3-7.6-1
	c-2.2,0.3-4.3,1.2-6,2.7c-3.3,2.3-5.3,6.1-5.4,10.1c0,0.3,0,0.6-0.1,1c-3.2-3.1-5.9-6.8-8-10.8c-3-5-3.6-11-1.8-16.5
	c0.7-2.1,0.5-4.3-0.6-6.3c-0.6-1.5-2.1-2.5-3.8-2.4c-2.1,0.2-4,0.8-5.9,1.7c-1.8,0.9-3.5,1.8-5.3,2.7c-4.5,2.3-8.7,5.3-12.3,8.8
	C40.4,47.3,35,54.2,30.3,61.7c-3.2,5.4-6,11-8.3,16.7c-1,2.7-1.6,5.6-1.9,8.5c-1.2,6-2,12.2-2.2,18.3c0.1,5.3,0.9,10.5,2.2,15.5
	c1,3.5,1.8,7,2.3,10.6c0,0.2,0.1,0.4,0.2,0.5c1,2.3,2,4.5,3.1,6.8c0.8,2.1,1.8,4.1,3,6c1.8,2.6,4,4.8,5.9,7.3c2.5,3.1,5.2,6,8.2,8.6
	c1.6,1.4,3.2,2.6,4.9,3.9c1.1,0.8,2.1,1.6,3.2,2.4c1.2,0.7,2.4,1.6,3.6,2.5c0.9,2.2,2.2,4.3,3.8,6.2c2.9,3.6,7.2,5.7,11.8,5.9
	c1.1,0.1,2.3,0.1,3.4,0c1.7-0.3,3.4-0.7,5-1.2c1.9-0.8,2.3-0.9,3.5,0.6c3.5,4.6,8.6,7.6,14.3,8.6c2.5,0.7,5.1,0.5,7.5-0.5
	c2.1-1.1,4.1-2.2,6.1-3.5c1.9-0.9,3.2-2.8,3.5-5c0-0.1,0.1-0.2,0.1-0.4c1.9-4.4,2.6-9.2,1.9-14C114.7,162,112.5,158.4,109.4,155.9
	 M91.7,56.5c3.4-3.4,8.8-3.7,12.7-0.8c1.9,1.1,3.6,2.7,4.9,4.5c0.2,0.3,0.3,0.5,0.5,0.8c0.2,1,1.2,1.7,2.3,1.6
	c0.8,0,1.5-0.1,2.2-0.3c1.9-0.5,3.8-1.1,5.7-1.4c1.4-0.3,2.8-0.3,4.3-0.1c1,0.3,1.8,0.8,2.5,1.5c1.5,1.4,2.3,3.4,2.3,5.5
	c0.3,2.7-0.2,5.4-1.5,7.9c-0.6,0.9-1.3,1.7-2.1,2.4c-0.3,0.2-0.7,0.3-1.1,0.2c-2.8-0.4-5.6-0.6-8.3-1.1c-3.8-0.7-7.6-1.6-11.4-2.4
	c-0.4-0.1-0.7-0.2-1.1-0.4c1.4-0.8,2.7-1.4,3.9-2.2c1-0.6,1.9-1.3,2.7-2.2c0.8-0.9,0.4-1.7-0.8-1.8c-0.7-0.1-1.5,0.1-2.2,0.4
	c-2.4,1.2-4.7,2.6-7,3.9c-0.4,0.4-1,0.5-1.5,0.3c-1.2-0.5-2.5-1.1-3.7-1.6c0-0.1,0-0.2,0-0.2c0.8-0.3,1.6-0.6,2.4-1
	c0.9-0.4,1.7-1,2.4-1.6c0.4-0.4,0.5-1,0.4-1.5c-0.3-0.5-0.7-0.9-1.3-1c-0.9-0.1-1.8,0-2.6,0.3c-1.7,0.7-3.3,1.5-4.9,2.4
	c-0.7,0.4-1,0.3-1.1-0.5c-0.1-0.8-0.3-1.5-0.5-2.3c-0.2-0.4,0-1,0.4-1.2c0.1,0,0.1-0.1,0.2-0.1c1.6-0.6,3.1-1.3,4.6-2.1
	c0.7-0.4,1.4-0.8,1.9-1.4c0.7-0.7,0.4-1.4-0.5-1.9c-1-0.5-2.1-0.5-3,0c-1.3,0.5-2.6,1.1-3.9,1.7C89.5,59.1,90.3,57.6,91.7,56.5
	 M53,160c-0.1,0.5-0.3,1-0.4,1.5c-0.1,0.5-0.1,1-0.2,1.4l-0.3,0.2c-1.5-1.4-3.1-2.8-4.6-4.3c-0.1-0.3-0.1-0.6,0-0.9
	c0.9-2,1.8-3.9,2.7-5.9c0.5-1,0.9-1.9,1.2-2.9c0.1-0.4,0-0.8-0.2-1.1c-0.4-0.2-0.9-0.2-1.3,0c-1,0.7-2,1.5-2.8,2.5
	c-1.2,1.6-2,3.5-3.1,5.3c-1-0.8-2-1.7-3-2.6c-0.3-0.3-0.1-1.2,0.1-1.7c0.5-1.1,1.3-2.1,1.9-3.1c0.6-1.2,1.2-2.3,1.7-3.6
	c0.2-0.5,0-1-0.3-1.5c-0.5-0.2-1.1-0.2-1.5,0.1c-0.8,0.5-1.4,1.1-2,1.8c-1.1,1.5-2,3.1-3,4.8c-1.1-1.3-2.2-2.6-3.2-3.9
	c-0.1-0.1,0.2-0.5,0.4-0.7c1.8-2.2,1.9-3.1,3.7-5.3c0.4-0.4,2.3-3.3-0.1-2.9c-1.3,0.4-2.5,1.2-3.3,2.3c-1,0.8-1.9,1.8-2.8,2.7
	l-0.6,0.7c-0.8-1.4-1.2-2.2-1.9-3.5c-0.1-0.2,0.2-0.5,0.4-0.8c1.2-1.8,2.5-3.5,3.7-5.3c0.3-0.5,0.3-1,0.2-1.6
	c-0.3-1-1.4-1.2-2.3-0.5c-1.5,1.1-3,2.3-4.6,3.6c-0.5-1.3-1.1-2.5-1.5-3.7c-0.1-0.3,0.2-0.9,0.5-1.2c2.5-2.7,0.7-1.1,3.1-3.8
	c0.8-0.9,1.5-1.9,2.1-2.9c0.2-0.4,0.3-0.9,0-1.4c-0.4-0.3-0.9-0.3-1.4-0.2c-1,0.5-1.9,1.1-2.8,1.7c-1.2,0.7-2.3,1.6-3.3,2.6
	c-0.4-1.7-0.8-2.7-1.1-4.3c0-0.2,0.3-0.5,0.5-0.7c2.2-2,3.1-2.7,5.2-4.7c0.8-0.6,1.5-1.3,2.1-2.1c0.3-0.6,0.1-1.4-0.6-1.8
	c-0.2-0.1-0.4-0.2-0.7-0.1c-1,0.2-2,0.6-2.9,1.2c-1.3,0.8-2.6,1.7-3.8,2.7c-0.3,0.3-0.8,0.6-1.2,0.8c-0.3-1.7-0.4-2.2-0.5-3.5
	c0-0.4,0.2-0.8,0.5-1.1c0.5-0.5,1.1-0.9,1.6-1.4c0.7-0.5,0.8-1.5,0.4-2.2c-0.5-0.7-1.4-1-2.3-0.7c-0.2,0-0.3,0.1-0.6,0.2
	c0-1.6,0-3.2,0-4.7c0.1-0.2,0.2-0.4,0.4-0.6c2-1.4,2.5-1.9,4.5-3.3c1.6-1,3.2-1.9,4.8-2.9c0.4-0.2,0.9-0.6,0.9-1
	c0-0.5-0.3-1-0.7-1.3c-0.4-0.3-0.9-0.4-1.5-0.4c-2.6,0-5.1,1.1-7.1,2.8c-0.3,0.2-0.6,0.4-0.8,0.6l-0.3-0.1c0.5-2.2,0.7-3.6,1.2-5.8
	c0.1-0.3,0.5-0.5,0.7-0.6c3.3-1.5,5.4-3,8.7-4.6c0.3-0.1,0.6-0.3,0.8-0.6c0.3-0.4,0.8-0.9,0.7-1.2c-0.2-0.4-1.1-1.3-1.5-1.3
	c-1.2,0-2.4,0.3-3.6,0.7c-1.1,0.4-2.1,0.9-3.1,1.5c-0.4,0.2-0.8,0.4-1.2,0.5c0.5-1.6,1-3.2,1.6-4.7c0.1-0.2,0.4-0.4,0.7-0.5
	c2-1,4.1-2,6.1-3c0.7-0.2,1.3-0.9,1.3-1.6c0-0.9-0.7-1.7-1.6-1.7c-0.1,0-0.2,0-0.3,0l-3,0.1c0.7-1.4,1.4-2.7,2.1-4
	c0.1-0.3,0.6-0.4,0.9-0.5c2-0.9,3.9-1.7,5.9-2.6c0.7-0.3,1.2-0.8,1.7-1.4c0.9-1,0.5-1.9-0.8-1.9c-1.1,0-2.2,0.2-3.3,0.4
	c-0.4,0.1-0.8,0.2-1.2,0.4c0.7-1.2,1.3-2.2,2-3.1c0.1-0.1,0.3-0.2,0.5-0.3c2.1-0.8,4.1-1.9,5.9-3.2c0.8-0.4,1.2-1.2,1-2.1
	c-0.2-0.9-1.1-1.1-1.9-1.2l-0.8-0.1c0.8-1,1.3-2.1,2.7-2.4c1.6-0.5,3.2-1.2,4.8-1.9c0.1-0.1,0.2-0.1,0.4-0.2
	c0.7-0.4,1.3-0.9,1.1-1.8c-0.2-0.8-1-1.1-1.8-1.1c-0.2,0-0.3,0-0.5-0.1c5.5-5.7,12-10.4,19.1-13.7c1.3-0.5,2.5,0.3,2.1,1.3
	c-0.1,0.3-0.2,0.7-0.2,1c-1,3.7-1.2,7.7-0.3,11.5c0.8,3,2.1,5.9,3.8,8.6c2.6,4.7,6.3,8.8,10.6,12c1.6,1.1,3.3,1.9,5,2.9
	c6.3,4,13.4,6.6,20.9,7.7c1.1,0.1,2.1,0.5,3.2,0.6c0.8,0.1,0.9,0.4,0.8,1.1c-1.3,5.5-0.8,11.3,1.4,16.5c3,7.7,9.1,13.7,16.7,16.8
	c0.6,0.2,1.2,0.4,2,0.6c-0.2,0.4-0.4,0.8-0.7,1.1c-0.8,1-1.7,1.9-2.7,2.6c-4.9,3.6-10.2,6.6-15.8,9c-5.5,2.1-11.3,3.2-17.2,3.3
	c-5.2,0-10.4-1.3-15.1-3.7c-2-1-4-2-6.1-2.9c-2-1.2-3.8-2.7-5.3-4.4c-0.7-0.6-1.3-1.1-2-1.7l0.2-0.4c0.7-0.1,1.4-0.2,2.2-0.2
	c2.8,0.1,5.7,0.2,8.5,0.3c0.6,0.1,1.2,0.1,1.8,0c0.6-0.1,1.4-0.5,1.5-1c0.2-0.7,0.1-1.4-0.2-2.1c-0.7-1.1-1.9-1.7-3.2-1.8
	c-3-0.5-6-0.4-9,0.2c-5.5,0.8-10.8,3.1-15.1,6.8c-1.5,1.4-2.8,2.9-3.9,4.5c-0.5,0.8-0.8,1.7-1.1,2.6c0.8,0.3,1.8,0,2.3-0.7
	c2.4-2.6,5.2-4.7,8.4-6.2c0.5-0.3,1.2-0.2,1.5,0.3c3.3,4.4,7.8,7.7,12.9,9.7c1.8,0.7,3.6,1.5,5.4,2.2c-1.2,3.9-2.4,7.8-3.6,11.7
	c-3-0.9-6.2-1-9.3-0.2c-2.3,0.8-4.4,2.1-6.1,3.9C57.3,151.1,54.6,155.3,53,160 M110,177.5c-2.2,4.6-6.8,7.7-12,8.1
	c-2.1,0-4.1-0.6-5.9-1.6c-1.6-0.7-3.1-1.8-4.4-3c-1.2-1.1-2.4-2.2-3.7-3.3c0.3-0.4,0.5-0.8,0.6-1.3c0.1-0.5,0-0.9-0.2-1.3
	c-0.4-0.3-0.8-0.4-1.3-0.3c-0.7,0.2-1.4,0.7-1.9,1.2c-0.6,0.7-1.4,1.1-2.4,1.2c-0.8,0.1-1.7,0.2-2.7,0.4c0.3-0.7,0.6-1.2,0.8-1.7
	c0.2-0.5,0.4-1,0.6-1.5c0.4-0.8,0-1.8-0.7-2.2c-0.8-0.5-1.8-0.2-2.3,0.6c0,0,0,0,0,0c-0.9,1.4-1.7,3-2.4,4.5
	c-0.2,0.6-0.5,0.7-1.1,0.7c-1.4,0-2.9-0.4-4.1-1.1c0.6-1.1,1.2-2.1,1.7-3.1c0.5-0.9,0.8-1.9,1.2-2.9c0.3-0.7,0.1-1.6-0.6-2
	c-0.7-0.5-1.6-0.4-2.2,0.2c-1.5,1.3-2.8,2.9-3.5,4.8c-0.1,0.2-0.2,0.5-0.4,0.8c-1.1-0.5-2-1.3-2.7-2.3c-0.1-0.3-0.1-0.6,0.1-0.9
	c1.8-3.9,4.1-7.6,6.8-10.9c0.4-0.5,0.9-1,1.3-1.6c0.6-0.6,0.6-1.5,0.1-2.1c-0.5-0.7-1.5-0.9-2.3-0.4c-1,0.5-2,1.2-2.8,2.1
	c-1.8,2.3-3.3,4.7-4.9,7.1c-0.2,0.4-0.5,0.7-0.9,1c-0.1-0.5-0.2-1-0.3-1.4c-0.9-2.1-0.6-4.4,0.8-6.2c0.1-0.2,0.2-0.4,0.3-0.6
	c1.1-3.5,3.7-6.4,7.2-7.8c2.7-1.3,5.7-1.8,8.6-1.2c1.4,0.1,2.8,0.1,4.2-0.1c0.5-0.2,0.9-0.6,1.1-1.1c0.9-2.9,1.7-5.8,2.6-8.7
	c0.5-1.7,1.1-3.4,1.7-5.1c0.2-0.7,0.7-0.5,1.1-0.4c2.9,0.5,5.7,1.2,8.6,1.5c2.1,0.1,4.2,0,6.2-0.3c2.9-0.4,5.8-1.1,8.7-1.6
	c0.2,0,0.3,0,0.5,0c-0.5,2.7-0.9,5.4-1.5,8c-0.9,3.7-1.9,7.3-2.9,10.9c-0.1,0.4-0.3,0.8-0.5,1.2c-0.4,0.8-0.4,1.7,0.1,2.5
	c1.8,2.7,3.4,5.4,4.9,8.3C111.5,168.4,111.8,173.2,110,177.5"/>
<path id="Path_35" class="st1" d="M156,145.1c-4.8-3-10.3-4.8-15.9-5.2c-3.4-0.2-6.8-0.2-10.2-0.3c-1.4-0.1-2.8-0.1-4.2,0.1
	c-2,0.4-4,1-4.4,3.5c-0.3,1.7-0.4,3.4-0.7,5.2c-0.2,4.4-0.1,8.9,0.4,13.3c0.4,4.1,1.5,8.1,3.4,11.8c1.2,2.8,3.3,5.2,6,6.7
	c1.1,0.7,2.5,1,3.9,0.7c2.2-0.7,4.5-1.3,6.7-2.1c2.1-0.8,4.2-1.8,6.2-2.9c2.2-1.2,4.4-2.5,6.6-3.8c3.9-1.8,7.1-4.7,9.4-8.4
	c1.2-1.8,2-3.8,2.3-6c0-3.2-1.3-6.2-3.5-8.4C160.1,147.6,158.1,146.2,156,145.1 M159.7,161.4c-1,2.6-2.8,4.8-5.2,6.2
	c-4.7,3-9.6,5.5-14.6,7.7c-1.4,0.5-2.9,0.9-4.4,1.2c-1.2,0.2-2.5-0.1-3.6-0.8c1.6-1,2.9-1.8,4.3-2.8c0.9-0.7,1.8-1.4,2.6-2.2
	c0.7-0.5,0.9-1.5,0.5-2.3c-0.6-0.6-1.4-0.8-2.2-0.7c-1.2,0.2-2.4,0.7-3.5,1.3c-1.6,0.9-3,2.1-4.7,3.3c-0.5-0.8-1-1.7-1.5-2.6
	c-1.3-2.4-1.3-2.5,1.2-3.6c4.6-2.3,9.3-4.4,14.1-6.3c4.6-1.5,0.8-3.6-0.9-3.3c-5.9,0.9-11.4,3.2-16.1,6.9c-0.1,0.1-0.3,0.1-0.4,0.2
	c-0.4-1.6-0.8-3.2-1.1-4.8c0-0.2,0.2-0.5,0.4-0.6c1.4-1,2.8-2,4.1-2.9c0.6-0.4,1.2-0.9,1.7-1.4c0.3-0.4,0.6-1.2,0.4-1.5
	c-0.3-0.5-0.9-0.9-1.5-1c-1.9-0.1-3.7,0.7-5,2c-0.2,0.1-0.3,0.3-0.4,0.4c-0.1,0-0.1,0-0.2,0c0-0.1,0-0.3-0.1-0.4
	c0-2.9,0.1-5.9,0.2-8.8c0.1-0.5,0.3-0.9,0.7-1.1c1.5-1,3.4-1.3,5.2-0.9c3.5,0.7,7,1.2,10.5,1.8c2.8,0.5,5.5,1.5,8,2.8
	c2.3,1.2,4.6,2.5,6.7,4c1.8,1.3,3.5,2.9,4.8,4.7C160.5,157.5,160.6,159.6,159.7,161.4"/>
<path id="Path_36" class="st1" d="M149.8,72.2c2,0.3,4.1,0.4,6.1,0.6c0-0.1,0-0.2,0-0.2c1.3,0,2.6,0,3.9,0c3.9-0.1,7.8-1.1,11.3-2.8
	c3.4-1.7,5-5.5,4-9.1c-1.1-4.3-3-8.4-5.7-12c-3.8-5.5-10.3-8.6-17-8.1c-0.9,0.1-1.8,0.5-2.4,1.1c-2.4,2.9-4.2,6.3-5.1,9.9
	c-1.1,4.4-1.6,9-1.3,13.5C143.4,68.7,146.1,71.9,149.8,72.2C149.7,72.2,149.8,72.2,149.8,72.2 M147.8,60.9c0-0.3,0.4-0.6,0.7-0.8
	c1.8-1.4,3.6-2.8,5.4-4.2c1.2-0.7,2-1.9,2.2-3.3c-1.2-0.9-2.9-0.9-4.1-0.1c-1.4,0.6-2.6,1.5-4,2.3c-0.1-0.4,0-0.8,0-1.2
	c0.6-2.1,1.4-4.2,2.2-6.2c0.7-1.4,2-2.5,3.5-2.9c3.6-1.1,7.6,0.1,9.9,3.1c1.7,2.1,3.1,4.4,4.2,6.8c0.7,1.2,1.1,2.5,1.7,3.8
	c0.9,1.8,1.3,3.7,1.1,5.7c-0.1,0.6-0.4,1.1-0.9,1.4c-2.3,1.1-4.8,1.8-7.3,2.1c-0.2,0-0.3,0-0.5,0c0.6-0.7,1.1-1.2,1.5-1.9
	s0.8-1.4,0.2-2.1c-0.5-0.6-1.5-0.6-2.1-0.1c0,0,0,0,0,0c-1.7,1.2-3.3,2.6-4.9,3.8c-0.5,0.3-1,0.5-1.5,0.6c-1.3,0.1-2.6,0-3.9,0
	c0-0.1,0-0.2,0-0.3c0.7-0.4,1.3-0.8,1.9-1.3c1.3-1.2,2.6-2.4,3.8-3.7c0.6-0.7,1.2-1.7,0.4-2.5c-0.8-0.9-1.8-0.4-2.6,0.1
	c-1.9,1.3-3.8,2.7-5.7,4c-0.3,0.3-0.7,0.5-1.1,0.6C147.8,63.3,147.7,62.1,147.8,60.9"/>
<path id="Path_37" class="st1" d="M187.6,105.5c0-1.4,0.1-2.9,0-4.3c0-2.5-1.9-4.6-4.3-5c-1.2-0.1-2.5-0.2-3.7-0.2
	c-1.4,0-2.7,0.2-4.1,0.4c-1.6,0.1-3.2,0.3-4.8,0.7c-3.1,0.9-5.9,2.5-8.3,4.6c-2.5,1.9-3.8,5.1-3.2,8.2c0.5,1.8,1.6,3.5,3.1,4.6
	c3.5,2.8,7.4,5.2,11.4,7.2c2.2,1.2,4.7,1.9,7.2,1.8c1.7,0.2,3.3-0.8,4-2.3c0.9-2.3,1.6-4.6,2.1-7c0.5-2.9,0.6-5.8,0.8-8.7
	C187.8,105.5,187.7,105.5,187.6,105.5 M183.5,112.7c-0.5,1.8-1.4,3.5-2.5,5.1c-0.2,0.2-0.6,0.4-0.9,0.3c-1.4-0.4-2.9-0.8-4.3-1.2
	c0-0.1,0-0.2,0.1-0.3c0.5-0.4,1.1-0.7,1.5-1.2c0.6-0.4,0.8-1.2,0.5-1.8c-0.2-0.7-1-1.1-1.7-0.9c-1.3,0.4-2.6,0.8-3.8,1.4
	c-0.4,0.3-0.9,0.3-1.3,0c-1.2-0.7-2.4-1.3-3.7-2c1.9-0.9,3.6-1.7,5.3-2.6c1-0.5,2-1.1,2.9-1.7c0.6-0.6,1.2-1.3,1.6-2
	c-0.9-0.9-2.2-1.2-3.3-0.8c-2.4,0.9-4.6,2-6.9,3c-0.9,0.4-1.8,0.9-2.6,1.4c-1.3-1.1-1.5-3.1-0.4-4.5c0.1-0.1,0.1-0.1,0.2-0.2
	c2.4-2.4,5.5-4.1,8.9-4.7c2.5-0.4,5-1,7.4-1.7c1.7-0.3,3.3,0.9,3.6,2.6c0,0.2,0,0.3,0,0.5C184.1,105.3,183.9,109,183.5,112.7"/>
<path id="Path_38" class="st1" d="M163.8,123.5c-1.6-2-3.3-3.9-5.2-5.7c-1.3-1.2-2.7-2.3-4.2-3.2c-0.8-0.6-1.8-0.7-2.7-0.3
	c-0.2,0.1-0.5,0.1-0.7-0.1c-0.6-0.4-1.4-0.4-2,0.1c-1.6,1-3.2,2-4.7,3.2c-2.4,2-4.4,4.5-5.9,7.3c-1.3,1.9-1.2,4.4,0.2,6.3
	c1.8,2.3,4.1,4.1,6.8,5.2c4,1.7,8.3,2.5,12.6,2.3c1,0.1,2,0.1,2.9,0c1.3-0.2,2.6-0.7,3.8-1.3c1.8-1.2,2.7-3.3,2.4-5.4
	C166.8,128.8,165.6,125.9,163.8,123.5 M160.8,133.1c-2.4,0-4.9,0-7.3,0c-0.1-0.1-0.1-0.3-0.2-0.4c0.3-0.2,0.7-0.4,0.8-0.6
	c0.2-0.5,0.5-1.1,0.4-1.5c-0.3-0.5-0.8-0.8-1.3-0.8c-0.7,0-1.5,0.2-2.2,0.5c-0.8,0.2-1.5,0.6-2.2,1.1c-0.6,0.6-1.6,0.6-2.3,0.1
	c-1-0.6-2.1-1-3.3-1.7c1.9-0.9,3.5-1.7,5.1-2.5c0.9-0.5,1.9-0.9,2.8-1.4c1-0.5,1.7-1.2,2.1-2.2c-0.9-0.9-2.3-1.2-3.5-0.8
	c-2.6,0.7-5,1.9-7.2,3.4l-1.2,0.8c0-0.4,0.1-0.7,0.2-1c0.7-1.2,1.4-2.4,2.3-3.5c2.1-2.2,4.3-4.2,6.4-6.3c1.3,0.8,2.5,1.7,3.7,2.6
	c1.9,1.7,3.6,3.6,5.3,5.5c0.9,1.1,1.7,2.4,2.2,3.7c0.3,1.1,0.5,2.3,0.5,3.4C162,132.2,161.8,133,160.8,133.1"/>
<path id="Path_39" class="st1" d="M92.6,39.3c0.5,0.8,1.2,1.5,2,2c1.9,1.1,4.2,1.3,6.3,0.6c5.2-1.3,10.2-3,15.1-5.1
	c2-0.8,3.6-2.2,4.8-4c1.7-2.4,1.5-5.8-0.7-7.9c-1.8-1.4-3.8-2.5-5.9-3.3c-4.6-1.1-9.2-1.7-13.9-1.8c-1.6,0.1-3.1,0.2-4.5,0.4
	c-1.3,0.2-2.5,0.5-3.7,0.9c-1.6,0.2-2.8,1.7-2.6,3.3c0,2.5,0.2,5.1,0.4,7.6C90.1,34.6,91.1,37.1,92.6,39.3 M92.5,24.1
	c1.7-0.2,3.5-0.3,5.3-0.2c3,0.1,5.9,0.5,8.8,0.8c0.6,0,1.3,0,2,0c0.6-0.1,1.3,0,1.9,0.1c1.9,0.6,3.7,1.3,5.4,2.2
	c1.1,0.4,1.7,1.7,1.2,2.8c-0.1,0.4-0.4,0.7-0.7,1c-1.6,1.6-3.5,3-5.5,3.9c-3.5,1.5-7.2,2.6-10.9,3.3c-0.6,0.1-1.2,0.1-1.7,0.2
	c0-0.1,0-0.2,0-0.2c0.8-0.3,1.6-0.8,2.4-1.3c0.8-0.6,1.5-1.4,2.1-2.2c0.5-0.6,0.2-1-0.5-1.4c-1-0.5-2.1-0.5-3.2-0.2
	c-1.6,0.5-3.2,1.2-5,1.9c-0.4-0.8-0.9-1.8-1.4-2.9c2.2-0.3,4.2-1.1,6-2.3c0.7-0.4,1.3-1,0.9-1.9c-0.4-0.9-1.3-1-2.1-0.7
	c-2.1,0.4-3.9,1.5-5.3,3.1c-0.1-0.4-0.2-0.7-0.3-1.1c-0.2-1.1-0.4-2.3-0.5-3.4C91.2,24.6,91.4,24.2,92.5,24.1"/>
<path id="Path_40" class="st1" d="M114,47.5c-0.3,1,0.1,2.1,0.9,2.7c1.5,1,3,1.9,4.6,2.7c2.3,1,4.8,1.4,7.3,1.3
	c3.1,0.3,6.1-0.3,8.8-1.7c0.9-0.5,1.6-1.2,2.1-2.1c1.1-1.7,1.6-3.7,1.5-5.7c0.1-1-0.3-2-1-2.7c-2.6-2.8-6.1-4.5-10-4.8
	c-1.3-0.1-2.6,0.3-3.6,1.2c-0.2,0.1-0.4,0.2-0.6,0.3c-2.7,0.9-5.2,2.3-7.4,4.2C115.3,44,114.3,45.6,114,47.5 M122.8,45.4
	c-0.4-0.9-1.3-0.9-2.2-0.8c-0.1,0-0.2,0-0.4,0l-0.2-0.3c0.3-0.2,0.6-0.3,0.9-0.5c0.9-0.6,1.8-1.4,2.6-2.2c2.8-3.1,9.9-0.9,11.3,2.8
	c0.5,1.6-0.2,3.4-1.8,4.2c-1.9,1-4,1.4-6.1,1.2c1.6-2,4.6-2.5,5.2-5.3c-0.8-0.4-1.8-0.4-2.6,0.1c-1.7,1.1-3.4,2.3-5.1,3.5
	c-0.2,0.2-0.4,0.4-0.5,0.7c-0.2,1.1-1,1.1-1.8,0.9s-1.6-0.3-2.6-0.5c0.7-0.4,1.1-0.7,1.6-1c0.2-0.1,0.4-0.3,0.6-0.4
	C122.5,47,123.3,46.4,122.8,45.4"/>
<path id="Path_41" class="st1" d="M164.9,76.3c-1.6-0.2-3.1,0.4-4.1,1.6c-1.4,1.6-2.9,3.1-4.4,4.7c-0.4,0.4-0.8,0.6-1.2,1
	c-1.6,1.2-2.6,2.9-3.1,4.8c-0.5,2.8,0.1,2.9,2.2,4.3c0.7,0.4,1.5,0.7,2.2,1.1c2.1,1.2,4.6,1.7,7,1.6c2.3,0,4.5-0.7,6.3-2
	c2.6-1.6,4.2-4.5,4.3-7.5c0.4-1.8-0.1-3.7-1.2-5.2C171,78.1,168.1,76.5,164.9,76.3 M160.5,91c1.4-0.8,2.8-1.6,4.1-2.4
	c1-0.5,1.8-1.4,2.1-2.6c0.1-0.6-0.1-1-0.7-1c-0.6-0.1-1.2,0-1.8,0.1c-1.9,1.1-3.7,2.2-5.5,3.4c-0.4,0.3-0.7,0.7-1,1.2
	c-0.6-0.3-1.5-0.2-1.6-1.2c0.2-1.1,0.9-2,2-2.3c0.7-0.1,1.3-0.3,1.9-0.6c1.4-0.8,1.6-1.6,0.5-2.9c0.7-0.9,1.4-1.7,2.1-2.6
	c0.2-0.2,0.5-0.2,0.8-0.2c2.2,0.2,4.3,1.2,5.8,2.8c0.4,0.4,0.6,1,0.6,1.5c0,3.9-3.2,7-7.1,6.9C162,91.4,161.2,91.3,160.5,91"/>
<path id="Path_42" class="st1" d="M177.2,135.1c-1.3-0.6-2.9-0.4-4,0.5c-1.2,1.1-2,2.7-2.1,4.3c-0.1,1.3,0.9,2.5,2.2,2.6
	c0.1,0,0.2,0,0.3,0c0.2,0,0.4,0,0.6-0.1c2.2-0.9,3.8-2.9,4.2-5.2C178.5,136.4,178,135.5,177.2,135.1"/>
<path id="Path_43" class="st1" d="M181.9,76.5c1.4-0.1,2.5-1.2,2.6-2.6c0-0.3,0-0.6,0-1h0.1c-0.1-0.7-0.1-1.5-0.2-2.2
	c-0.1-1.5-1.3-2.6-2.8-2.7c-1.5,0-2.8,1.1-2.9,2.7c-0.1,1.2,0,2.3,0.2,3.5C179.2,75.6,180.5,76.6,181.9,76.5"/>
<path id="Path_44" class="st1" d="M81.6,46.3c0.3,1.3,1.6,2.2,3,1.9c0.3-0.1,0.6-0.2,0.9-0.4c0.8-0.6,1.2-1.6,1.2-2.6
	c-0.2-0.9-0.4-1.9-0.7-2.8c-0.4-1.2-1.6-2-2.9-1.9c-1.3,0.5-2,1.7-2,3C81.3,44.5,81.4,45.4,81.6,46.3"/>
<path id="Path_45" class="st1" d="M137.3,34.4c1.1,0.5,2.3,0.2,3.1-0.7c0.2-0.2,0.4-0.5,0.5-0.7c0.7-0.7,0.9-1.7,0.4-2.6
	c-0.5-0.8-1.4-1.2-2.3-1.1c-0.4,0-0.8,0.1-1.2,0.1c-1.1,0.2-2,1.1-2.1,2.3C135.6,32.9,136.2,33.9,137.3,34.4"/>
<path id="Path_46" class="st1" d="M64.7,91.6c2.4,5.4,7.4,9.3,13.2,10.3c3.8,0.8,7.8,0.1,11.1-1.9c2.3-1.2,3.6-3.7,3.4-6.3
	c-0.4-3.2-2-6.1-4.4-8.2c-0.2-0.2-0.5-0.3-0.7-0.4L87,85.2c0.1,1,0.3,2,0.5,3c0.3,1.4,0.8,2.8,1.1,4.2c0.4,1.6-0.4,3.2-1.9,3.9
	c-1.5,0.9-3.1,1.3-4.8,1.4c-4.7,0.2-9.2-1.8-12.1-5.5c-1-1.1-1.9-2.3-2.9-3.4c-0.4-0.6-1.2-0.9-1.9-0.6c-0.7,0.3-1,1.1-0.7,1.8
	C64.3,90.7,64.5,91.2,64.7,91.6"/>
<path id="Path_47" class="st1" d="M30.8,102.9c-1.9,0.3-3.7,1.4-4.8,3c-0.3,0.7,0.1,1.6,0.8,1.9c0.2,0.1,0.5,0.1,0.7,0.1
	c1.3-0.3,2.5-0.8,3.6-1.5c0.3-0.2,0.7-0.4,1-0.7c0.6-0.6,1.7-1.2,1.2-2.2S31.7,102.7,30.8,102.9"/>
<path id="Path_48" class="st1" d="M37.8,126.1c-0.7,0.2-1.3,0.6-1.8,1.1c-0.5,0.5-0.4,0.5-0.7,1c0.2,1.6,1.6,2.4,2.8,1.6
	c0.7-0.5,1.4-1.1,1.8-1.9c0.2-0.6,0-1.2-0.4-1.6C39,126,38.4,125.9,37.8,126.1"/>
<path id="Path_49" class="st1" d="M56.4,140.8c-1.7,0-3.2,1.2-3.5,2.9c-0.1,0.9,0.5,1.7,1.4,1.8c0.3,0,0.7,0,1-0.2
	c0.9-0.6,1.6-1.4,2.2-2.3c0.4-0.7,0.2-1.5-0.5-1.9C56.8,140.9,56.6,140.8,56.4,140.8"/>
<path id="Path_50" class="st1" d="M72.6,159.1c-0.8,0.8-1.4,1.7-1.9,2.7c-0.5,1.2,0.6,2.4,2.2,2.4c0.2-0.1,0.9-0.2,1.1-0.6
	c0.6-0.9,1-1.9,1.3-2.9c0-0.6-0.3-1.2-0.8-1.7C74,158.5,73.1,158.5,72.6,159.1"/>
<path id="Path_51" class="st1" d="M102.9,65.3c1.2,0.5,2.1-0.2,3.1-0.7c0.7-0.3,1-1.1,0.7-1.8c-0.2-0.8-0.8-1.1-1.9-1.2
	c-0.5,0.1-1.3,0.4-2,0.6c-0.7,0.2-1.1,0.9-1.1,1.6C101.8,64.5,102.3,65.1,102.9,65.3"/>
<path id="Path_52" class="st1" d="M136,148.7c-1.2,0-2.2,0.6-2.9,1.5c-0.7,0.7-0.8,1.9,0,2.6c0.2,0.2,0.4,0.4,0.7,0.4
	c1.8,0.2,3.6-0.4,5-1.6c0.3-0.5,0.3-1.1,0.1-1.7C138.2,149.1,137.1,148.5,136,148.7"/>
<path id="Path_53" class="st1" d="M161,56.9c1-0.4,2-0.8,3-1.4c0.4-0.4,0.6-1,0.5-1.6c-0.2-0.5-0.7-0.9-1.3-1.1
	c-1.3-0.2-2.5,0.3-3.3,1.3c-0.3,0.5-0.4,1.1-0.3,1.7C159.8,56.3,160.5,56.5,161,56.9"/>
<path id="Path_54" class="st1" d="M107.8,32.4c0,0.1,0.1,0.2,0.2,0.2c0.8-0.5,1.5-1,2.2-1.6c0.5-0.5,0.5-1.3,0-1.8c0,0,0,0-0.1-0.1
	c-0.5-0.4-1.1-0.6-1.7-0.6c-0.6,0.1-1.2,0.4-1.7,0.7c-0.7,0.3-1.1,1.2-0.8,2C106.2,32.2,106.9,32.4,107.8,32.4"/>
<g>
</g>
<g>
</g>
<g>
</g>
<g>
</g>
<g>
</g>
<g>
</g>
</svg>
